<svg width="111" height="65" viewBox="0 0 111 65" fill="none" xmlns="http://www.w3.org/2000/svg">
<path d="M105.906 56.7015C104.144 56.0239 102.653 54.5332 101.569 53.178C98.4522 49.5189 93.8445 47.215 88.5591 47.215C83.2738 47.215 78.395 49.6544 75.278 53.178C73.3807 55.3463 70.6703 56.7015 67.4178 56.7015C64.3008 56.7015 61.5904 55.2108 59.6931 53.0424C56.5761 49.3834 51.9683 47.0795 46.683 47.0795C41.3977 47.0795 36.7899 49.5189 33.8085 53.0424C31.9112 55.2108 29.2007 56.566 25.9482 56.566C22.8312 56.566 20.1208 55.0752 18.2235 52.9069C15.242 49.3833 10.6343 47.0795 5.48449 46.944C5.48449 46.944 2.09646 46.944 2.09646 50.061C2.09646 53.3135 5.48449 53.178 5.48449 53.178C8.46596 53.3135 11.1764 54.6687 12.9382 56.7015C16.0552 60.3606 20.5274 62.6645 25.8127 62.6645C31.098 62.6645 35.8413 60.3606 38.8228 56.7015C40.5845 54.5332 43.295 53.0424 46.5475 53.0424C49.6645 53.0424 52.5104 54.3976 54.4077 56.566C57.5247 60.2251 61.9969 62.5289 67.2823 62.5289C72.5676 62.5289 77.3108 60.2251 80.2923 56.566C82.1896 54.3976 85.1711 52.9069 88.2881 52.9069C91.4051 52.9069 94.251 54.2621 96.1483 56.4305C98.5877 59.2764 101.84 61.7158 105.635 62.3934C105.635 62.3934 109.023 62.2579 109.023 59.1409C109.294 56.7015 105.906 56.7015 105.906 56.7015ZM105.906 34.476C104.144 33.7984 102.653 32.3077 101.569 30.9524C98.4522 27.2934 93.8445 24.9895 88.5591 24.9895C83.2738 24.9895 78.395 27.4289 75.278 30.9524C73.3807 33.1208 70.6703 34.476 67.4178 34.476C64.3008 34.476 61.5904 32.9853 59.6931 30.8169C56.5761 27.1578 51.9683 24.854 46.683 24.854C41.3977 24.854 36.7899 27.2934 33.8085 30.8169C31.9112 32.9853 29.2007 34.3405 25.9482 34.3405C22.8312 34.3405 20.1208 32.8497 18.2235 30.6814C15.242 27.1578 10.6343 24.854 5.48449 24.7185C5.48449 24.7185 2.09646 24.7185 2.09646 27.8354C2.09646 31.088 5.48449 30.9524 5.48449 30.9524C8.46596 31.088 11.1764 32.4432 12.9382 34.476C16.0552 38.1351 20.5274 40.4389 25.8127 40.4389C31.098 40.4389 35.8413 38.1351 38.8228 34.476C40.5845 32.3077 43.295 30.8169 46.5475 30.8169C49.6645 30.8169 52.5104 32.1721 54.4077 34.3405C57.5247 37.9996 61.9969 40.3034 67.2823 40.3034C72.5676 40.3034 77.3108 37.9996 80.2923 34.3405C82.1896 32.1721 85.1711 30.6814 88.2881 30.6814C91.4051 30.6814 94.251 32.0366 96.1483 34.205C98.5877 37.0509 101.84 39.4903 105.635 40.1679C105.635 40.1679 109.023 40.0324 109.023 36.9154C109.294 34.6115 105.906 34.476 105.906 34.476ZM5.62002 9.26901C8.60149 9.40454 11.3119 10.7597 13.0737 12.7926C16.1907 16.4516 20.6629 18.7555 25.9482 18.7555C31.2336 18.7555 35.9768 16.4516 38.9583 12.7926C40.7201 10.6242 43.4305 9.1335 46.683 9.1335C49.8 9.1335 52.6459 10.4887 54.5432 12.657C57.6602 16.3161 62.1324 18.62 67.4178 18.62C72.7031 18.62 77.4464 16.3161 80.4278 12.657C82.3251 10.4887 85.3066 8.99797 88.4236 8.99797C91.5406 8.99797 94.3865 10.3532 96.2838 12.5215C98.7232 15.3675 101.976 17.8069 105.77 18.4845C105.77 18.4845 109.158 18.349 109.158 15.232C109.158 12.115 105.77 12.115 105.77 12.115C104.009 11.4374 102.518 9.94662 101.434 8.59141C98.3167 4.93233 93.7089 2.62847 88.4236 2.62847C83.1383 2.62847 78.2595 5.06785 75.1425 8.59141C73.2452 10.7597 70.5348 12.115 67.2823 12.115C64.1653 12.115 61.4548 10.6242 59.5575 8.45589C56.4405 4.79681 51.8328 2.49294 46.5475 2.49294C41.2621 2.49294 36.6544 4.93233 33.6729 8.45589C31.7757 10.6242 29.0652 11.9794 25.8127 11.9794C22.6957 11.9794 19.9853 10.4887 18.088 8.32036C15.1065 4.79681 10.4988 2.49294 5.34897 2.35742C5.34897 2.35742 1.96094 2.35742 1.96094 5.47442C2.23198 9.26902 5.62002 9.26901 5.62002 9.26901Z" stroke="#F4F4F4" stroke-width="3" stroke-miterlimit="10" stroke-linecap="round" stroke-linejoin="round"/>
</svg>
