<svg width="110" height="106" viewBox="0 0 110 106" fill="none" xmlns="http://www.w3.org/2000/svg">
<path d="M109.71 74.7991C109.71 74.5281 109.71 74.3926 109.574 74.1215V47.5593C109.574 46.4751 108.626 45.5265 107.542 45.5265C106.457 45.5265 105.509 46.4751 105.509 47.5593V72.7663H79.2176L67.4272 52.5736L90.7369 39.8346C97.784 36.04 101.172 28.4508 98.3261 22.8944L89.1106 5.81872C87.8909 3.65038 85.8581 2.02412 83.1477 1.211C79.3531 0.126825 74.8809 0.66891 70.8152 2.97277L8.20436 36.4466C7.52676 36.7176 6.98467 37.3952 6.98467 38.2083C6.98467 39.0215 7.12019 39.428 7.52676 40.2412L10.5082 45.9331L1.56381 50.2697C1.02173 50.5408 0.750685 50.9473 0.479643 51.4894C0.344121 52.0315 0.344122 52.5736 0.615165 52.9802L7.12019 66.5323C7.52676 67.2099 8.20436 67.6165 9.01749 67.6165C9.28853 67.6165 9.55958 67.6165 9.83062 67.481L19.0461 63.0088C19.1816 63.0088 19.1816 62.8732 19.3171 62.8732L20.5368 65.3126C21.7565 67.481 23.7893 69.1072 26.4998 69.9203C27.7194 70.3269 29.0747 70.4624 30.2944 70.4624C33.1403 70.4624 35.9863 69.6493 38.6967 68.1586L63.6326 54.6064L76.1006 75.8833C76.5071 76.5609 77.1848 76.8319 77.8624 76.8319H105.509V103.665C105.509 104.749 106.457 105.698 107.542 105.698C108.626 105.698 109.574 104.749 109.574 103.665V75.3412C109.71 75.2057 109.71 74.9346 109.71 74.7991ZM17.2843 59.3497L9.83062 62.8732L5.08737 52.9802L12.4055 49.4566L17.5553 59.2142C17.4198 59.2142 17.4198 59.3497 17.2843 59.3497ZM36.9349 64.4995C33.8179 66.1257 30.4299 66.6678 27.7194 65.8547C26.6353 65.5837 25.009 64.7705 24.1959 63.2798L11.7279 39.2925L72.7125 6.63185C75.8295 5.0056 79.2176 4.46351 81.928 5.27664C83.0122 5.54768 84.6384 6.36081 85.4516 7.85154L94.667 24.9272C96.5643 28.3153 93.8539 33.6006 88.8396 36.311L36.9349 64.4995Z" fill="#F4F4F4"/>
</svg>
