<svg width="113" height="112" viewBox="0 0 113 112" fill="none" xmlns="http://www.w3.org/2000/svg">
<path d="M44.8611 2.28394L16.1306 23.6963H2.17188L31.0379 2.28394H44.8611Z" stroke="#F4F4F4" stroke-width="3" stroke-miterlimit="10" stroke-linecap="round" stroke-linejoin="round"/>
<path d="M81.7252 62.0496C81.7252 62.0496 81.5866 62.0496 81.7252 62.0496V62.0496Z" stroke="#F4F4F4" stroke-width="3" stroke-miterlimit="10" stroke-linecap="round" stroke-linejoin="round"/>
<path d="M60.3125 44.5657V44.2947C60.5835 44.2947 59.7704 44.4302 60.3125 44.5657Z" stroke="#F4F4F4" stroke-width="3" stroke-miterlimit="10" stroke-linecap="round" stroke-linejoin="round"/>
<path d="M98.9345 62.0484C98.9345 64.4878 97.8503 66.3851 96.0885 67.8758C95.8175 67.7403 95.682 67.4693 95.4109 67.3337C95.4109 67.3337 95.4109 67.3337 95.2754 67.3337C95.1399 67.1982 95.1399 67.1982 95.0044 67.1982C94.8688 67.0627 94.8688 67.0627 94.7333 67.0627L94.5978 66.9272C94.4623 66.7917 94.3268 66.7917 94.1912 66.6561C94.1912 66.6561 94.1912 66.6561 94.0557 66.6561C93.9202 66.5206 93.6492 66.3851 93.5136 66.3851C93.2426 66.2496 92.836 65.9785 92.565 65.843H92.4295C92.2939 65.7075 92.1584 65.7075 91.8874 65.572C91.0742 65.1654 90.2611 64.8944 89.448 64.6233C89.0414 64.4878 88.7704 64.3523 88.3638 64.2168H88.2283C87.9573 64.0812 87.5507 64.0812 87.2796 63.9457C87.1441 63.9457 87.0086 63.8102 87.0086 63.8102C86.331 63.5391 85.5179 63.4036 84.8403 63.1326C84.7047 63.1326 84.5692 62.9971 84.4337 62.9971H84.2982C84.0271 62.8615 83.7561 62.8615 83.485 62.8615C83.3495 62.8615 83.214 62.726 83.0785 62.726C82.943 62.726 82.8074 62.5905 82.6719 62.5905C82.4009 62.455 82.1298 62.455 81.7233 62.3195C79.4194 61.6418 76.709 60.9642 74.1341 60.1511C72.3723 59.4735 65.4607 57.4407 60.3109 56.3565C59.9043 56.221 60.5819 56.221 60.3109 56.0855C59.0912 55.8144 60.5819 55.6789 60.3109 55.5434C60.1754 55.5434 60.3109 55.5434 60.3109 55.5434V53.104V49.987V48.0897V46.0569C71.4236 48.7673 93.3781 54.1882 95.953 56.492C97.7148 57.7117 98.9345 59.609 98.9345 62.0484Z" stroke="#F4F4F4" stroke-width="3" stroke-miterlimit="10" stroke-linecap="round" stroke-linejoin="round"/>
<path d="M64.645 73.8399C64.645 76.2793 65.7292 78.1766 67.3554 79.6673C70.879 82.7843 76.9775 84.275 81.5852 85.4947C83.8891 86.1723 86.5995 86.8499 89.1744 87.6631C91.7493 88.6117 94.1887 89.6959 95.9505 91.3222C97.7122 89.8314 98.7964 87.9341 98.7964 85.4947C98.7964 83.0554 97.5767 81.158 95.8149 79.5318C92.2914 76.4148 86.0574 74.9241 81.5852 73.7044C76.9775 72.4847 71.0145 70.9939 67.491 67.877C65.7292 69.3677 64.645 71.265 64.645 73.8399Z" stroke="#F4F4F4" stroke-width="3" stroke-miterlimit="10" stroke-linecap="round" stroke-linejoin="round"/>
<path d="M64.645 97.1489C64.645 99.5883 65.7292 101.486 67.3554 102.976C70.7435 106.093 76.7064 107.855 81.3142 108.804C90.2586 110.566 110.722 110.159 110.722 110.159C110.722 109.481 109.774 108.262 108.418 106.906C103.946 102.705 98.2543 99.9949 92.1559 99.0462C88.2257 98.5042 83.8891 97.691 81.5852 97.1489C76.9775 95.9293 71.0145 94.303 67.491 91.3215C65.7292 92.8123 64.645 94.7096 64.645 97.1489Z" stroke="#F4F4F4" stroke-width="3" stroke-miterlimit="10" stroke-linecap="round" stroke-linejoin="round"/>
<path d="M81.7252 85.3589C81.5866 85.3589 81.7252 85.3589 81.7252 85.3589V85.3589Z" stroke="#F4F4F4" stroke-width="3" stroke-miterlimit="10" stroke-linecap="round" stroke-linejoin="round"/>
<path d="M67.4883 91.3215C68.708 92.4057 70.1987 93.2188 71.825 94.032C74.942 95.5227 78.601 96.3358 81.5825 97.2845C83.3443 96.8779 85.2416 96.3358 87.2744 95.6582C88.2231 95.3872 89.1717 94.9806 90.1204 94.7096C92.2887 93.8965 94.457 92.8123 95.9478 91.4571C94.186 89.9663 91.7466 88.7466 89.1717 87.798C88.3586 87.5269 87.681 87.2559 86.8678 87.1204C84.9705 86.5783 83.2088 86.0362 81.5825 85.6296C77.1103 86.7138 71.0118 88.2046 67.4883 91.3215Z" stroke="#F4F4F4" stroke-width="3" stroke-miterlimit="10" stroke-linecap="round" stroke-linejoin="round"/>
<path d="M67.4883 67.8758C71.0118 70.9928 76.9748 72.4835 81.5825 73.7032C83.3443 73.2966 85.2416 72.7546 87.2744 72.0769C87.952 71.9414 88.6296 71.6704 89.1717 71.3993C89.4427 71.2638 89.8493 71.1283 90.1204 70.9928C92.2887 70.1796 94.457 69.0955 95.9478 67.7403C92.4242 64.6233 86.1902 63.1325 81.5825 61.9128C77.1103 63.2681 71.1474 64.7588 67.4883 67.8758Z" stroke="#F4F4F4" stroke-width="3" stroke-miterlimit="10" stroke-linecap="round" stroke-linejoin="round"/>
<path d="M67.4883 67.877C68.708 68.9612 70.1987 69.7743 71.825 70.5874C74.942 72.0781 78.601 73.0268 81.5825 73.8399C83.3443 73.4334 85.2416 72.8913 87.2744 72.2137C87.952 72.0781 88.6296 71.8071 89.1717 71.5361C89.4427 71.4005 89.8493 71.265 90.1204 71.1295C92.2887 70.3164 94.457 69.2322 95.9478 67.877C93.6439 65.8442 90.2559 64.4889 86.8678 63.5403C84.9705 62.9982 83.2088 62.4561 81.5825 62.0496C77.1103 63.2693 71.1474 64.76 67.4883 67.877Z" stroke="#F4F4F4" stroke-width="3" stroke-miterlimit="10" stroke-linecap="round" stroke-linejoin="round"/>
<path d="M73.5939 23.6963H16.1328L44.8634 2.28394L73.5939 23.6963Z" stroke="#F4F4F4" stroke-width="3" stroke-miterlimit="10" stroke-linecap="round" stroke-linejoin="round"/>
<path d="M16.1328 107.178V24.9167" stroke="#F4F4F4" stroke-width="3" stroke-miterlimit="10" stroke-linecap="round" stroke-linejoin="round"/>
<path d="M28.3276 107.178V24.9165" stroke="#F4F4F4" stroke-width="3" stroke-miterlimit="10" stroke-linecap="round" stroke-linejoin="round"/>
<path d="M47.9766 107.178V24.9167" stroke="#F4F4F4" stroke-width="3" stroke-miterlimit="10" stroke-linecap="round" stroke-linejoin="round"/>
<path d="M59.9028 107.178V24.9165" stroke="#F4F4F4" stroke-width="3" stroke-miterlimit="10" stroke-linecap="round" stroke-linejoin="round"/>
<path d="M16.1328 56.4929H59.0931" stroke="#F4F4F4" stroke-width="3" stroke-miterlimit="10" stroke-linecap="round" stroke-linejoin="round"/>
</svg>
