<svg width="83" height="112" viewBox="0 0 83 112" fill="none" xmlns="http://www.w3.org/2000/svg">
<path d="M37.9159 2.82568H36.0186V32.0983C36.0186 36.706 32.6305 40.5006 28.2939 41.3138V2.82568H18.9429V41.1782C14.6062 40.3651 11.2182 36.5705 11.2182 31.9628V2.82568H9.32087C5.25522 2.82568 1.86719 6.21372 1.86719 10.2794V32.0983C1.86719 41.8558 9.32087 49.8516 18.9429 50.6647V109.888H28.2939V50.6647C37.7804 49.8516 45.3696 41.8558 45.3696 32.0983V10.2794C45.3696 6.0782 42.117 2.82568 37.9159 2.82568Z" stroke="#F4F4F4" stroke-width="3" stroke-miterlimit="10" stroke-linecap="round" stroke-linejoin="round"/>
<path d="M80.741 42.6687V7.70416C80.741 3.09643 75.4556 0.657048 71.9321 3.503C64.885 9.33042 60.8193 18.0038 60.8193 27.0837V56.2208C60.8193 62.9969 65.2915 68.6888 71.5255 70.5861V109.752H80.8765L80.741 42.6687Z" stroke="#F4F4F4" stroke-width="3" stroke-miterlimit="10" stroke-linecap="round" stroke-linejoin="round"/>
</svg>
