<svg width="105" height="51" viewBox="0 0 105 51" fill="none" xmlns="http://www.w3.org/2000/svg">
<g clip-path="url(#clip0)">
<path d="M75.272 0.5H29.625V50.5H75.272V0.5Z" fill="#D41367"/>
<path d="M60.8628 24.8039L61.0872 24.3547L60.8628 23.9054L62.344 19.5928C62.703 19.5928 95.3337 19.6826 96.5456 19.6826C98.7449 19.6826 104.31 24.3996 104.31 24.3996C104.31 24.3996 99.1937 29.0267 96.5007 29.0267C95.0195 29.0267 66.204 29.0717 64.8126 29.0717L60.8628 24.8039Z" fill="#24272A"/>
<path d="M62.5664 24.759L62.7459 24.3547L62.5664 23.9504L63.509 19.9971H63.9578C64.272 19.9971 95.4215 20.042 96.5436 20.042C98.6082 20.042 102.648 24.4445 102.648 24.4445C102.648 24.4445 98.698 28.7123 96.5884 28.7572C95.4215 28.7572 65.2146 28.7572 63.9129 28.7572H63.4641L62.5664 24.759Z" fill="white"/>
<path d="M101.213 24.3546C101.213 24.3546 98.3855 20.4014 96.5004 20.4014C95.3334 20.4014 64.0044 20.3564 64.0044 20.3564L62.3886 23.9503L62.2539 24.2199L63.1965 24.8937L64.0044 28.4427C64.0044 28.4427 95.2436 28.4427 96.4106 28.4427C98.7895 28.3528 101.168 24.3546 101.213 24.3546Z" fill="#8C9091"/>
<path d="M43.4477 24.8039L43.2233 24.3547L43.4477 23.9054L41.9665 19.5928C41.6074 19.5928 8.9768 19.6826 7.76493 19.6826C5.56561 19.6826 0 24.4445 0 24.4445C0 24.4445 5.11677 29.0717 7.80981 29.0717C9.29098 29.0717 39.4979 29.0267 40.8893 29.0267L43.4477 24.8039Z" fill="#24272A"/>
<path d="M41.7435 24.759L41.564 24.3547L41.7435 23.9504L40.8459 19.9971H40.397C40.0828 19.9971 8.93335 20.042 7.81125 20.042C5.74659 20.042 1.70703 24.4445 1.70703 24.4445C1.70703 24.4445 5.65682 28.7123 7.76637 28.7572C8.93335 28.7572 39.1403 28.7572 40.4419 28.7572H40.8907L41.7435 24.759Z" fill="white"/>
<path d="M3.14062 24.3546C3.14062 24.3546 5.96832 20.4014 7.85344 20.4014C9.02043 20.4014 40.3494 20.3564 40.3494 20.3564L41.9653 23.9503L42.0999 24.2199L41.1573 24.8937L40.3494 28.3529C40.3494 28.3529 9.11019 28.3529 7.94321 28.3529C5.56436 28.3529 3.14062 24.3546 3.14062 24.3546Z" fill="#8C9091"/>
<path d="M55.5663 22.9619C55.5663 23.1865 55.3868 23.3213 55.2072 23.3213C54.9828 23.3213 54.8481 23.1416 54.8481 22.9619C54.8481 22.7373 55.0277 22.6025 55.2072 22.6025C55.3868 22.6025 55.5663 22.7822 55.5663 22.9619Z" fill="#24272A"/>
<path d="M55.5663 25.9718C55.5663 26.1964 55.3868 26.3312 55.2072 26.3312C54.9828 26.3312 54.8481 26.1515 54.8481 25.9718C54.8481 25.7472 55.0277 25.6124 55.2072 25.6124C55.3868 25.5675 55.5663 25.7472 55.5663 25.9718Z" fill="#24272A"/>
<path d="M63.7821 16.5826C64.6349 16.4928 64.6798 17.5709 64.4105 17.7956C64.4105 17.7956 65.0389 18.4245 65.0837 18.6042C65.1286 18.694 64.5451 19.2331 64.5451 19.2331C64.9042 19.7273 64.8593 20.3562 64.231 20.6257C63.8719 20.7605 63.423 20.7156 63.2884 20.3113C63.2435 20.1316 63.2435 19.907 63.3781 19.7722C63.5577 19.5925 63.8719 19.5925 64.0514 19.8171C63.9168 19.3679 63.423 19.4577 63.1986 19.6374C63.0191 19.7722 62.8844 19.9968 62.66 20.4011C61.3584 23.0965 60.5505 23.9052 57.0495 24.1298C55.8376 24.1298 54.4014 24.2196 53.4588 23.2313C53.0548 22.827 52.4265 22.0184 52.3816 21.2547C52.3816 20.8504 52.4265 20.5359 52.4713 20.2664C52.9202 18.4245 55.4786 18.9636 55.0746 20.8504C55.299 20.7156 55.4786 20.5359 55.5683 20.1765C55.9723 18.1549 53.3241 18.11 52.4713 18.9186C52.8304 18.4245 52.9651 18.0202 52.9651 17.7057C52.9651 17.2115 52.202 15.8189 51.9776 15.19C51.7532 15.8189 51.1697 16.7623 51.1248 17.4811C51.1697 17.7956 51.2146 18.4245 51.6185 18.9636C50.8555 18.4694 49.4192 18.3346 48.8357 19.1433C48.5664 19.5027 48.4767 20.6257 49.3295 21.0301C49.105 20.446 49.2397 19.5476 49.8232 19.3679C50.4964 19.1433 51.2595 19.5925 51.5737 20.2214C51.6185 20.2664 51.7981 20.7156 51.7532 21.2996C51.7083 22.6024 50.9902 23.3661 50.0027 23.8153C49.8232 23.8153 49.913 23.8153 49.7334 23.8153C49.8681 23.7255 49.9578 23.5009 50.0027 23.411C50.4067 23.2313 50.5862 23.0067 50.9004 22.5575C51.439 21.7938 51.6634 20.8054 50.9902 20.0417C50.7209 19.7273 50.272 19.5476 49.8681 19.6823C49.3295 19.862 49.3295 20.7156 49.5539 21.1648C48.8806 21.2097 47.7585 20.0417 48.5216 18.9636C48.9704 18.4245 49.3743 18.3346 49.7783 18.2897C50.3618 18.2448 51.1697 18.5143 51.0799 18.4694C50.8106 18.0202 50.4964 17.6159 50.5862 17.2565C50.8555 16.4029 51.7083 14.4712 51.843 14.1567C51.9327 14.3364 53.0548 16.2232 53.2344 17.2115C53.369 17.4362 53.0548 18.1549 52.8304 18.4694C53.9974 17.9752 55.9274 18.11 55.7479 19.907C55.6581 20.6257 54.9848 21.075 54.4911 21.075C54.6258 20.9402 54.7155 20.7605 54.7155 20.4011C54.7155 19.9968 54.4462 19.5027 53.9525 19.3679C53.3241 19.1882 52.9202 19.5925 52.6958 20.1316C52.2469 21.1648 52.7855 22.243 53.5934 22.8719C54.536 23.6356 55.8825 23.7255 57.0944 23.7255H57.1393C57.3637 23.7255 57.5432 23.7255 57.7677 23.6805C59.2937 23.4559 60.8646 22.9618 61.6277 21.5691C62.6151 19.862 62.4356 16.9869 61.3584 15.5494C61.0891 15.19 60.8198 14.9204 60.4607 14.7857C60.73 14.5611 60.9095 14.5611 61.2686 14.6958C61.3584 14.7407 61.493 14.7857 61.5379 14.8306C61.8521 14.6509 62.3458 14.6958 62.5702 15.0103C62.66 15.1451 62.7049 15.2798 62.7049 15.4146C63.7372 15.2349 64.0963 16.4029 63.7821 16.5826Z" fill="#8C9091"/>
<path d="M47.1733 12.2251L47.1284 12.4946H57.2273V12.2251H47.1733Z" fill="#8C9091"/>
<path d="M47.1733 12.854L47.1284 13.1235L57.2273 13.0786V12.8091L47.1733 12.854Z" fill="#8C9091"/>
<path d="M47.1733 38.8198H57.2273V38.5503H47.1284L47.1733 38.8198Z" fill="#8C9091"/>
<path d="M47.1733 38.2358H57.2273V37.9663H47.1284L47.1733 38.2358Z" fill="#8C9091"/>
<path d="M46.1873 16.0884H46.0078V21.4343H46.1873V16.0884Z" fill="#24272A"/>
<path d="M46.0508 14.8756H46.2303V12.2251L46.0508 11.9106V14.8756Z" fill="#24272A"/>
<path d="M46.2733 27.9033H46.0938V34.1926H46.2733V27.9033Z" fill="#24272A"/>
<path d="M46.1873 23.7256H46.0078V25.3428H46.1873V23.7256Z" fill="#24272A"/>
<path d="M58.1719 12.27V14.9205H58.3963V11.9106L58.1719 12.27Z" fill="#24272A"/>
<path d="M46.0938 35.0015L46.1386 39.2692L46.3182 38.9098V35.0015H46.0938Z" fill="#24272A"/>
<path d="M51.2557 16.8072V16.7623L52.0636 14.9654V14.4712L51.0312 17.0768" fill="#24272A"/>
<path d="M51.1678 32.2608L51.2127 32.3057L52.0206 34.1026V34.5968L50.9883 31.9912" fill="#24272A"/>
<path d="M58.4837 16.2231H58.3042V21.5691H58.4837V16.2231Z" fill="#24272A"/>
<path d="M58.4837 27.5439H58.3042V34.1926H58.4837V27.5439Z" fill="#24272A"/>
<path d="M45.1519 37.7865C42.5935 37.6967 42.0998 34.9114 42.01 34.013C41.8753 32.6203 41.8753 27.3643 41.9202 27.2744C41.7856 27.544 41.7856 27.6787 41.6509 27.8584C41.6509 28.3526 41.5611 34.013 42.0549 35.7201C42.0549 35.765 42.0998 35.8548 42.0998 35.8998C42.3691 36.0345 42.5935 36.3041 42.7281 36.6635C42.773 36.7982 42.8179 36.933 42.8179 37.0228C43.536 37.7865 44.2093 38.0112 45.1519 38.101V37.7865Z" fill="#8C9091"/>
<path d="M47.3962 37.5172C47.5309 37.5172 47.6206 37.5172 47.7553 37.5172C47.5758 37.2027 47.2167 35.6753 47.2167 35.4058L47.082 35.4507C47.082 35.8999 47.3513 37.2926 47.3962 37.5172Z" fill="#8C9091"/>
<path d="M45.3775 35.4506C45.3327 35.4057 45.2878 35.4506 45.2429 35.4506C45.198 35.9897 45.1082 36.8433 44.9287 37.3374C45.0185 37.3823 45.1082 37.3823 45.198 37.3823C45.3775 36.8433 45.3775 35.6303 45.3775 35.4506Z" fill="#8C9091"/>
<path d="M59.739 32.8452C59.7839 32.7554 59.8287 32.7105 59.8736 32.6206C60.0532 32.7554 60.098 32.4859 60.0083 32.4409C59.9634 32.396 59.8736 32.396 59.7839 32.5308C59.739 32.6206 59.6492 32.7105 59.6043 32.8452C59.4697 33.1597 59.335 33.5191 59.3799 33.9683C59.4248 33.9683 59.4697 33.9683 59.5146 33.9683C59.4697 33.3394 59.6941 32.9351 59.739 32.8452Z" fill="#8C9091"/>
<path d="M57.5409 35.3608L57.4063 35.3159C57.3614 35.5855 57.0023 37.1578 56.8677 37.4273C57.0023 37.4273 57.0921 37.4273 57.2267 37.4273C57.2716 37.2027 57.496 35.855 57.5409 35.3608Z" fill="#8C9091"/>
<path d="M59.4266 37.3374C59.5164 37.3374 59.6062 37.2925 59.6959 37.2925C59.5164 36.7983 59.3817 35.9448 59.3817 35.4057C59.3369 35.4057 59.2471 35.3608 59.2471 35.4057C59.2022 35.5854 59.2022 36.7983 59.4266 37.3374Z" fill="#8C9091"/>
<path d="M41.9688 24.2648C41.9688 24.2648 43.0011 24.175 43.4948 24.175C43.9436 24.175 44.7067 24.3098 44.7067 24.3098C44.7067 24.3098 43.5846 23.8156 43.2255 23.9055C42.9113 23.9953 41.9688 24.2648 41.9688 24.2648Z" fill="#24272A"/>
<path d="M39.812 13.6177L39.6325 12.9888L40.4853 12.4947C40.4853 12.4947 40.216 12.6743 40.0364 13.0787C39.8569 13.3033 39.812 13.6177 39.812 13.6177ZM38.8695 13.9322C38.4655 13.6627 38.7348 13.0337 38.7348 13.0337C38.7348 13.0337 38.0615 13.0787 37.3434 12.854C36.6253 12.6294 36.1315 12.0454 36.1315 12.0454C36.1315 12.0454 38.9592 12.4048 39.3183 12.4048C39.3632 12.4048 36.8048 12.315 36.8048 12.315C36.8048 12.315 37.0741 12.6294 37.7474 12.8091C38.4655 13.0337 39.0939 12.8091 39.0939 12.8091C39.0939 12.8091 38.6899 13.3931 39.0041 13.7525C39.1836 13.9322 39.4529 13.9322 39.5876 13.7974C39.4529 13.9771 39.1836 14.1119 38.8695 13.9322ZM40.979 13.3482C40.979 13.3482 41.3381 13.3482 41.383 13.6627C41.4278 14.1568 40.7546 14.2916 40.4404 14.0221C40.1262 13.7974 40.0813 13.2584 40.4853 12.899C40.9341 12.4497 41.5176 12.27 41.5176 12.27C41.5176 12.27 39.9467 12.315 38.7797 12.27C37.119 12.1802 35.7725 11.9556 35.7725 11.9556C35.7725 11.9556 36.3111 12.6743 37.0741 13.0337C37.6576 13.3033 38.4655 13.3033 38.4655 13.3033C38.4655 13.3033 38.3308 13.9771 38.8246 14.2017C39.4978 14.5162 39.812 13.8873 39.812 13.8873C39.812 13.8873 39.812 14.3365 40.2609 14.5611C40.7995 14.7858 41.6074 14.7408 41.8318 14.067C41.9216 13.8424 41.8767 13.5279 41.6074 13.438C41.6971 13.483 42.146 13.5728 42.0113 14.1119C41.8767 14.7408 40.979 15.1002 40.3506 14.9654C40.979 15.235 42.1011 14.9654 42.2358 14.1119C42.3704 13.0337 41.2034 13.1236 40.979 13.3482Z" fill="#8C9091"/>
<path d="M39.9467 37.9662C40.1262 38.3705 40.3955 38.5502 40.3955 38.5502L39.5427 38.056L39.7223 37.4271C39.7671 37.3822 39.812 37.6966 39.9467 37.9662ZM39.5427 37.1576C39.4529 37.0677 39.1836 37.0228 38.9592 37.2025C38.6002 37.5619 39.049 38.1459 39.049 38.1459C39.049 38.1459 38.4655 37.9213 37.7025 38.1459C37.0292 38.3256 36.7599 38.64 36.7599 38.64C36.7599 38.64 39.3183 38.5502 39.2734 38.5502C38.9592 38.5502 36.0867 38.9096 36.0867 38.9096C36.0867 38.9096 36.6253 38.3256 37.2985 38.1009C38.0615 37.8763 38.6899 37.9213 38.6899 37.9213C38.6899 37.9213 38.4206 37.2923 38.8246 37.0228C39.1388 36.8431 39.4081 37.0228 39.5427 37.1576ZM42.2358 36.9779C42.146 36.1243 40.979 35.8548 40.3506 36.1243C40.979 35.9895 41.8767 36.3489 42.0113 36.9779C42.1011 37.5169 41.6971 37.6068 41.6074 37.6517C41.8767 37.5169 41.8767 37.2025 41.8318 37.0228C41.6074 36.3489 40.7995 36.304 40.2609 36.5286C39.812 36.7532 39.812 37.2025 39.812 37.2025C39.812 37.2025 39.4978 36.5735 38.8246 36.888C38.3308 37.1126 38.4655 37.7865 38.4655 37.7865C38.4655 37.7865 37.7025 37.7416 37.0741 38.056C36.356 38.3705 35.7725 39.1342 35.7725 39.1342C35.7725 39.1342 37.119 38.9096 38.7797 38.8197C39.9467 38.7748 41.5176 38.8197 41.5176 38.8197C41.5176 38.8197 40.9341 38.64 40.4853 38.1908C40.1262 37.8314 40.1711 37.2923 40.4404 37.0677C40.7546 36.7982 41.4278 36.888 41.383 37.4271C41.3381 37.7416 40.979 37.7416 40.979 37.7416C41.2034 37.8763 42.3255 37.9213 42.2358 36.9779Z" fill="#8C9091"/>
<path d="M46.184 15.3247C45.1517 15.3696 44.3438 15.1001 44.3438 15.1001C44.3438 15.1001 44.6131 15.5943 45.2414 15.729C45.6454 15.8189 46.4533 15.8638 47.0368 15.729C47.6203 15.5943 47.8896 15.145 47.8896 15.145C47.8896 15.145 47.2163 15.2798 46.184 15.3247Z" fill="#8C9091"/>
<path d="M58.3491 15.3247C59.3815 15.3696 60.1894 15.1001 60.1894 15.1001C60.1894 15.1001 59.9201 15.5943 59.2917 15.729C58.8878 15.8189 58.0798 15.8638 57.4964 15.729C56.9129 15.5943 56.6436 15.145 56.6436 15.145C56.6436 15.145 57.3168 15.2798 58.3491 15.3247Z" fill="#8C9091"/>
<path d="M46.184 34.687C45.1517 34.7319 44.3438 34.4624 44.3438 34.4624C44.3438 34.4624 44.6131 34.9566 45.2414 35.0913C45.6454 35.1812 46.4533 35.2261 47.0368 35.0913C47.6203 34.9566 47.8896 34.5073 47.8896 34.5073C47.8896 34.5073 47.2163 34.687 46.184 34.687Z" fill="#8C9091"/>
<path d="M10.8602 24.3097V26.1515C10.8602 26.6008 11.1744 26.8254 11.7579 26.8254C12.0272 26.8254 12.2516 26.7355 12.4312 26.5109C12.6107 26.3312 12.7005 26.0617 12.7005 25.7472C12.7005 25.298 12.5209 24.9835 12.2067 24.6691C11.8926 24.3995 11.4437 24.2198 10.95 24.2198H10.8602V24.3097ZM10.8602 21.9736V24.0851H11.4886C11.713 24.0851 11.9374 23.9503 12.2067 23.6807C12.4312 23.4561 12.5209 23.1866 12.5209 22.8721C12.5209 22.5576 12.4312 22.333 12.2067 22.1533C11.9823 22.0186 11.6681 21.9287 11.2642 21.9287H10.8602V21.9736ZM11.9823 24.1749C12.3863 24.2647 12.7454 24.4894 12.9698 24.7589C13.1942 25.0284 13.3288 25.3429 13.3288 25.7023C13.3288 26.1515 13.1942 26.5109 12.88 26.7355C12.5658 27.0051 12.1619 27.1399 11.6233 27.1399H9.55859V26.9152H9.64836C9.87278 26.9152 10.0523 26.8703 10.0972 26.7805C10.187 26.6906 10.187 26.5109 10.187 26.2414V22.7373C10.187 22.4678 10.1421 22.2432 10.0972 22.1533C10.0074 22.0635 9.87278 22.0186 9.64836 22.0186H9.55859V21.7939H11.3988C11.8477 21.7939 12.1619 21.7939 12.3414 21.8389C12.5209 21.8838 12.6556 21.9287 12.7902 22.0186C13.0595 22.1983 13.1942 22.4678 13.1942 22.7823C13.1942 23.0967 13.1044 23.3663 12.9249 23.5909C12.6556 23.7706 12.3863 23.9952 11.9823 24.1749Z" fill="#24272A"/>
<path d="M15.2175 25.1632H17.2822L16.205 22.6475L15.2175 25.1632ZM15.1278 25.3878L14.8136 26.1965C14.7238 26.4211 14.6789 26.5559 14.6789 26.6008C14.6789 26.7356 14.8136 26.8254 15.038 26.8254H15.0829V27.05H13.7812V26.8254H13.8261C13.9608 26.8254 14.0954 26.7805 14.1852 26.6906C14.275 26.6008 14.3647 26.4211 14.4994 26.1515L16.3396 21.6143H16.5641L18.4941 26.1965C18.6287 26.466 18.7185 26.6457 18.7634 26.7356C18.8531 26.8254 18.9429 26.8703 19.0327 26.8703H19.0776V27.0949H17.5066V26.8703H17.5515C17.6862 26.8703 17.7759 26.8703 17.8208 26.8254C17.8657 26.7805 17.9106 26.7356 17.9106 26.6457C17.9106 26.6008 17.8657 26.4211 17.731 26.1515L17.4169 25.3878H15.1278Z" fill="#24272A"/>
<path d="M20.8709 24.3546H21.634C21.9033 24.2647 22.1277 24.085 22.3072 23.8604C22.4868 23.6358 22.5316 23.3213 22.5316 23.0069C22.5316 22.6475 22.4419 22.378 22.2175 22.2432C21.993 22.0635 21.634 22.0186 21.1851 22.0186H20.9158V24.3546H20.8709ZM20.8709 24.5792V26.1965C20.8709 26.466 20.9158 26.6457 20.9607 26.7355C21.0056 26.8254 21.1851 26.8703 21.4095 26.8703H21.4544V27.0949H19.5244V26.8703H19.5693C19.7937 26.8703 19.9733 26.8254 20.063 26.7355C20.1528 26.6457 20.1528 26.466 20.1528 26.1965V22.6924C20.1528 22.4229 20.1079 22.2432 20.063 22.1533C19.9733 22.0635 19.8386 22.0186 19.5693 22.0186H19.5244V21.7939H21.5442C22.1726 21.7939 22.6214 21.8838 22.8907 22.0186C23.16 22.1983 23.2947 22.4678 23.2947 22.8721C23.2947 23.2315 23.2049 23.546 22.9805 23.8155C22.7561 24.085 22.4419 24.2647 22.0379 24.4444C22.1726 24.5343 22.3072 24.6241 22.397 24.7589C22.4868 24.8487 22.6214 25.1183 22.8907 25.4777L23.2498 26.0617C23.4742 26.4211 23.6537 26.6906 23.7435 26.7805C23.8333 26.8703 23.9679 26.9602 24.0577 26.9602H24.1026V27.1848H23.0702L21.5442 24.5792H20.8709Z" fill="#24272A"/>
<path d="M25.8084 24.3546H26.5715C26.8408 24.2647 27.0652 24.085 27.2447 23.8604C27.4243 23.6358 27.4691 23.3213 27.4691 23.0069C27.4691 22.6475 27.3794 22.378 27.155 22.2432C26.9305 22.0635 26.5715 22.0186 26.1226 22.0186H25.8533V24.3546H25.8084ZM25.8084 24.5792V26.1965C25.8084 26.466 25.8533 26.6457 25.8982 26.7355C25.9431 26.8254 26.1226 26.8703 26.347 26.8703H26.3919V27.0949H24.4619V26.8703H24.5068C24.7312 26.8703 24.9108 26.8254 25.0005 26.7355C25.0903 26.6457 25.0903 26.466 25.0903 26.1965V22.6924C25.0903 22.4229 25.0454 22.2432 25.0005 22.1533C24.9108 22.0635 24.7761 22.0186 24.5068 22.0186H24.4619V21.7939H26.4817C27.1101 21.7939 27.5589 21.8838 27.8282 22.0186C28.0975 22.1983 28.2322 22.4678 28.2322 22.8721C28.2322 23.2315 28.1424 23.546 27.918 23.8155C27.6936 24.085 27.3794 24.2647 26.9754 24.4444C27.1101 24.5343 27.2447 24.6241 27.3345 24.7589C27.4243 24.8487 27.6038 25.1183 27.8282 25.4777L28.1873 26.0617C28.4117 26.4211 28.5912 26.6906 28.681 26.7805C28.7708 26.8703 28.9054 26.9602 28.9952 26.9602H29.0401V27.1848H28.0077L26.4817 24.5792H25.8084Z" fill="#24272A"/>
<path d="M31.3304 27.0949H29.3555V26.8703H29.4004C29.6248 26.8703 29.8043 26.8254 29.8492 26.7355C29.939 26.6457 29.939 26.466 29.939 26.1965V22.6924C29.939 22.4229 29.8941 22.2432 29.8492 22.1533C29.7594 22.0635 29.6248 22.0186 29.4004 22.0186H29.3555V21.7939H31.3304V22.0186H31.2855C31.0611 22.0186 30.8815 22.0635 30.7918 22.1533C30.702 22.2432 30.6571 22.4229 30.6571 22.6924V26.1965C30.6571 26.466 30.702 26.6457 30.7918 26.7355C30.8815 26.8254 31.0162 26.8703 31.2855 26.8703H31.3304V27.0949Z" fill="#24272A"/>
<path d="M33.1709 22.962V26.1965C33.1709 26.466 33.2158 26.6457 33.2607 26.7355C33.3504 26.8254 33.4851 26.8703 33.7095 26.8703H33.7544V27.0949H32.0937V26.8703H32.1386C32.363 26.8703 32.5425 26.8254 32.5874 26.7355C32.6772 26.6457 32.6772 26.466 32.6772 26.1965V22.5127L32.5874 22.378C32.4079 22.1084 32.1834 21.9736 32.0488 21.9736H32.0039V21.749H33.0362L36.1781 25.6574V22.6475C36.1781 22.378 36.1332 22.1983 36.0883 22.1084C35.9986 22.0186 35.8639 21.9736 35.6395 21.9736H35.5946V21.749H37.2553V21.9736H37.2104C36.986 21.9736 36.8065 22.0186 36.7616 22.1084C36.6718 22.1983 36.6718 22.378 36.6718 22.6475V27.2297L33.1709 22.962Z" fill="#24272A"/>
<path d="M45.4656 34.8218C44.7475 34.7769 44.0742 34.5522 44.0742 34.5522C44.0742 34.5522 44.6128 34.9116 44.8372 34.9116C46.1838 35.0913 46.9917 34.7769 46.9917 34.7769C46.9917 34.7769 46.3184 34.9116 45.4656 34.8218Z" fill="#24272A"/>
<path d="M45.4656 15.4595C44.7475 15.4146 44.0742 15.1899 44.0742 15.1899C44.0742 15.1899 44.6128 15.5493 44.8372 15.5493C46.1838 15.729 46.9917 15.4146 46.9917 15.4146C46.9917 15.4146 46.3184 15.5493 45.4656 15.4595Z" fill="#24272A"/>
<path d="M58.9792 15.4595C59.6973 15.4146 60.3706 15.1899 60.3706 15.1899C60.3706 15.1899 59.832 15.5493 59.6076 15.5493C58.261 15.729 57.4531 15.4146 57.4531 15.4146C57.4531 15.4146 58.1713 15.5493 58.9792 15.4595Z" fill="#24272A"/>
<path d="M44.9287 35.4058C44.9287 35.4058 45.6469 35.6304 46.1855 35.6304C47.128 35.6304 47.6217 35.2261 47.6666 35.1812C47.6666 35.1812 45.8264 35.3608 45.4224 35.3608C45.0185 35.3159 44.9287 35.4058 44.9287 35.4058Z" fill="#24272A"/>
<path d="M56.0605 41.1559C56.3298 41.6051 56.9133 41.5153 57.003 41.4703C57.0479 41.2008 57.3621 40.8863 57.6763 41.066C57.9905 40.6617 58.2149 39.5386 58.2598 39.1792C58.3047 39.6734 58.2149 41.5602 57.811 41.8746C57.9905 41.5153 57.5417 41.5153 57.407 41.65C57.2724 41.7848 57.1826 41.695 57.2275 41.5602C57.2275 41.4254 57.6314 41.3356 57.811 41.4254C57.7212 41.2906 57.5865 41.2457 57.407 41.2906C57.0928 41.3805 57.003 41.695 57.0479 41.9196C57.0928 42.1891 57.5417 42.5036 57.9905 42.1442C57.9456 42.4587 58.1251 42.863 58.1251 42.863L58.4842 43.7165L58.7984 42.863C58.7984 42.863 58.9779 42.4587 58.9331 42.1442C59.3819 42.5036 59.8307 42.1891 59.8756 41.9196C59.9205 41.695 59.7859 41.3356 59.5165 41.2906C59.337 41.2457 59.2024 41.2906 59.1126 41.4254C59.2921 41.3356 59.6961 41.4254 59.6961 41.5602C59.741 41.695 59.6512 41.7848 59.5165 41.65C59.3819 41.5153 58.9331 41.5153 59.1126 41.8746C58.7086 41.5602 58.6189 39.5386 58.7086 39.0894C58.7535 39.4488 58.9331 40.7066 59.2472 41.1109C59.5614 40.9313 60.0551 41.2906 60.1 41.5602C60.1898 41.6051 60.7733 41.5153 61.0426 41.1109C61.5812 40.3023 60.9079 39.6285 60.5489 39.2242C60.2347 39.1792 60.1 39.1792 59.741 39.2242L59.7858 39.2691C59.8756 39.4038 60.1 39.4937 60.2796 39.5835C60.0103 39.5835 59.4268 39.6285 59.4717 40.2125C59.5165 40.5719 59.741 40.7516 60.0552 40.7516C60.4591 40.7516 60.6835 40.482 60.5938 40.2125C60.4142 39.8082 59.9654 40.1226 60.0103 40.3472C59.9654 40.3922 59.8756 40.3023 59.8756 40.1226C59.9205 39.6734 60.6835 39.8082 60.7284 40.3023C60.7284 40.5269 60.7284 40.9762 60.1 41.066C59.8307 41.1109 59.2024 40.9762 59.1575 40.0328C59.1126 39.8531 59.0677 36.2143 59.1126 35.4506C59.1126 35.4056 58.9331 35.4955 58.3945 35.4955C58.0354 35.4955 57.811 35.4056 57.811 35.4506C57.811 36.1693 57.7661 39.8531 57.7661 40.0328C57.7212 40.9762 57.0928 41.1109 56.8235 41.066C56.1951 40.9762 56.1503 40.5719 56.1951 40.3023C56.24 39.8082 57.0479 39.6734 57.0928 40.1226C57.0928 40.1675 57.0479 40.2574 56.9582 40.2574C56.9582 40.1675 56.644 39.898 56.4644 40.3023C56.4196 40.3922 56.5093 40.7516 56.8684 40.7516C57.1826 40.7516 57.4519 40.5269 57.4519 40.2125C57.4968 39.6734 56.8684 39.6285 56.644 39.5835C56.7786 39.4937 57.0479 39.4038 57.1377 39.2691L57.2275 39.1792C57.0479 39.1792 56.6889 39.1792 56.4196 39.1792C56.0156 39.5386 55.5219 40.3023 56.0605 41.1559Z" fill="#8C9091"/>
<path d="M58.3477 34.8667V38.82L58.5272 39.1344L58.5721 34.8667H58.3477Z" fill="#24272A"/>
<path d="M41.1138 22.8272L41.3382 22.1982L41.1138 22.0186V22.8272Z" fill="#24272A"/>
<path d="M41.1138 26.7354L41.3382 26.5557L41.1138 25.9268V26.7354Z" fill="#24272A"/>
<path d="M39.8554 23.5908L40.394 24.3994L39.7656 25.253L39.8554 23.5908Z" fill="#24272A"/>
<path d="M60.3251 22.0183C60.37 22.0632 60.37 22.1081 60.4149 22.153C60.4597 22.2878 60.5495 22.4226 60.5495 22.6023L60.5944 22.5573C60.5944 22.3776 60.5944 21.4792 59.6069 21.5241C59.3376 21.5241 59.0235 21.569 57.8565 22.6921C57.3627 23.1863 56.9588 23.4109 56.7344 23.5007C56.9139 23.4558 57.1383 23.4109 57.273 23.321C57.7667 23.0515 58.3053 22.4675 58.8439 22.1979C59.203 21.9733 59.6518 22.0632 59.6518 22.0632C59.6518 22.0632 59.1132 22.0182 58.3951 22.737C58.036 23.0964 57.8116 23.321 57.4974 23.5007C57.5872 23.4558 58.036 23.5906 58.799 22.6472C58.7542 22.8718 58.799 23.1863 58.9786 23.4109C59.3376 23.321 59.6518 23.1863 59.966 23.0515C60.0109 22.9167 59.9211 22.737 59.7416 22.6921C59.6518 22.6472 59.5172 22.6921 59.3825 22.8718C59.3376 22.6921 59.5172 22.5124 59.7865 22.5124C60.0109 22.5573 60.1456 22.737 60.1904 22.9616C60.2802 22.9167 60.4149 22.8269 60.5046 22.782C60.4597 22.2429 60.1904 21.7487 59.5621 21.7936C59.7416 21.6139 60.1455 21.8386 60.3251 22.0183Z" fill="#8C9091"/>
<path d="M60.4575 25.7022C60.1882 25.6123 59.7843 25.5225 59.4701 25.5225C60.3229 26.0166 60.0087 26.8702 59.6047 26.8702C59.2905 26.9151 59.0212 26.4659 59.3354 26.2862C59.2905 26.5108 59.4252 26.6006 59.5598 26.6006C59.8291 26.6006 59.874 25.9717 59.3803 25.7022C59.2008 25.6123 58.6622 25.6123 58.6173 26.1514C58.2582 25.8819 57.8543 25.6572 57.4503 25.5225C57.7196 25.7022 58.0338 26.0615 58.4826 26.4209C59.2008 27.0499 59.7394 27.0499 59.7394 27.0499C59.7394 27.0499 59.3803 27.2296 58.8866 26.9151C58.3929 26.6006 57.8094 26.0615 57.3156 25.792C57.0463 25.6572 56.7322 25.5674 56.418 25.5674H56.4629C56.8668 25.7022 57.4503 26.1065 57.7645 26.4209C58.7519 27.4542 59.6047 27.4093 59.9189 27.3194C60.8615 27.0948 60.5024 25.7471 60.4575 25.7022Z" fill="#8C9091"/>
<path d="M69.3446 24.4444V26.1965C69.3446 26.466 69.3895 26.6457 69.4793 26.7355C69.569 26.8254 69.7037 26.8703 69.973 26.8703H70.0179V27.0949H68.043V26.8703H68.0878C68.3123 26.8703 68.4918 26.8254 68.5367 26.7355C68.6265 26.6457 68.6265 26.466 68.6265 26.1965V22.6924C68.6265 22.4229 68.5816 22.2432 68.5367 22.1533C68.4469 22.0635 68.3123 22.0186 68.0878 22.0186H68.043V21.7939H70.0179V22.0186H69.973C69.7486 22.0186 69.569 22.0635 69.4793 22.1533C69.3895 22.2432 69.3446 22.4229 69.3446 22.6924V24.1749H71.7683V22.6924C71.7683 22.4229 71.7235 22.2432 71.6337 22.1533C71.5439 22.0635 71.4093 22.0186 71.14 22.0186H71.0951V21.7939H73.07V22.0186H73.0251C72.8007 22.0186 72.6211 22.0635 72.5762 22.1533C72.4865 22.2432 72.4865 22.4229 72.4865 22.6924V26.1965C72.4865 26.466 72.5314 26.6457 72.5762 26.7355C72.666 26.8254 72.8007 26.8703 73.0251 26.8703H73.07V27.0949H71.0951V26.8703H71.14C71.3644 26.8703 71.5439 26.8254 71.6337 26.7355C71.7235 26.6457 71.7683 26.466 71.7683 26.1965V24.4444H69.3446Z" fill="#24272A"/>
<path d="M76.0799 27.05C76.5736 27.05 76.9776 26.8254 77.3367 26.3312C77.6509 25.8371 77.8304 25.2081 77.8304 24.4444C77.8304 23.6807 77.6509 23.0518 77.3367 22.5577C77.0225 22.0635 76.6185 21.8389 76.0799 21.8389C75.5862 21.8389 75.1822 22.0635 74.8232 22.5577C74.509 23.0518 74.3294 23.6807 74.3294 24.4444C74.3294 25.2081 74.509 25.8371 74.8232 26.3312C75.1822 26.7805 75.5862 27.05 76.0799 27.05ZM76.0799 27.2297C75.3618 27.2297 74.7334 26.9602 74.2846 26.4211C73.8357 25.882 73.5664 25.2081 73.5664 24.3995C73.5664 23.5909 73.7908 22.917 74.2846 22.378C74.7334 21.8389 75.3618 21.5693 76.0799 21.5693C76.7532 21.5693 77.2918 21.749 77.6957 22.1533C77.965 22.4229 78.1895 22.7373 78.3241 23.1417C78.5036 23.546 78.5485 23.9503 78.5485 24.3546C78.5485 25.1632 78.3241 25.8371 77.8304 26.3762C77.4264 26.9602 76.8429 27.2297 76.0799 27.2297Z" fill="#24272A"/>
<path d="M78.9492 21.9736V21.749H80.9241V21.9736H80.8792C80.6548 21.9736 80.4753 22.0186 80.4304 22.1084C80.3406 22.1983 80.3406 22.378 80.3406 22.6475V25.0284C80.3406 25.7472 80.4753 26.2863 80.6997 26.5559C80.969 26.8703 81.2832 27.0051 81.732 27.0051C82.136 27.0051 82.4502 26.8703 82.6297 26.6008C82.8541 26.3312 82.9439 25.8371 82.9439 25.2081V22.6475C82.9439 22.378 82.899 22.1983 82.8541 22.1084C82.7644 22.0186 82.6297 21.9736 82.3604 21.9736H82.3155V21.749H84.0211V21.9736H83.9762C83.7518 21.9736 83.5723 22.0186 83.4825 22.1084C83.3927 22.1983 83.3479 22.378 83.3479 22.6475V24.9386C83.3479 25.4777 83.303 25.882 83.2581 26.1066C83.2132 26.3312 83.0786 26.5559 82.8541 26.7355C82.5399 27.05 82.0462 27.2297 81.4178 27.2297C80.8792 27.2297 80.4304 27.0949 80.1162 26.8254C79.8918 26.6457 79.7571 26.4211 79.6674 26.1965C79.5776 25.9718 79.5776 25.5675 79.5776 25.0284V22.6475C79.5776 22.378 79.5327 22.1983 79.4429 22.1084C79.3532 22.0186 79.2185 21.9736 78.9492 21.9736Z" fill="#24272A"/>
<path d="M84.6957 27.0051L84.606 25.8371H84.8753V25.882C84.965 26.2414 85.0997 26.5109 85.3241 26.6906C85.5485 26.8703 85.8178 26.9602 86.132 26.9602C86.4462 26.9602 86.6706 26.8703 86.895 26.6457C87.1195 26.4211 87.2092 26.1965 87.2092 25.9269C87.2092 25.5675 86.9399 25.2081 86.4013 24.8038L85.8627 24.4444C85.369 24.0851 85.0099 23.8155 84.8753 23.6358C84.6957 23.4561 84.6508 23.1866 84.6508 22.917C84.6508 22.5127 84.8304 22.1533 85.1446 21.9287C85.4588 21.6592 85.9076 21.5693 86.4462 21.5693C86.8502 21.5693 87.299 21.6592 87.7478 21.794L87.8825 22.7823H87.6132V22.7373C87.4336 22.1084 87.0297 21.794 86.3564 21.794C86.0871 21.794 85.8178 21.8838 85.6383 22.0635C85.4588 22.2432 85.369 22.4678 85.369 22.7373C85.369 23.0967 85.5934 23.4112 86.0871 23.7257L86.8502 24.2648C87.3439 24.5792 87.6132 24.8488 87.7927 25.0285C87.9274 25.2081 88.0171 25.4777 88.0171 25.7472C88.0171 26.1965 87.8376 26.5559 87.5234 26.8254C87.1643 27.0949 86.7155 27.2297 86.1769 27.2297C85.5485 27.2297 85.0997 27.1848 84.6957 27.0051Z" fill="#24272A"/>
<path d="M90.2176 24.3995V26.1965C90.2176 26.4211 90.3074 26.6008 90.4869 26.6906C90.6665 26.7805 91.0255 26.8254 91.5193 26.8254H91.6539C91.8783 26.8254 92.013 26.7805 92.1028 26.6457C92.1925 26.5559 92.2823 26.3312 92.3272 26.0617V26.0168H92.5965L92.5067 27.1848C92.0579 27.1399 91.7437 27.1399 91.5641 27.1399C91.3397 27.1399 91.0704 27.1399 90.7562 27.0949C90.442 27.0949 90.2625 27.05 90.2176 27.05H88.8711V26.8254H88.916C89.1404 26.8254 89.2751 26.7805 89.3648 26.6906C89.4546 26.6008 89.4995 26.4211 89.4995 26.1515V22.6475C89.4995 22.333 89.4546 22.1533 89.4097 22.0635C89.3199 21.9736 89.1853 21.9287 88.9609 21.9287H88.8711V21.7041H92.3721L92.4618 22.6924H92.1925V22.6026C92.1476 22.2881 92.0579 22.1084 91.9232 22.0635C91.7886 22.0186 91.4744 21.9736 90.9358 21.9736H90.2176V24.13H90.9806C91.3397 24.13 91.5641 24.0851 91.6988 24.0401C91.7886 23.9952 91.8335 23.8155 91.8335 23.5909V23.546H92.1028V24.9386H91.8335V24.8937C91.8335 24.714 91.7886 24.5343 91.6988 24.4444C91.609 24.3546 91.3846 24.3546 90.9806 24.3546H90.2176V24.3995Z" fill="#24272A"/>
<path d="M62.0742 35.7648C61.6253 36.3039 61.0867 36.843 60.0993 37.1125C59.6953 36.5285 59.6504 35.5851 59.6953 35.3156C59.9197 35.2707 60.6379 34.6866 60.5481 34.3722C60.5032 34.2374 60.0544 34.0128 59.6953 33.9229C59.6953 33.6983 59.83 32.9346 60.0095 32.8448C60.189 32.9346 60.5032 32.6651 60.4135 32.4405C60.3237 32.2158 59.9197 32.126 59.6504 32.3955C59.5606 32.4854 59.3811 32.71 59.3362 32.7549V28.1727C61.76 28.0829 61.356 25.9715 61.3111 25.8367C61.8049 26.0164 62.119 26.1512 62.7923 26.9598C62.2986 26.7352 61.8497 27.0496 61.7151 27.409C62.6576 27.8133 64.857 32.8897 62.0742 35.7648ZM59.2465 17.0317C59.4709 17.3911 59.7851 17.5258 60.0095 17.5258C60.2788 17.5258 60.5481 17.3012 60.4135 16.8969C60.3686 16.7172 60.2339 16.5824 60.0095 16.5824C59.7851 16.268 59.83 16.1332 59.7402 15.7738C60.2339 15.5492 60.4583 15.2347 60.4583 15.0999C60.4583 15.0101 60.189 14.6956 60.0095 14.5609C60.0544 14.471 60.189 14.2913 60.2339 14.1566C60.4583 14.2464 60.593 14.3362 60.8174 14.5159C60.6379 14.6058 60.5032 14.7406 60.4583 14.8753C63.3758 17.3461 61.4907 21.3443 61.1316 21.7936C60.9072 21.1197 59.8748 20.8951 59.2914 21.0748L59.2465 17.0317ZM55.566 22.9616C55.566 22.737 55.3864 22.5573 55.2069 22.5573C55.0274 22.5573 54.8927 22.6471 54.8478 22.8268C53.7706 22.5123 52.9178 21.6588 53.3667 20.356C53.636 19.5923 54.5336 19.7271 54.4888 20.4009C54.4888 20.8052 53.995 21.3893 53.995 21.3893C55.9251 21.4791 56.2392 20.1763 56.2392 19.772C56.2392 19.2778 55.9251 17.6157 53.6809 17.9301C53.7706 17.7954 53.9502 17.5707 53.9502 17.3911C53.7257 16.4926 52.9627 15.2347 52.1099 13.7522C51.3469 15.1898 50.7634 16.3129 50.4043 17.3012C50.3594 17.5258 50.4941 17.8403 50.6736 17.9751C48.6987 17.7954 48.205 19.188 48.2499 19.6372C48.2948 20.3111 48.4294 21.2545 50.3146 21.3893C50.0452 21.2096 49.7759 20.4009 50.0901 20.1314C50.3146 19.9517 50.6736 19.9068 50.8532 20.0865C51.5713 20.6256 51.302 22.3327 50.1799 22.8268C50.135 22.5123 49.5515 22.4225 49.372 22.7819C49.2373 23.0065 49.1476 23.0514 48.7436 23.0065C47.8011 22.8268 47.1278 21.9283 47.1278 21.9283V17.2563C47.3073 17.6606 48.2948 17.6606 48.1601 16.8969C48.1601 16.7172 47.8908 16.4477 47.6664 16.5375C47.5317 16.3129 47.4869 16.1781 47.442 15.8636C47.5766 15.7738 48.1601 15.4593 48.1601 15.0101C48.1152 14.9203 47.8011 14.5609 47.5766 14.471C47.7113 14.1116 47.8011 13.887 48.0704 13.6175C51.0327 13.6624 56.329 13.6175 56.329 13.6175C56.5534 14.0218 56.6432 14.2464 56.7778 14.471C56.5085 14.6956 56.2392 14.9652 56.1944 15.0101C56.1944 15.3246 56.7778 15.9086 57.1818 15.9086C57.1818 16.1781 57.0471 16.4477 56.8676 16.6274C56.6881 16.5375 56.3739 16.852 56.4637 17.1215C56.5534 17.6157 57.3165 17.5707 57.496 17.1664L57.5409 22.0182C57.2267 22.737 56.4188 23.0514 55.566 22.9616ZM51.4367 23.7702C51.7508 23.4557 51.9753 23.0514 52.1548 22.4674C52.2894 23.0514 52.5588 23.4557 53.0974 23.8151C52.5588 23.7702 51.9753 23.7702 51.4367 23.7702ZM47.0829 23.7253V23.6804V23.7253ZM56.6432 32.6651C56.5534 32.8897 56.5983 33.2042 56.9125 33.1143C57.2267 33.3839 57.3165 33.6085 57.2267 33.878C57.092 33.9229 56.2392 34.3273 56.2392 34.5519C56.2392 34.6866 56.9125 35.2257 57.092 35.2707C56.9574 35.9445 56.4637 37.3371 56.3739 37.3821L55.6557 37.427C54.8927 37.427 53.9053 37.4719 53.0974 37.2473C52.5588 37.1125 52.0201 36.3937 52.0201 36.3937C52.0201 36.3937 51.3918 37.1125 50.9429 37.2922C50.2697 37.5168 48.6987 37.5168 48.0704 37.5168C47.6664 37.0676 47.4869 35.8097 47.3971 35.3605C47.6664 35.1359 48.1152 34.6417 48.1152 34.462C48.1152 34.2823 47.3073 33.8331 47.038 33.7882C47.038 33.5636 47.1278 33.2491 47.3522 33.1143C47.442 33.294 47.7562 33.2491 47.8459 33.0245C48.0255 32.5752 47.4869 32.4405 47.1727 32.5752C47.0829 32.6202 46.9483 32.71 46.9034 32.7549L46.9483 27.4539C47.0829 27.3192 47.6664 26.3758 49.0578 26.1062C49.1925 26.7352 50.135 26.3758 50.1799 26.3309C51.6162 27.6336 51.2122 28.9813 50.2697 28.9813C49.6862 28.9813 49.6862 28.0829 50.2697 27.6786C48.609 27.2293 47.9806 28.3524 47.9806 29.2509C47.9806 30.8232 49.4618 31.2275 50.4492 31.0029C50.2248 31.2725 50.135 31.7666 50.2248 31.9912C50.2697 32.2608 51.5713 34.7765 51.9753 35.63C52.5588 34.6866 53.9053 32.2608 53.9502 31.9463C53.995 31.6768 53.9502 31.3174 53.8155 31.0029C55.7904 31.4971 57.1369 29.6103 56.0148 28.0829C55.566 27.4989 54.5785 27.2293 53.995 27.7235C55.2967 28.5321 53.3218 30.0146 53.1871 28.2176C53.1422 27.6336 53.5013 26.9598 53.6809 26.7352C53.995 26.2859 54.3541 26.0164 54.803 25.8367C54.803 26.0613 54.9825 26.1961 55.162 26.1961C55.3416 26.1961 55.5211 26.0613 55.5211 25.8367C56.5983 26.1062 57.3613 27.0496 57.4062 27.1395L57.4511 32.9796C57.2267 32.3506 56.733 32.5303 56.6432 32.6651ZM43.582 22.5573C43.4024 22.5123 42.5047 21.4342 42.4599 20.5357C42.415 19.4126 42.5047 18.2446 42.5945 17.1215C42.6843 16.3578 42.774 15.7738 43.0882 15.2347C43.3575 14.7855 43.8513 14.2464 44.4796 14.0218C44.5245 14.1566 44.6143 14.3812 44.6592 14.5159C44.345 14.6507 44.0308 15.0999 44.0308 15.0999C44.0757 15.3246 44.2552 15.639 44.6592 15.8636C44.6592 16.1332 44.5694 16.3129 44.3899 16.5375C44.0308 16.4477 43.8961 16.9867 44.0757 17.3012C44.3899 17.7954 45.108 17.5258 45.1978 17.1215V21.0748C43.7166 20.9849 43.5371 22.4674 43.582 22.5573ZM45.1978 32.7549C44.9734 32.1709 44.4348 32.2158 44.3001 32.4854C44.2103 32.6651 44.2552 33.1143 44.5694 33.0245C44.7041 33.2491 44.7041 33.6983 44.7041 33.9229C44.4348 34.0577 43.9859 34.507 44.0308 34.507C43.9859 34.6417 44.345 35.1808 44.9285 35.4054C44.8836 36.0793 44.5245 37.2922 44.4796 37.2024C44.4796 37.1125 42.5945 37.2473 42.3701 32.7999C42.2803 31.2725 42.415 29.4755 42.6843 27.993C42.8189 27.2743 42.9536 27.0496 43.3575 26.6453C43.2229 27.0496 43.8064 28.622 45.2427 28.2626L45.1978 32.7549ZM62.7025 23.9948C64.3184 23.321 66.5177 20.5357 67.9091 18.4692C66.6074 16.6723 65.0814 13.8421 60.9072 12.3147C62.2537 9.97865 60.593 9.17003 60.0993 9.34972C60.1441 8.85556 59.6504 8.3614 59.1118 8.5411C59.1567 8.27156 58.4834 7.23831 58.3039 6.47461C58.1244 7.28324 57.4511 8.27156 57.496 8.5411C57.0023 8.3614 56.4637 8.90049 56.5085 9.34972C56.0597 9.17003 54.4888 9.79896 55.566 11.9553C55.4313 11.9553 55.3416 11.9553 55.2069 11.9553C54.8478 11.9553 54.0848 11.9553 53.0974 11.9553L52.1099 10.967L51.1225 11.9553C50.4043 11.9553 49.5964 11.9553 48.7436 11.9553C49.9106 9.75404 48.2948 9.12511 47.8459 9.3048C47.8908 8.81064 47.3971 8.31648 46.8585 8.49617C46.9034 8.22663 46.2301 7.19339 46.0506 6.42969C45.871 7.23831 45.1978 8.22663 45.2427 8.49617C44.7489 8.31648 44.2103 8.85556 44.2552 9.3048C43.8064 9.12511 42.2354 9.75404 43.3127 11.9104C38.914 11.8654 34.9194 11.7307 34.5603 11.551C34.65 12.6741 36.8942 13.5725 37.747 13.6624C37.8817 14.2464 38.3305 14.7855 39.4526 14.8304C39.4526 15.5941 39.4975 35.5851 39.4526 36.0793C38.8243 36.1242 38.0612 36.3937 37.7919 37.2473C36.8942 37.3821 34.6949 38.1907 34.2461 39.5384C34.6949 39.4036 38.3754 39.2689 42.2803 39.179C42.6394 39.179 43.0433 39.179 43.4024 39.179C42.2354 41.4252 43.8064 42.0541 44.3001 41.8744C44.2552 42.3686 44.7489 42.8628 45.2875 42.6831C45.2427 42.9526 45.9159 43.9858 46.0955 44.7495C46.275 43.9409 46.9483 42.9526 46.9034 42.6831C47.3971 42.8628 47.9357 42.3237 47.8908 41.8744C48.3397 42.0541 49.9555 41.3803 48.7436 39.1341C49.5515 39.1341 50.3594 39.1341 51.0776 39.1341L52.065 40.1224L53.0525 39.1341C54.2643 39.1341 55.0274 39.1341 55.0274 39.1341C55.2518 39.1341 55.4762 39.1341 55.7006 39.1341C54.5785 41.3353 56.1495 41.9643 56.5983 41.7846C56.5534 42.2787 57.0472 42.7729 57.5858 42.5932C57.5409 42.8628 58.2141 43.896 58.3937 44.6597C58.5732 43.8511 59.2465 42.8628 59.2016 42.5932C59.6953 42.7729 60.2339 42.2338 60.189 41.7846C60.6828 41.9643 62.3435 41.1557 60.9969 38.8196C60.9969 38.7747 60.9521 38.7747 60.9521 38.7298C62.8821 38.3704 63.6002 37.7864 63.9593 37.5618C67.3705 35.2707 67.9988 34.0128 69.5249 31.4971C68.4028 29.0712 64.9916 24.5788 62.7025 23.9948Z" fill="#24272A"/>
<path d="M47.1733 12.2251L47.1284 12.4946H57.2273V12.2251H47.1733Z" fill="#8C9091"/>
<path d="M47.1733 12.854L47.1284 13.1235L57.2273 13.0786V12.8091L47.1733 12.854Z" fill="#8C9091"/>
<path d="M45.1069 13.2583C44.1195 13.3482 43.3564 13.7974 42.8178 14.4713C42.2792 15.19 42.0997 16.0885 42.0099 16.987C41.7855 19.5476 41.8304 21.4793 41.8753 21.5692C41.7406 21.3895 41.6509 20.7606 41.6509 20.7156C41.606 19.907 41.606 19.1433 41.6509 18.4245C41.6957 17.3464 41.7406 16.2682 42.0548 15.3248C42.0548 15.2799 42.0997 15.19 42.0997 15.1451C42.369 15.0103 42.5934 14.7408 42.7281 14.3814C42.7729 14.2466 42.8178 14.1119 42.8178 14.022C43.536 13.2583 44.2092 13.0337 45.1518 12.9438L45.1069 13.2583Z" fill="#8C9091"/>
<path d="M45.0654 12.2251L45.1103 12.4946C43.8985 12.4946 41.6094 12.4946 41.6094 12.4946L42.5968 12.1802C42.5519 12.2251 44.3473 12.2251 45.0654 12.2251Z" fill="#8C9091"/>
<path d="M47.1733 38.8198H57.2273V38.5503H47.1284L47.1733 38.8198Z" fill="#8C9091"/>
<path d="M47.1733 38.2358H57.2273V37.9663H47.1284L47.1733 38.2358Z" fill="#8C9091"/>
<path d="M45.0654 38.8198L45.1103 38.5503C43.8985 38.5503 41.6094 38.5503 41.6094 38.5503L42.5968 38.8648C42.5519 38.8198 44.3473 38.8198 45.0654 38.8198Z" fill="#8C9091"/>
<path d="M63.6453 37.1128C62.5232 37.8765 60.9971 38.2808 59.6506 38.5054C59.6057 38.4156 59.6057 38.3257 59.6057 38.2808C62.209 37.7866 64.3634 36.6186 65.9344 34.642C66.6525 33.7435 67.0565 32.7552 67.5951 31.5423C67.1462 30.1945 66.6525 28.757 65.6202 27.4542C64.1839 25.6123 62.2988 24.6689 60.0097 24.1748C60.8176 23.8154 63.8697 23.3662 66.069 18.6492C64.8572 15.0553 61.5357 12.7642 59.3364 12.5845V12.2251C61.2216 12.5845 62.972 13.483 64.2737 14.9205C65.2162 15.9987 66.069 17.1667 66.473 18.5144C65.2611 21.8388 62.209 23.6357 60.8176 24.0849C64.0492 24.4892 67.0116 27.7237 68.1786 31.4524C66.473 35.2709 65.1713 36.0346 63.6453 37.1128Z" fill="#8C9091"/>
<path d="M59.3364 13.0337C60.4136 13.1685 61.2216 13.7525 61.7602 14.4263C61.7602 14.4263 61.3562 14.2466 61.1767 14.2466C61.0869 14.1568 60.3239 13.438 59.3364 13.3032V13.0337Z" fill="#8C9091"/>
<path d="M49.7331 25.6572C49.5985 25.3877 49.1047 25.2529 48.8803 25.2529C47.848 25.208 46.9503 25.5674 46.1424 26.1514C46.0526 26.0615 46.0526 25.8818 45.8731 25.7021C45.6038 25.5224 45.3794 25.6123 45.2447 25.7021C45.155 25.7471 45.0652 25.9267 44.9754 26.0615C44.8856 26.2861 44.9305 26.5557 45.1998 26.6006C45.3345 26.6006 45.514 26.5108 45.4243 26.2412C45.7384 26.4209 45.514 26.7803 45.1998 26.7803C45.1998 26.7803 45.1998 26.7803 45.155 26.7803C44.7959 26.7354 44.7061 26.4658 44.7061 26.1064C44.7061 25.6123 45.1998 25.0732 45.1998 25.0732C44.4817 25.4326 44.2573 26.0166 44.1675 26.2861C44.0777 26.6904 44.1675 27.2295 44.6612 27.3643C45.6936 27.7237 46.4117 26.5557 46.8605 26.1963C47.2196 25.9267 47.5787 25.7471 47.9378 25.6123C48.252 25.5224 48.5661 25.4326 48.8354 25.4326C49.3292 25.3877 49.4638 25.5224 49.5985 25.8369C49.3292 25.8818 49.5087 26.0615 49.5985 26.0615C49.8678 26.0166 49.8229 25.792 49.7331 25.6572ZM45.918 21.8387C45.6936 21.7039 45.4243 21.6141 45.2447 21.6141C44.8857 21.6141 44.5266 21.8387 44.347 22.1082C44.2573 22.2879 44.2124 22.5575 44.2573 22.9169H44.3022C44.2573 22.5575 44.347 22.3329 44.4368 22.1532C44.4817 22.1082 44.4817 22.0633 44.5266 22.0184C44.7061 21.8387 45.1101 21.6141 45.3794 21.7488C44.7061 21.7039 44.3919 22.2879 44.4368 22.8719C44.4368 23.2313 44.8857 23.7704 45.2447 23.9052V23.6806C45.0652 23.5907 44.9305 23.4559 44.7959 23.2763C44.6163 22.9618 44.751 22.5126 45.1101 22.4676C45.3345 22.4227 45.5589 22.6024 45.514 22.827C45.3794 22.6922 45.2896 22.6473 45.155 22.6473C44.9305 22.6922 44.9305 22.9618 44.9754 23.0966C45.0652 23.411 45.6487 23.6806 45.8731 23.4559C46.0077 23.3212 46.0975 23.0966 46.0975 22.9169C46.0975 22.827 46.0975 22.6024 46.0526 22.5126C46.3219 22.7821 46.5464 23.0067 46.8157 23.2313C46.9503 23.3212 46.9952 23.3661 47.1299 23.411C47.444 23.5458 47.8929 23.6356 48.252 23.6806C48.7457 23.7255 49.2843 23.7704 49.7331 23.5009C49.8229 23.4559 49.8678 23.411 49.8678 23.3212C49.8678 23.2763 49.8678 23.2313 49.8229 23.2313C49.7331 23.1415 49.5985 23.2763 49.6882 23.3661C49.2843 23.7704 48.4764 23.6806 48.0275 23.5458C47.6236 23.411 47.3094 23.1864 46.9952 22.9169C46.7259 22.5126 46.3668 22.0633 45.918 21.8387ZM45.1101 34.013C45.155 34.013 45.1998 34.013 45.2447 34.013C45.2447 33.5638 45.155 33.2044 45.0203 32.8899C44.9754 32.8001 44.9305 32.6653 44.8408 32.5754C44.751 32.4856 44.6612 32.4856 44.6163 32.4856C44.5266 32.5305 44.5715 32.8001 44.751 32.6653C44.8408 32.7551 44.8857 32.8001 44.8857 32.8899C44.8857 32.9798 45.1101 33.3841 45.1101 34.013ZM44.9754 13.7974C44.8856 13.7974 44.7959 13.8423 44.7061 13.8423C44.8408 14.1118 44.8856 14.4263 44.9754 14.6509C45.0203 14.6509 45.155 14.6958 45.1998 14.6509C45.1998 14.5161 45.0652 14.1118 44.9754 13.7974ZM46.9054 14.7408L47.1299 14.6958C47.1747 14.4263 47.3543 13.9771 47.5338 13.6626C47.3992 13.6626 47.3094 13.6626 47.1747 13.6626C47.1298 13.9321 46.9503 14.2466 46.9054 14.7408ZM57.3185 13.6626H57.0043C57.1839 14.022 57.2287 14.3365 57.3185 14.606C57.3634 14.606 57.4981 14.6509 57.5429 14.606C57.5429 14.4263 57.4083 13.9771 57.3185 13.6626ZM59.4729 13.9771C59.3832 14.1568 59.2934 14.3365 59.2934 14.6958L59.5178 14.6509C59.5627 14.4712 59.6525 14.2915 59.7423 14.0669C59.6525 14.022 59.5627 13.9771 59.4729 13.9771ZM53.0994 24.2646H47.3992V24.624H53.0994L55.209 24.4443L53.0994 24.2646ZM46.681 24.04C46.681 24.04 46.5015 23.8603 46.0975 23.8603C45.6936 23.8603 45.5589 23.995 45.5589 23.995V24.8935C45.5589 24.8935 45.918 24.8935 46.2771 25.163C46.681 25.5224 46.681 24.9384 46.681 24.9384V24.04ZM45.6038 33.9232C45.6038 33.9232 46.2771 33.9681 46.3219 33.8333C46.5015 33.2493 46.7259 33.1145 46.7259 33.1145L46.681 27.6338C46.681 27.6338 46.3219 27.8585 46.1424 27.9483C45.8731 28.0831 45.6487 28.1729 45.6487 28.1729L45.6038 33.9232ZM45.6487 21.1199C45.6487 21.1199 45.8731 21.2098 46.1424 21.3445C46.3219 21.4344 46.681 21.659 46.681 21.659L46.6361 17.3014C46.6361 17.3014 46.6361 17.0768 46.5912 16.4928C46.5912 16.1334 46.2771 16.4928 45.8731 16.1783C45.6038 15.9537 45.5589 16.0435 45.5589 16.0435L45.6487 21.1199Z" fill="#8C9091"/>
<path d="M48.5198 9.88926C48.2505 9.44002 47.667 9.52987 47.5773 9.5748C47.5324 9.84434 47.2182 10.1139 46.904 9.97911C46.5898 10.3834 46.3654 11.5065 46.3205 11.8659C46.2756 11.3717 46.3654 9.48495 46.7694 9.17048C46.5898 9.52987 47.0387 9.52987 47.1733 9.3951C47.308 9.26033 47.3977 9.35018 47.3529 9.48495C47.3529 9.61972 46.9489 9.70957 46.7694 9.61972C46.8591 9.75449 46.9938 9.79941 47.1733 9.75449C47.4875 9.66464 47.5773 9.35018 47.5324 9.12556C47.4875 8.85602 47.0387 8.54155 46.5898 8.90094C46.6347 8.58648 46.4552 8.18216 46.4552 8.18216L46.0961 7.32861L45.7819 8.18216C45.7819 8.18216 45.6024 8.58648 45.6473 8.90094C45.1984 8.54155 44.7496 8.85602 44.7047 9.12556C44.6598 9.35018 44.7945 9.70957 45.0638 9.75449C45.2433 9.79941 45.378 9.75449 45.4677 9.61972C45.2882 9.70957 44.8842 9.61972 44.8842 9.48495C44.8394 9.35018 44.9291 9.26033 45.0638 9.3951C45.1984 9.52987 45.6473 9.52987 45.4677 9.17048C45.8717 9.48495 45.9615 11.5065 45.8717 11.9557C45.8268 11.5964 45.6473 10.3385 45.3331 9.93418C45.0189 10.1139 44.5252 9.75449 44.4803 9.48495C44.3905 9.44002 43.807 9.52987 43.5377 9.93418C42.9991 10.7428 43.6724 11.4167 44.0314 11.821C44.3456 11.8659 44.4803 11.8659 44.8394 11.821L44.7945 11.7761C44.7047 11.6413 44.4803 11.5514 44.3007 11.4616C44.5701 11.4616 45.1535 11.4167 45.1087 10.8327C45.0638 10.4733 44.8394 10.2936 44.5252 10.2936C44.1212 10.2936 43.8968 10.5631 43.9866 10.8327C44.1661 11.237 44.6149 10.9225 44.5701 10.653C44.6149 10.608 44.7047 10.6979 44.7047 10.8776C44.6598 11.3268 43.8968 11.192 43.8519 10.6979C43.807 10.4733 43.8519 10.024 44.4803 9.93418C44.7496 9.88926 45.378 10.024 45.4228 10.9674C45.4677 11.1471 45.6024 13.7976 45.5575 14.5613C45.5575 14.6062 45.8717 14.6512 46.141 14.6512C46.4103 14.6512 46.7245 14.6062 46.7245 14.5164C46.7245 13.7976 46.7694 11.1471 46.8143 10.9674C46.8591 10.024 47.4875 9.88926 47.7568 9.93418C48.3852 10.024 48.4301 10.4283 48.3852 10.6979C48.3403 11.192 47.5324 11.3268 47.4875 10.8776C47.4875 10.8327 47.5324 10.7428 47.6222 10.7428C47.6222 10.8327 47.9364 11.1022 48.071 10.6979C48.1159 10.608 48.0261 10.2486 47.667 10.2486C47.3529 10.2486 47.0836 10.4733 47.0836 10.7877C47.0387 11.3268 47.667 11.3717 47.8915 11.4167C47.7568 11.5065 47.4875 11.5964 47.3977 11.7311L47.308 11.821C47.4875 11.821 47.8466 11.821 48.1159 11.821C48.5647 11.4616 49.0585 10.6979 48.5198 9.88926Z" fill="#8C9091"/>
<path d="M46.1873 16.0884H46.0078V21.4343H46.1873V16.0884Z" fill="#24272A"/>
<path d="M46.0508 14.8756H46.2303V12.2251L46.0508 11.9106V14.8756Z" fill="#24272A"/>
<path d="M46.2733 27.9033H46.0938V34.1926H46.2733V27.9033Z" fill="#24272A"/>
<path d="M46.1873 23.7256H46.0078V25.3428H46.1873V23.7256Z" fill="#24272A"/>
<path d="M44.5696 27.6338C43.8066 27.2744 43.9412 26.5557 43.9412 26.5557C43.9412 26.5557 43.6719 27.6788 44.9287 27.8585C45.4673 27.9034 46.2303 27.3643 46.2303 27.3643C46.2303 27.3643 45.2429 27.9034 44.5696 27.6338Z" fill="#8C9091"/>
<path d="M43.4939 11.0572C43.4939 10.4283 43.9876 9.7544 44.5711 9.7544C44.7506 9.7544 44.8404 9.79932 44.975 9.88917C44.7955 9.7544 44.7057 9.66455 44.4813 9.66455C43.8978 9.66455 43.1797 10.3384 43.1797 10.9673C43.1797 11.192 43.449 11.4615 43.5388 11.6412C43.4939 11.4166 43.4939 11.2369 43.4939 11.0572Z" fill="#24272A"/>
<path d="M48.6096 11.0123C48.6096 10.3833 48.1159 9.70948 47.5324 9.70948C47.3528 9.70948 47.2631 9.7544 47.1284 9.84425C47.308 9.70948 47.3977 9.61963 47.6221 9.61963C48.2056 9.61963 48.9238 10.2935 48.9238 10.9224C48.9238 11.147 48.6545 11.4166 48.5647 11.5963C48.6096 11.3717 48.6096 11.192 48.6096 11.0123Z" fill="#24272A"/>
<path d="M46.0939 7.64258C46.0939 7.64258 45.9593 8.49613 45.9593 8.90044C45.9593 9.25983 46.0042 9.88876 46.0042 9.88876C46.0042 9.88876 45.69 8.94536 45.7349 8.67582C45.7797 8.36136 46.0939 7.64258 46.0939 7.64258Z" fill="#24272A"/>
<path d="M60.7264 9.93369C60.4571 9.48446 59.8736 9.57431 59.7838 9.61923C59.7389 9.88877 59.4247 10.1583 59.1106 10.0235C58.7964 10.4279 58.5719 11.5509 58.5271 11.9103C58.4822 11.4162 58.5719 9.52938 58.9759 9.21492C58.7964 9.57431 59.2452 9.57431 59.3799 9.43953C59.5145 9.30476 59.6043 9.39461 59.5594 9.52938C59.5594 9.66415 59.1554 9.754 58.9759 9.66415C59.0657 9.79892 59.2003 9.84385 59.3799 9.79892C59.6941 9.70908 59.7838 9.39461 59.7389 9.16999C59.6941 8.90045 59.2452 8.58598 58.7964 8.94537C58.8413 8.63091 58.6617 8.2266 58.6617 8.2266L58.3026 7.37305L57.9885 8.2266C57.9885 8.2266 57.8089 8.63091 57.8538 8.94537C57.405 8.58598 56.9561 8.90045 56.9112 9.16999C56.8664 9.39461 57.001 9.754 57.2703 9.79892C57.4499 9.84385 57.5845 9.79892 57.6743 9.66415C57.4947 9.754 57.0908 9.66415 57.0908 9.52938C57.0459 9.39461 57.1357 9.30476 57.2703 9.43953C57.405 9.57431 57.8538 9.57431 57.6743 9.21492C58.0782 9.52938 58.168 11.5509 58.0782 12.0002C58.0333 11.6408 57.8538 10.3829 57.5396 9.97862C57.2254 10.1583 56.7317 9.79892 56.6868 9.52938C56.5971 9.48446 56.0136 9.57431 55.7443 9.97862C55.2057 10.7872 55.8789 11.4611 56.238 11.8654C56.5522 11.9103 56.6868 11.9103 57.0459 11.8654L57.001 11.8205C56.9112 11.6857 56.6868 11.5959 56.5073 11.506C56.7766 11.506 57.3601 11.4611 57.3152 10.8771C57.2703 10.5177 57.0459 10.338 56.7317 10.338C56.3278 10.338 56.1033 10.6075 56.1931 10.8771C56.3726 11.2814 56.8215 10.9669 56.7766 10.6974C56.8215 10.6525 56.9112 10.7423 56.9112 10.922C56.8664 11.3713 56.1033 11.2365 56.0585 10.7423C56.0136 10.5177 56.0585 10.0685 56.6868 9.97862C56.9561 9.93369 57.5845 10.0685 57.6294 11.0119C57.6743 11.1916 57.8089 13.8421 57.764 14.6058C57.764 14.6507 58.0782 14.6956 58.3475 14.6956C58.6168 14.6956 58.931 14.6507 58.931 14.5608C58.931 13.8421 58.9759 11.1916 59.0208 11.0119C59.0657 10.0685 59.6941 9.93369 59.9634 9.97862C60.5917 10.0685 60.6366 10.4728 60.5917 10.7423C60.5468 11.2365 59.7389 11.3713 59.6941 10.922C59.6941 10.8771 59.7389 10.7872 59.8287 10.7872C59.8287 10.8771 60.1429 11.1466 60.3224 10.7423C60.3673 10.6525 60.2775 10.2931 59.9185 10.2931C59.6043 10.2931 59.335 10.5177 59.335 10.8322C59.2901 11.3713 59.9185 11.4162 60.1429 11.4611C60.0082 11.5509 59.7389 11.6408 59.6492 11.7756L59.5594 11.8654C59.7389 11.8654 60.098 11.9553 60.4122 12.0451C60.8162 11.7306 61.265 10.7872 60.7264 9.93369Z" fill="#8C9091"/>
<path d="M58.1719 12.27V14.9205H58.3963V11.9106L58.1719 12.27Z" fill="#24272A"/>
<path d="M55.7009 11.1021C55.7009 10.4732 56.1946 9.79932 56.7781 9.79932C56.9577 9.79932 57.0474 9.84424 57.1821 9.93409C57.0025 9.79932 56.9128 9.70947 56.6884 9.70947C56.1049 9.70947 55.3867 10.3833 55.3867 11.0123C55.3867 11.2369 55.656 11.5064 55.7458 11.6861C55.7009 11.5064 55.7009 11.2818 55.7009 11.1021Z" fill="#24272A"/>
<path d="M60.8625 11.0123C60.8625 10.3833 60.3239 9.79932 59.7404 9.79932C59.5609 9.79932 59.4711 9.84424 59.3364 9.93409C59.516 9.79932 59.6057 9.70947 59.8302 9.70947C60.4136 9.70947 61.1318 10.3833 61.1318 11.0123C61.1318 11.2369 60.9523 11.5963 60.8176 11.776C60.8625 11.5963 60.8625 11.192 60.8625 11.0123Z" fill="#24272A"/>
<path d="M58.3044 7.68799C58.3044 7.68799 58.1697 8.54154 58.1697 8.94585C58.1248 9.30524 58.2146 9.93417 58.2146 9.93417C58.2146 9.93417 57.9004 8.99077 57.9453 8.72123C57.9902 8.45169 58.3044 7.68799 58.3044 7.68799Z" fill="#24272A"/>
<path d="M48.2501 39.2691C47.9808 39.2691 47.6217 39.2241 47.4422 39.2691L47.532 39.3589C47.6217 39.4937 47.8462 39.5835 48.0257 39.6734C47.7564 39.6734 47.1729 39.7183 47.2178 40.3023C47.2627 40.6617 47.4871 40.8414 47.8013 40.8414C48.2052 40.8414 48.2501 40.5269 48.2052 40.3922C48.0257 40.0328 47.7564 40.2574 47.7115 40.3472C47.6666 40.3922 47.5769 40.2574 47.5769 40.2125C47.5769 39.7632 48.4297 39.898 48.4745 40.3922C48.5194 40.6168 48.4745 41.066 47.8462 41.1559C47.5769 41.2008 46.9485 41.066 46.9036 40.1226C46.8587 39.9429 46.8587 36.2592 46.8587 35.5404C46.8587 35.4955 46.6792 35.5853 46.2752 35.5853C45.7366 35.5853 45.5571 35.4955 45.5571 35.5404C45.602 36.3041 45.5122 39.9429 45.5122 40.1226C45.4673 41.066 44.8389 41.2008 44.5696 41.1559C43.9413 41.066 43.8964 40.6617 43.9413 40.3922C43.9861 39.898 44.7941 39.7632 44.7941 40.2125C44.7941 40.3922 44.7492 40.482 44.6594 40.4371C44.7043 40.2125 44.2554 39.8531 44.0759 40.2574C43.9861 40.482 44.2106 40.7965 44.6145 40.7965C44.9287 40.7965 45.198 40.5719 45.198 40.2574C45.2429 39.7183 44.6145 39.6734 44.3901 39.6285C44.5248 39.5386 44.7941 39.4488 44.8838 39.314L44.9287 39.2691C44.6145 39.2241 44.435 39.2241 44.1208 39.2691C43.7617 39.7183 43.0885 40.3922 43.6271 41.1559C43.8964 41.6051 44.4799 41.6949 44.5696 41.6051C44.6145 41.3356 45.1531 40.9762 45.4224 41.1559C45.7366 40.7515 45.9162 39.4937 45.961 39.1343C46.0059 39.6285 45.961 41.65 45.5571 41.9196C45.7366 41.5602 45.2878 41.5602 45.1531 41.6949C45.0185 41.8297 44.9287 41.7399 44.9736 41.6051C44.9736 41.4703 45.3775 41.3805 45.5571 41.4703C45.4673 41.3356 45.3327 41.2906 45.1531 41.3356C44.8389 41.4254 44.7492 41.7399 44.7941 41.9645C44.8389 42.234 45.2878 42.5485 45.7366 42.1891C45.6917 42.5036 45.8713 42.9079 45.8713 42.9079L46.1855 43.7614L46.5445 42.9079C46.5445 42.9079 46.7241 42.5036 46.6792 42.1891C47.128 42.5485 47.5769 42.234 47.6217 41.9645C47.6666 41.7399 47.532 41.3805 47.2627 41.3356C47.0831 41.2906 46.9036 41.3356 46.8587 41.4703C47.0383 41.3805 47.4422 41.4703 47.4422 41.6051C47.4871 41.7399 47.3973 41.8297 47.2627 41.6949C47.128 41.5602 46.6792 41.5602 46.8587 41.9196C46.4548 41.6051 46.3201 39.7183 46.4099 39.2241C46.4548 39.5835 46.6792 40.7066 46.9934 41.1109C47.3076 40.9312 47.6217 41.2457 47.6666 41.5153C47.7564 41.5602 48.3399 41.65 48.6092 41.2008C49.1478 40.4371 48.6092 39.6734 48.2501 39.2691Z" fill="#8C9091"/>
<path d="M46.0938 35.0015L46.1386 39.2692L46.3182 38.9098V35.0015H46.0938Z" fill="#24272A"/>
<path d="M43.5837 40.1226C43.5837 40.7515 44.0774 41.4254 44.6609 41.4254C44.8405 41.4254 44.9302 41.3804 45.0649 41.2906C44.8854 41.4254 44.7956 41.5152 44.5712 41.5152C43.9877 41.5152 43.2695 40.8414 43.2695 40.2124C43.2695 39.9878 43.5388 39.7183 43.6286 39.5386C43.5837 39.7632 43.5837 39.9429 43.5837 40.1226Z" fill="#24272A"/>
<path d="M48.654 40.1226C48.654 40.7515 48.1603 41.4254 47.5768 41.4254C47.3973 41.4254 47.3075 41.3804 47.1729 41.2906C47.3524 41.4254 47.4422 41.5152 47.6666 41.5152C48.2501 41.5152 48.9682 40.8414 48.9682 40.2124C48.9682 39.9878 48.6989 39.7183 48.6091 39.5386C48.654 39.7632 48.654 39.9429 48.654 40.1226Z" fill="#24272A"/>
<path d="M46.1408 43.5367C46.1408 43.5367 46.0061 42.6832 46.0061 42.2788C46.0061 41.9195 46.051 41.2905 46.051 41.2905C46.051 41.2905 45.7368 42.2339 45.7817 42.5035C45.8715 42.773 46.1408 43.5367 46.1408 43.5367Z" fill="#24272A"/>
<path d="M55.7908 40.0327C55.7908 40.6617 56.2845 41.3355 56.868 41.3355C57.0475 41.3355 57.1373 41.2906 57.2719 41.2008C57.0924 41.3355 57.0026 41.4254 56.7782 41.4254C56.1947 41.4254 55.4766 40.7515 55.4766 40.1226C55.4766 39.898 55.7459 39.6284 55.8356 39.4487C55.7907 39.6733 55.7908 39.853 55.7908 40.0327Z" fill="#24272A"/>
<path d="M58.3478 43.4469C58.3478 43.4469 58.2132 42.5933 58.2132 42.189C58.2132 41.8296 58.2581 41.2007 58.2581 41.2007C58.2581 41.2007 57.9439 42.1441 57.9888 42.4136C58.0785 42.7281 58.3478 43.4469 58.3478 43.4469Z" fill="#24272A"/>
<path d="M51.977 16.2231C51.977 16.2231 51.8423 17.1665 51.7974 17.6158C51.7525 18.0201 51.8423 18.6939 51.8423 18.6939C51.8423 18.6939 51.4832 17.6607 51.573 17.3462C51.6628 17.0318 51.977 16.2231 51.977 16.2231Z" fill="#8C9091"/>
<path d="M62.8842 26.6004L63.4228 26.7352C63.2881 26.5106 61.5376 24.3093 57.3186 24.8035C56.1067 24.8035 52.6506 25.2078 52.4262 27.7685C52.3813 28.1728 52.4711 28.4872 52.516 28.7568C52.9648 30.5987 55.5232 30.0596 55.1192 28.1728C55.3437 28.3075 55.5232 28.4872 55.613 28.8466C56.0169 30.8682 53.3688 30.9131 52.516 30.1045C52.875 30.5987 53.0097 31.003 53.0097 31.3174C53.0097 31.8116 52.2467 33.2042 52.0222 33.8331C51.7978 33.2042 51.2143 32.2608 51.1695 31.542C51.2143 31.2276 51.2592 30.5987 51.6632 30.0596C50.9001 30.5537 49.4639 30.6885 48.8804 29.8799C48.6111 29.5205 48.6111 28.8916 48.8804 28.5322C48.9701 28.4423 49.0599 28.3525 49.1497 28.3525C49.1048 28.9365 49.2843 29.5205 49.8678 29.7002C50.5411 29.9248 51.3041 29.4756 51.6183 28.8466C51.6632 28.8017 51.8427 28.3525 51.7978 27.7685C51.7529 26.4657 51.0348 25.702 50.0474 25.2527C49.8678 25.2527 49.9576 25.2527 49.778 25.2527C49.9127 25.3426 50.0025 25.5672 50.0474 25.6571C50.4513 25.8367 50.6308 26.0614 50.945 26.5106C51.4836 27.2743 51.7081 28.2626 51.0348 29.0263C50.7655 29.3408 50.3167 29.5205 49.9127 29.3857C49.3741 29.206 49.3292 28.3974 49.5536 27.9931C48.8804 27.9482 48.6559 28.2626 48.5662 28.3525C48.2071 28.8466 48.2071 29.6103 48.5662 30.1045C49.015 30.6436 49.4639 30.8233 49.8678 30.8682C50.4513 30.9131 51.1695 30.5088 51.1246 30.5537C50.8553 31.003 50.5411 31.4073 50.6308 31.7667C50.9001 32.6202 51.7529 34.5519 51.8876 34.8664C51.9774 34.6867 53.0995 32.7999 53.279 31.8116C53.4136 31.587 53.0995 30.8682 52.875 30.5537C54.042 31.0479 56.2413 30.9131 55.9272 28.9365C55.7925 28.2177 55.0295 27.9931 54.5806 27.9482C54.7153 28.0829 54.8051 28.2626 54.7602 28.622C54.7602 29.0263 54.4909 29.5205 53.9971 29.6553C53.3688 29.8349 52.9648 29.4306 52.7404 28.8916C52.2916 27.8583 52.9648 26.7352 53.7727 26.0614C55.209 24.9832 61.0439 24.3543 62.8842 26.6004Z" fill="#8C9091"/>
<path d="M51.9301 32.8448C51.9301 32.8448 51.7954 31.9014 51.7505 31.4522C51.7057 31.0479 51.7954 30.374 51.7954 30.374C51.7954 30.374 51.4364 31.4073 51.5261 31.7217C51.6159 32.0362 51.9301 32.8448 51.9301 32.8448Z" fill="#8C9091"/>
<path d="M51.1678 32.2608L51.2127 32.3057L52.0206 34.1026V34.5968L50.9883 31.9912" fill="#24272A"/>
<path d="M58.8858 16.2233C58.8858 16.2233 58.8409 16.1335 58.5716 16.3581C58.2125 16.6726 57.8984 16.3132 57.8535 16.6726C57.8535 17.2566 57.8086 17.4812 57.8086 17.4812V21.8837C57.8086 21.8837 58.1228 21.6591 58.3023 21.5243C58.5716 21.3446 58.796 21.2548 58.796 21.2548L58.8858 16.2233Z" fill="#8C9091"/>
<path d="M58.4837 16.2231H58.3042V21.5691H58.4837V16.2231Z" fill="#24272A"/>
<path d="M44.6151 16.9869C44.5702 16.897 44.4805 16.897 44.4356 16.9869C44.3907 17.0767 44.4356 17.1666 44.5253 17.1666C44.5702 17.2115 44.66 17.1666 44.7049 17.1216C44.8844 16.9869 44.9742 16.897 45.0191 16.6724C45.064 16.5376 45.1088 16.1782 45.064 15.8638C45.0191 16.2681 44.8844 16.8072 44.6151 16.9869Z" fill="#8C9091"/>
<path d="M47.085 15.9087C47.0401 16.2681 47.085 16.5825 47.1299 16.7173C47.2196 16.9419 47.2645 17.0318 47.4441 17.1666C47.489 17.2115 47.5787 17.2115 47.6236 17.2115C47.6685 17.1666 47.7583 17.0767 47.7134 17.0318C47.6685 16.9419 47.5338 16.897 47.5338 17.0318C47.2645 16.8072 47.1299 16.2681 47.085 15.9087Z" fill="#8C9091"/>
<path d="M57.0028 17.0318C56.9579 16.9419 56.8682 16.9419 56.8233 17.0318C56.7784 17.1216 56.8233 17.2115 56.913 17.2115C56.9579 17.2564 57.0477 17.2115 57.0926 17.1666C57.2721 17.0318 57.3619 16.9419 57.4068 16.7173C57.4517 16.5825 57.4965 16.2232 57.4517 15.9087C57.3619 16.313 57.2721 16.8072 57.0028 17.0318Z" fill="#8C9091"/>
<path d="M59.4248 15.9536C59.38 16.313 59.4248 16.6275 59.4697 16.7622C59.5595 16.9869 59.6044 17.0767 59.7839 17.2115C59.8288 17.2564 59.9186 17.2564 59.9635 17.2564C60.0083 17.2115 60.0981 17.1216 60.0532 17.0767C60.0083 16.9869 59.8737 16.9419 59.8737 17.0767C59.6044 16.8072 59.5146 16.313 59.4248 15.9536Z" fill="#8C9091"/>
<path d="M53.0977 25.2529C52.5591 25.6123 52.2898 26.0166 52.1552 26.6006C51.9756 26.0166 51.7512 25.5674 51.437 25.2979C51.9756 25.2529 52.5591 25.2529 53.0977 25.2529Z" fill="#D41367"/>
<path d="M57.8105 33.3391C57.8105 33.3391 58.2145 33.8332 58.2594 33.8332C58.3491 33.9231 58.8428 33.7883 58.8428 33.7883V28.1729C58.8428 28.1729 58.798 28.1729 58.3491 27.9932C58.0349 27.8584 57.7656 27.6338 57.7656 27.6338L57.8105 33.3391Z" fill="#8C9091"/>
<path d="M58.4837 27.5439H58.3042V34.1926H58.4837V27.5439Z" fill="#24272A"/>
<path d="M45.1519 37.7865C42.5935 37.6967 42.0998 34.9114 42.01 34.013C41.8753 32.6203 41.8753 27.3643 41.9202 27.2744C41.7856 27.544 41.7856 27.6787 41.6509 27.8584C41.6509 28.3526 41.5611 34.013 42.0549 35.7201C42.0549 35.765 42.0998 35.8548 42.0998 35.8998C42.3691 36.0345 42.5935 36.3041 42.7281 36.6635C42.773 36.7982 42.8179 36.933 42.8179 37.0228C43.536 37.7865 44.2093 38.0112 45.1519 38.101V37.7865Z" fill="#8C9091"/>
<path d="M47.3962 37.5172C47.5309 37.5172 47.6206 37.5172 47.7553 37.5172C47.5758 37.2027 47.2167 35.6753 47.2167 35.4058L47.082 35.4507C47.082 35.8999 47.3513 37.2926 47.3962 37.5172Z" fill="#8C9091"/>
<path d="M45.3775 35.4506C45.3327 35.4057 45.2878 35.4506 45.2429 35.4506C45.198 35.9897 45.1082 36.8433 44.9287 37.3374C45.0185 37.3823 45.1082 37.3823 45.198 37.3823C45.3775 36.8433 45.3775 35.6303 45.3775 35.4506Z" fill="#8C9091"/>
<path d="M59.739 32.8452C59.7839 32.7554 59.8287 32.7105 59.8736 32.6206C60.0532 32.7554 60.098 32.4859 60.0083 32.4409C59.9634 32.396 59.8736 32.396 59.7839 32.5308C59.739 32.6206 59.6492 32.7105 59.6043 32.8452C59.4697 33.1597 59.335 33.5191 59.3799 33.9683C59.4248 33.9683 59.4697 33.9683 59.5146 33.9683C59.4697 33.3394 59.6941 32.9351 59.739 32.8452Z" fill="#8C9091"/>
<path d="M57.5409 35.3608L57.4063 35.3159C57.3614 35.5855 57.0023 37.1578 56.8677 37.4273C57.0023 37.4273 57.0921 37.4273 57.2267 37.4273C57.2716 37.2027 57.496 35.855 57.5409 35.3608Z" fill="#8C9091"/>
<path d="M59.4266 37.3374C59.5164 37.3374 59.6062 37.2925 59.6959 37.2925C59.5164 36.7983 59.3817 35.9448 59.3817 35.4057C59.3369 35.4057 59.2471 35.3608 59.2471 35.4057C59.2022 35.5854 59.2022 36.7983 59.4266 37.3374Z" fill="#8C9091"/>
<path d="M39.812 13.6177L39.6325 12.9888L40.4853 12.4947C40.4853 12.4947 40.216 12.6743 40.0364 13.0787C39.8569 13.3033 39.812 13.6177 39.812 13.6177ZM38.8695 13.9322C38.4655 13.6627 38.7348 13.0337 38.7348 13.0337C38.7348 13.0337 38.0615 13.0787 37.3434 12.854C36.6253 12.6294 36.1315 12.0454 36.1315 12.0454C36.1315 12.0454 38.9592 12.4048 39.3183 12.4048C39.3632 12.4048 36.8048 12.315 36.8048 12.315C36.8048 12.315 37.0741 12.6294 37.7474 12.8091C38.4655 13.0337 39.0939 12.8091 39.0939 12.8091C39.0939 12.8091 38.6899 13.3931 39.0041 13.7525C39.1836 13.9322 39.4529 13.9322 39.5876 13.7974C39.4529 13.9771 39.1836 14.1119 38.8695 13.9322ZM40.979 13.3482C40.979 13.3482 41.3381 13.3482 41.383 13.6627C41.4278 14.1568 40.7546 14.2916 40.4404 14.0221C40.1262 13.7974 40.0813 13.2584 40.4853 12.899C40.9341 12.4497 41.5176 12.27 41.5176 12.27C41.5176 12.27 39.9467 12.315 38.7797 12.27C37.119 12.1802 35.7725 11.9556 35.7725 11.9556C35.7725 11.9556 36.3111 12.6743 37.0741 13.0337C37.6576 13.3033 38.4655 13.3033 38.4655 13.3033C38.4655 13.3033 38.3308 13.9771 38.8246 14.2017C39.4978 14.5162 39.812 13.8873 39.812 13.8873C39.812 13.8873 39.812 14.3365 40.2609 14.5611C40.7995 14.7858 41.6074 14.7408 41.8318 14.067C41.9216 13.8424 41.8767 13.5279 41.6074 13.438C41.6971 13.483 42.146 13.5728 42.0113 14.1119C41.8767 14.7408 40.979 15.1002 40.3506 14.9654C40.979 15.235 42.1011 14.9654 42.2358 14.1119C42.3704 13.0337 41.2034 13.1236 40.979 13.3482Z" fill="#8C9091"/>
<path d="M39.9467 37.9662C40.1262 38.3705 40.3955 38.5502 40.3955 38.5502L39.5427 38.056L39.7223 37.4271C39.7671 37.3822 39.812 37.6966 39.9467 37.9662ZM39.5427 37.1576C39.4529 37.0677 39.1836 37.0228 38.9592 37.2025C38.6002 37.5619 39.049 38.1459 39.049 38.1459C39.049 38.1459 38.4655 37.9213 37.7025 38.1459C37.0292 38.3256 36.7599 38.64 36.7599 38.64C36.7599 38.64 39.3183 38.5502 39.2734 38.5502C38.9592 38.5502 36.0867 38.9096 36.0867 38.9096C36.0867 38.9096 36.6253 38.3256 37.2985 38.1009C38.0615 37.8763 38.6899 37.9213 38.6899 37.9213C38.6899 37.9213 38.4206 37.2923 38.8246 37.0228C39.1388 36.8431 39.4081 37.0228 39.5427 37.1576ZM42.2358 36.9779C42.146 36.1243 40.979 35.8548 40.3506 36.1243C40.979 35.9895 41.8767 36.3489 42.0113 36.9779C42.1011 37.5169 41.6971 37.6068 41.6074 37.6517C41.8767 37.5169 41.8767 37.2025 41.8318 37.0228C41.6074 36.3489 40.7995 36.304 40.2609 36.5286C39.812 36.7532 39.812 37.2025 39.812 37.2025C39.812 37.2025 39.4978 36.5735 38.8246 36.888C38.3308 37.1126 38.4655 37.7865 38.4655 37.7865C38.4655 37.7865 37.7025 37.7416 37.0741 38.056C36.356 38.3705 35.7725 39.1342 35.7725 39.1342C35.7725 39.1342 37.119 38.9096 38.7797 38.8197C39.9467 38.7748 41.5176 38.8197 41.5176 38.8197C41.5176 38.8197 40.9341 38.64 40.4853 38.1908C40.1262 37.8314 40.1711 37.2923 40.4404 37.0677C40.7546 36.7982 41.4278 36.888 41.383 37.4271C41.3381 37.7416 40.979 37.7416 40.979 37.7416C41.2034 37.8763 42.3255 37.9213 42.2358 36.9779Z" fill="#8C9091"/>
<path d="M46.184 15.3247C45.1517 15.3696 44.3438 15.1001 44.3438 15.1001C44.3438 15.1001 44.6131 15.5943 45.2414 15.729C45.6454 15.8189 46.4533 15.8638 47.0368 15.729C47.6203 15.5943 47.8896 15.145 47.8896 15.145C47.8896 15.145 47.2163 15.2798 46.184 15.3247Z" fill="#8C9091"/>
<path d="M58.3491 15.3247C59.3815 15.3696 60.1894 15.1001 60.1894 15.1001C60.1894 15.1001 59.9201 15.5943 59.2917 15.729C58.8878 15.8189 58.0798 15.8638 57.4964 15.729C56.9129 15.5943 56.6436 15.145 56.6436 15.145C56.6436 15.145 57.3168 15.2798 58.3491 15.3247Z" fill="#8C9091"/>
<path d="M46.184 34.687C45.1517 34.7319 44.3438 34.4624 44.3438 34.4624C44.3438 34.4624 44.6131 34.9566 45.2414 35.0913C45.6454 35.1812 46.4533 35.2261 47.0368 35.0913C47.6203 34.9566 47.8896 34.5073 47.8896 34.5073C47.8896 34.5073 47.2163 34.687 46.184 34.687Z" fill="#8C9091"/>
<path d="M45.4656 34.8218C44.7475 34.7769 44.0742 34.5522 44.0742 34.5522C44.0742 34.5522 44.6128 34.9116 44.8372 34.9116C46.1838 35.0913 46.9917 34.7769 46.9917 34.7769C46.9917 34.7769 46.3184 34.9116 45.4656 34.8218Z" fill="#24272A"/>
<path d="M45.4656 15.4595C44.7475 15.4146 44.0742 15.1899 44.0742 15.1899C44.0742 15.1899 44.6128 15.5493 44.8372 15.5493C46.1838 15.729 46.9917 15.4146 46.9917 15.4146C46.9917 15.4146 46.3184 15.5493 45.4656 15.4595Z" fill="#24272A"/>
<path d="M58.9792 15.4595C59.6973 15.4146 60.3706 15.1899 60.3706 15.1899C60.3706 15.1899 59.832 15.5493 59.6076 15.5493C58.261 15.729 57.4531 15.4146 57.4531 15.4146C57.4531 15.4146 58.1713 15.5493 58.9792 15.4595Z" fill="#24272A"/>
<path d="M44.9287 35.4058C44.9287 35.4058 45.6469 35.6304 46.1855 35.6304C47.128 35.6304 47.6217 35.2261 47.6666 35.1812C47.6666 35.1812 45.8264 35.3608 45.4224 35.3608C45.0185 35.3159 44.9287 35.4058 44.9287 35.4058Z" fill="#24272A"/>
<path d="M56.0605 41.1559C56.3298 41.6051 56.9133 41.5153 57.003 41.4703C57.0479 41.2008 57.3621 40.8863 57.6763 41.066C57.9905 40.6617 58.2149 39.5386 58.2598 39.1792C58.3047 39.6734 58.2149 41.5602 57.811 41.8746C57.9905 41.5153 57.5417 41.5153 57.407 41.65C57.2724 41.7848 57.1826 41.695 57.2275 41.5602C57.2275 41.4254 57.6314 41.3356 57.811 41.4254C57.7212 41.2906 57.5865 41.2457 57.407 41.2906C57.0928 41.3805 57.003 41.695 57.0479 41.9196C57.0928 42.1891 57.5417 42.5036 57.9905 42.1442C57.9456 42.4587 58.1251 42.863 58.1251 42.863L58.4842 43.7165L58.7984 42.863C58.7984 42.863 58.9779 42.4587 58.9331 42.1442C59.3819 42.5036 59.8307 42.1891 59.8756 41.9196C59.9205 41.695 59.7859 41.3356 59.5165 41.2906C59.337 41.2457 59.2024 41.2906 59.1126 41.4254C59.2921 41.3356 59.6961 41.4254 59.6961 41.5602C59.741 41.695 59.6512 41.7848 59.5165 41.65C59.3819 41.5153 58.9331 41.5153 59.1126 41.8746C58.7086 41.5602 58.6189 39.5386 58.7086 39.0894C58.7535 39.4488 58.9331 40.7066 59.2472 41.1109C59.5614 40.9313 60.0551 41.2906 60.1 41.5602C60.1898 41.6051 60.7733 41.5153 61.0426 41.1109C61.5812 40.3023 60.9079 39.6285 60.5489 39.2242C60.2347 39.1792 60.1 39.1792 59.741 39.2242L59.7858 39.2691C59.8756 39.4038 60.1 39.4937 60.2796 39.5835C60.0103 39.5835 59.4268 39.6285 59.4717 40.2125C59.5165 40.5719 59.741 40.7516 60.0552 40.7516C60.4591 40.7516 60.6835 40.482 60.5938 40.2125C60.4142 39.8082 59.9654 40.1226 60.0103 40.3472C59.9654 40.3922 59.8756 40.3023 59.8756 40.1226C59.9205 39.6734 60.6835 39.8082 60.7284 40.3023C60.7284 40.5269 60.7284 40.9762 60.1 41.066C59.8307 41.1109 59.2024 40.9762 59.1575 40.0328C59.1126 39.8531 59.0677 36.2143 59.1126 35.4506C59.1126 35.4056 58.9331 35.4955 58.3945 35.4955C58.0354 35.4955 57.811 35.4056 57.811 35.4506C57.811 36.1693 57.7661 39.8531 57.7661 40.0328C57.7212 40.9762 57.0928 41.1109 56.8235 41.066C56.1951 40.9762 56.1503 40.5719 56.1951 40.3023C56.24 39.8082 57.0479 39.6734 57.0928 40.1226C57.0928 40.1675 57.0479 40.2574 56.9582 40.2574C56.9582 40.1675 56.644 39.898 56.4644 40.3023C56.4196 40.3922 56.5093 40.7516 56.8684 40.7516C57.1826 40.7516 57.4519 40.5269 57.4519 40.2125C57.4968 39.6734 56.8684 39.6285 56.644 39.5835C56.7786 39.4937 57.0479 39.4038 57.1377 39.2691L57.2275 39.1792C57.0479 39.1792 56.6889 39.1792 56.4196 39.1792C56.0156 39.5386 55.5219 40.3023 56.0605 41.1559Z" fill="#8C9091"/>
<path d="M58.3477 34.8667V38.82L58.5272 39.1344L58.5721 34.8667H58.3477Z" fill="#24272A"/>
<path d="M61.0866 39.9878C61.0866 40.6167 60.5929 41.2906 60.0094 41.2906C59.8299 41.2906 59.7401 41.2457 59.6055 41.1558C59.785 41.2906 59.8748 41.3805 60.0992 41.3805C60.6827 41.3805 61.4008 40.7066 61.4008 40.0777C61.4008 39.853 61.1315 39.5835 61.0417 39.4038C61.0866 39.6284 61.0866 39.8081 61.0866 39.9878Z" fill="#24272A"/>
<path d="M55.97 40.0327C55.97 40.6617 56.4637 41.3355 57.0472 41.3355C57.2267 41.3355 57.3165 41.2906 57.4511 41.2008C57.2716 41.3355 57.1818 41.4254 56.9574 41.4254C56.3739 41.4254 55.6558 40.7515 55.6558 40.1226C55.6558 39.898 55.9251 39.6284 56.0148 39.4487C55.97 39.6284 55.97 39.8081 55.97 40.0327Z" fill="#24272A"/>
<path d="M58.5273 43.4019C58.5273 43.4019 58.662 42.5484 58.662 42.1441C58.7069 41.7847 58.6171 41.1558 58.6171 41.1558C58.6171 41.1558 58.9313 42.0992 58.8864 42.3687C58.7966 42.6832 58.5273 43.4019 58.5273 43.4019Z" fill="#24272A"/>
<path d="M59.7418 35.271C59.7418 35.271 59.0237 35.4956 58.4851 35.4956C57.5425 35.4956 57.0488 35.0913 57.0039 35.0464C57.0039 35.0464 58.8441 35.2261 59.2481 35.2261C59.6521 35.2261 59.7418 35.271 59.7418 35.271Z" fill="#24272A"/>
<path d="M58.3491 34.687C59.3815 34.7319 60.1894 34.4624 60.1894 34.4624C60.1894 34.4624 59.9201 34.9566 59.2917 35.0913C58.8878 35.1812 58.0798 35.2261 57.4964 35.0913C56.9129 34.9566 56.6436 34.5073 56.6436 34.5073C56.6436 34.5073 57.3168 34.687 58.3491 34.687Z" fill="#8C9091"/>
<path d="M58.9792 34.8218C59.6973 34.7769 60.3706 34.5522 60.3706 34.5522C60.3706 34.5522 59.832 34.9116 59.6076 34.9116C58.261 35.0913 57.4531 34.7769 57.4531 34.7769C57.4531 34.7769 58.1713 34.9116 58.9792 34.8218Z" fill="#24272A"/>
<path d="M45.0172 24.3993C45.0172 24.3993 44.2542 23.7704 43.8502 23.7254C43.8502 23.6805 44.1644 23.4559 43.7605 23.0516C43.536 22.827 43.0872 23.0067 42.9077 23.2313C42.773 23.3661 42.7281 23.5457 42.6384 23.5907C42.5935 23.5457 42.5037 23.4559 42.4588 23.411C42.5935 23.0516 42.6832 22.7371 42.6384 22.3777C42.5486 21.9285 42.1446 21.614 41.7407 21.9734C41.6509 21.7039 40.8879 21.659 40.8879 21.9734C40.8879 22.6922 40.9328 23.411 40.9328 23.411C40.9328 23.411 41.0674 22.827 41.3816 22.782C41.606 22.7371 41.8753 22.782 41.9202 23.1864C42.0549 24.4891 40.2595 24.4891 40.2595 23.3211C40.2595 22.5574 40.2595 22.5574 40.3044 15.5943L39.9453 14.9204C39.9453 14.9204 39.9902 17.526 39.9902 18.1998C39.9902 18.1998 39.9902 20.6706 39.9902 23.8153L40.3493 24.3993L39.9902 24.9384C39.9902 28.083 39.9902 30.5988 39.9902 30.5988C39.9902 31.2726 39.9453 35.7201 39.9453 35.7201L40.3044 35.4056C40.3044 28.4873 40.2595 26.2412 40.2595 25.4775C40.2595 24.3094 42.0549 24.3095 41.9202 25.6122C41.8753 26.0165 41.606 26.0615 41.3816 26.0165C41.0674 25.9267 40.9328 25.3876 40.9328 25.3876C40.9328 25.3876 40.8879 26.1064 40.8879 26.8252C40.8879 27.1396 41.606 27.0947 41.7407 26.8252C42.0997 27.1846 42.5486 26.8701 42.6384 26.4209C42.6832 26.0615 42.5935 25.747 42.4588 25.3876C42.5037 25.3427 42.5935 25.2528 42.6384 25.2079C42.7281 25.2528 42.773 25.4325 42.9077 25.5673C43.0872 25.7919 43.5809 25.9267 43.7605 25.747C44.1644 25.3427 43.8502 25.1181 43.8502 25.0732C44.2542 25.0282 45.0172 24.3993 45.0172 24.3993Z" fill="#8C9091"/>
<path d="M65.08 18.5593C65.0351 18.4245 64.4067 17.7506 64.4067 17.7506C64.676 17.5709 64.6311 16.4478 63.7783 16.5377C64.0925 16.358 63.7335 15.19 62.8807 15.5044C62.8807 15.3697 62.8358 15.2349 62.746 15.1001C62.5216 14.7857 62.0279 14.7407 61.7137 14.9204C61.6688 14.8755 61.579 14.8306 61.4444 14.7857C61.1302 14.606 60.9058 14.6509 60.6365 14.8755C60.9955 15.0103 61.2648 15.2349 61.5341 15.6392C62.6114 17.0318 62.746 19.9519 61.8034 21.659C61.0404 23.0067 59.4695 23.5458 57.9434 23.7704C57.719 23.7704 57.5395 23.7704 57.315 23.8153H57.2702C56.0583 23.8602 54.7118 23.7255 53.7692 22.9618C52.9613 22.3328 52.4227 21.2547 52.8715 20.2214C53.096 19.6823 53.4999 19.2331 54.1283 19.4577C54.622 19.5925 54.8913 20.0867 54.8913 20.491C54.8913 20.8504 54.8015 21.03 54.6669 21.1648C55.1157 21.1199 55.8339 20.7156 55.9236 19.9968C56.1032 18.1999 54.1732 18.0651 53.0062 18.5593C53.2306 18.2448 53.5448 17.526 53.4101 17.3014C53.2306 16.3131 52.1085 14.4263 52.0187 14.2466C51.8841 14.561 51.0313 16.5377 50.762 17.3463C50.6722 17.7057 50.9864 18.11 51.2557 18.5593C51.3006 18.6042 50.4927 18.3346 49.9541 18.3796C49.5501 18.4245 49.1462 18.5143 48.6973 19.0534C47.9343 20.1316 49.0564 21.2996 49.7297 21.2547C49.5052 20.8054 49.5052 19.9519 50.0438 19.7722C50.4478 19.6374 50.8966 19.8171 51.1659 20.1316C51.8392 20.8953 51.6148 21.8836 51.0762 22.6473C50.762 23.0965 50.5825 23.3212 50.1785 23.5008C50.1336 23.5907 49.999 23.8153 49.9092 23.9052C50.0887 23.9052 49.999 23.9052 50.1785 23.9052C51.1659 23.4559 51.8841 22.6922 51.929 21.3894C51.929 20.8054 51.7494 20.4011 51.7494 20.3113C51.4353 19.6823 50.6273 19.278 49.999 19.4577C49.4155 19.6374 49.2808 20.5359 49.5052 21.1199C48.6524 20.7156 48.7422 19.6374 49.0115 19.2331C49.595 18.4245 51.0313 18.5592 51.7943 19.0534C51.3455 18.5143 51.3455 17.8854 51.3006 17.5709C51.3455 16.8971 51.929 15.9537 52.1534 15.2798C52.3329 15.9088 53.096 17.3014 53.1408 17.7955C53.1408 18.1549 53.0062 18.5143 52.6471 19.0085C53.4999 18.1549 56.1481 18.2448 55.7441 20.2663C55.6543 20.5808 55.4748 20.8054 55.2504 20.9402C55.6543 19.0085 53.096 18.4694 52.6471 20.3562C52.5574 20.6257 52.5573 20.9851 52.5573 21.3445C52.5573 22.0633 53.1857 22.8719 53.5897 23.2762C54.5771 24.2646 55.9685 24.1747 57.1804 24.1747C60.6813 23.9052 61.4893 23.0965 62.7909 20.446C62.9704 20.0417 63.15 19.8171 63.3295 19.6823C63.5539 19.5476 64.0028 19.4128 64.1823 19.862C63.9579 19.6374 63.6437 19.5925 63.509 19.8171C63.4193 19.907 63.3744 20.0417 63.3744 20.1765C63.4641 20.3113 63.5988 20.446 63.8681 20.446C64.3169 20.446 64.5862 20.0417 64.5862 20.0417C64.5862 20.0417 64.6311 20.3562 64.2272 20.5808C64.0476 20.6707 63.8232 20.7156 63.6437 20.7156C63.8232 20.8054 64.0925 20.8054 64.3169 20.7156C64.9453 20.446 64.9902 19.8171 64.6311 19.323C64.5414 19.1882 65.1249 18.6491 65.08 18.5593Z" fill="#8C9091"/>
<path d="M65.8911 32.261C65.8911 32.261 66.5643 31.4973 66.6092 31.3625C66.4746 31.1379 65.8013 30.509 65.8013 30.5539C65.936 30.2394 65.8911 29.1163 65.0383 29.2511C65.3525 29.0714 64.9934 27.7237 64.1406 28.0831C64.1406 27.9483 64.0957 27.7686 63.9611 27.6338C63.6918 27.2745 63.2429 27.1846 62.9287 27.4092C62.8838 27.3194 62.7492 27.2745 62.6594 27.2295C62.3452 27.0498 62.1208 27.0948 61.8515 27.3194C62.2106 27.4991 62.4799 27.7686 62.7941 28.1729C63.9611 29.8351 64.1406 33.3841 63.0185 35.2709C62.9736 35.3607 62.9287 35.4056 62.8838 35.4955C62.5697 36.0346 61.9862 36.5287 61.4475 36.8432C60.7743 37.2475 60.1908 37.4272 59.4727 37.562C59.4727 37.6518 59.4727 37.7417 59.5175 37.8764C61.0885 37.562 62.3452 36.8881 63.2429 35.5404C63.2878 35.4955 63.2878 35.4506 63.3327 35.4056C63.6469 34.8665 63.7366 34.3724 63.9162 33.8333C64.0508 33.429 64.2304 32.9798 64.5446 32.7102C64.769 32.5305 65.2627 32.3508 65.3973 32.8899C65.1729 32.6204 64.8587 32.5754 64.7241 32.8001C64.6792 32.845 64.6343 32.9348 64.6343 32.9798C64.6792 33.1145 64.8139 33.3391 65.1729 33.3391C65.6218 33.3391 65.8911 32.9348 65.8911 32.9348C65.8911 32.9348 65.936 33.2493 65.532 33.4739C65.2178 33.6087 64.8587 33.6087 64.7241 33.5638C64.9036 33.8782 65.3076 33.9232 65.6218 33.7884C65.8462 33.6536 66.0257 33.429 66.0706 33.1594C66.0706 33.1145 66.0706 33.0247 66.1155 32.9798C66.1155 32.9348 66.1155 32.8899 66.1155 32.845C66.1155 32.7551 66.0706 32.6204 66.0257 32.4856C65.9808 32.3957 65.8911 32.3508 65.8911 32.261Z" fill="#8C9091"/>
<path d="M60.3251 22.0183C60.37 22.0632 60.37 22.1081 60.4149 22.153C60.4597 22.2878 60.5495 22.4226 60.5495 22.6023L60.5944 22.5573C60.5944 22.3776 60.5944 21.4792 59.6069 21.5241C59.3376 21.5241 59.0235 21.569 57.8565 22.6921C57.3627 23.1863 56.9588 23.4109 56.7344 23.5007C56.9139 23.4558 57.1383 23.4109 57.273 23.321C57.7667 23.0515 58.3053 22.4675 58.8439 22.1979C59.203 21.9733 59.6518 22.0632 59.6518 22.0632C59.6518 22.0632 59.1132 22.0182 58.3951 22.737C58.036 23.0964 57.8116 23.321 57.4974 23.5007C57.5872 23.4558 58.036 23.5906 58.799 22.6472C58.7542 22.8718 58.799 23.1863 58.9786 23.4109C59.3376 23.321 59.6518 23.1863 59.966 23.0515C60.0109 22.9167 59.9211 22.737 59.7416 22.6921C59.6518 22.6472 59.5172 22.6921 59.3825 22.8718C59.3376 22.6921 59.5172 22.5124 59.7865 22.5124C60.0109 22.5573 60.1456 22.737 60.1904 22.9616C60.2802 22.9167 60.4149 22.8269 60.5046 22.782C60.4597 22.2429 60.1904 21.7487 59.5621 21.7936C59.7416 21.6139 60.1455 21.8386 60.3251 22.0183Z" fill="#8C9091"/>
<path d="M60.4575 25.7022C60.1882 25.6123 59.7843 25.5225 59.4701 25.5225C60.3229 26.0166 60.0087 26.8702 59.6047 26.8702C59.2905 26.9151 59.0212 26.4659 59.3354 26.2862C59.2905 26.5108 59.4252 26.6006 59.5598 26.6006C59.8291 26.6006 59.874 25.9717 59.3803 25.7022C59.2008 25.6123 58.6622 25.6123 58.6173 26.1514C58.2582 25.8819 57.8543 25.6572 57.4503 25.5225C57.7196 25.7022 58.0338 26.0615 58.4826 26.4209C59.2008 27.0499 59.7394 27.0499 59.7394 27.0499C59.7394 27.0499 59.3803 27.2296 58.8866 26.9151C58.3929 26.6006 57.8094 26.0615 57.3156 25.792C57.0463 25.6572 56.7322 25.5674 56.418 25.5674H56.4629C56.8668 25.7022 57.4503 26.1065 57.7645 26.4209C58.7519 27.4542 59.6047 27.4093 59.9189 27.3194C60.8615 27.0948 60.5024 25.7471 60.4575 25.7022Z" fill="#8C9091"/>
<path d="M51.2557 16.8072V16.7623L52.0636 14.9654V14.4712L51.0312 17.0768" fill="#24272A"/>
<path d="M41.1138 22.8272L41.3382 22.1982L41.1138 22.0186V22.8272Z" fill="#24272A"/>
<path d="M41.1138 26.7354L41.3382 26.5557L41.1138 25.9268V26.7354Z" fill="#24272A"/>
</g>
<defs>
<clipPath id="clip0">
<rect width="104.31" height="50" fill="white" transform="translate(0 0.5)"/>
</clipPath>
</defs>
</svg>
