<svg width="791" height="615" viewBox="0 0 791 615" fill="none" xmlns="http://www.w3.org/2000/svg">
<path d="M156.426 328.221L156.426 328.222L156.426 328.223L156.423 328.237C156.42 328.25 156.415 328.271 156.409 328.3C156.397 328.359 156.38 328.447 156.359 328.562C156.318 328.793 156.264 329.128 156.217 329.537C156.121 330.361 156.056 331.463 156.162 332.604C156.378 334.932 157.252 337.078 159.63 337.814C162.573 338.687 164.606 338.534 165.955 337.964C167.286 337.403 168.075 336.384 168.454 335.246C168.526 335.028 168.61 334.531 168.679 333.731C168.745 332.961 168.793 331.996 168.825 330.898C168.888 328.704 168.889 326.026 168.86 323.424C168.832 320.823 168.774 318.307 168.725 316.441C168.7 315.508 168.676 314.737 168.659 314.201C168.651 313.932 168.644 313.722 168.639 313.579L168.635 313.441C168.627 313.404 168.615 313.35 168.598 313.281C168.559 313.124 168.495 312.894 168.397 312.613C168.201 312.048 167.873 311.297 167.352 310.544C166.327 309.066 164.541 307.552 161.366 307.449C158.829 307.367 157.459 307.376 156.747 307.411L156.61 307.92L155.634 307.64L155.909 306.679C155.634 307.64 155.633 307.64 155.633 307.64L155.632 307.64L155.63 307.639L155.625 307.637L155.612 307.634C155.608 307.632 155.602 307.631 155.596 307.629C155.591 307.627 155.585 307.625 155.579 307.623C155.555 307.615 155.52 307.603 155.48 307.587C155.447 307.574 155.239 307.494 155.062 307.317C154.97 307.225 154.744 306.964 154.755 306.554C154.764 306.177 154.963 305.93 155.111 305.799L162.91 276.92L71.5319 254.696L1.48711 501.672H110.56L136.613 411.067V372.468V372.333L136.649 372.204L149.227 326.357L149.489 325.404L150.445 325.654L155.705 327.03L156.644 327.275L156.426 328.221ZM156.426 328.221L156.427 328.221L156.426 328.221Z" fill="white" fill-opacity="0.08" stroke="white" stroke-width="2"/>
<path d="M195.141 165.855L194.288 165.749L194.055 166.577L164.127 273.159L72.7685 251.164L111.589 115.775L111.613 115.689L111.622 115.599L116.095 70.7708L190.51 79.9268L189.219 95.2432L189.138 96.2001L190.091 96.3195L199.239 97.4656L200.23 97.5898L200.355 96.5992L203.66 70.5426L386.944 93.9031L385.903 103.703L385.8 104.676L386.771 104.801L417.999 108.797L403.211 204.243L229.955 182.025L231.004 171.3L231.099 170.331L230.133 170.21L195.141 165.855Z" fill="white" fill-opacity="0.08" stroke="white" stroke-width="2"/>
<path d="M542.999 210.098L542.013 209.969L541.879 210.954L540.412 221.664L407.929 204.953L421.82 109.507L454.01 113.512L454.959 113.63L455.119 112.687L456.788 102.859L631.649 125.079L630.611 134.648L630.508 135.599L631.454 135.744L672.457 142.032V195.043V195.661L673.009 195.937L673.366 196.116L672.924 243.792L636.238 244.01L636.035 236.507L636.01 235.558L635.06 235.534L598.72 234.641L598.071 218.156L598.037 217.314L597.201 217.204L542.999 210.098Z" fill="white" fill-opacity="0.08" stroke="white" stroke-width="2"/>
<path d="M591.67 239.816L631.979 239.379V247.537V248.542L632.984 248.537L682.302 248.312L682.522 274.595L682.53 275.564L683.499 275.586L692.585 275.793V380.638H592.584V358.485V357.544L591.645 357.487L585.035 357.085L584.811 259.705L590.736 259.309L591.67 259.246V258.311V239.816Z" fill="white" fill-opacity="0.08" stroke="white" stroke-width="2"/>
<path d="M633.581 498.546V502.168L628.596 502.36L627.904 502.387L627.685 503.044L627.22 504.442L620.546 504.628L620.242 502.952L620.099 502.167L619.302 502.131L609.011 501.673L608.033 501.629L607.968 502.605L607.802 505.11H601.151L600.809 502.54L600.694 501.672H599.818H595.278L595.099 498.264L595.05 497.329L594.114 497.316L576.961 497.087L576.04 497.075L575.952 497.993L575.578 501.933L570.051 502.131L569.087 502.165V503.13V505.34H562.465L562.623 502.967L562.694 501.901H561.625H551.791H550.791V502.901V505.134L543.185 505.315V502.672V501.672H542.185H537.468V498.316V497.316H536.468H518.858H517.915L517.86 498.258L517.458 505.108L422.887 504.883L422.662 396.621H471.432V406.395V407.395H472.432H482.952H483.931L483.952 406.416L484.16 396.619L591.358 396.392L592.377 396.389L592.356 395.371L592.148 385.159H692.596L692.814 406.405L692.824 407.378L693.797 407.394L720.261 407.837L720.484 497.092L673.455 497.316L672.511 497.321L672.461 498.264L672.282 501.682L653.419 501.89V498.087V497.061L652.394 497.087L634.555 497.546L633.581 497.571V498.546Z" fill="white" fill-opacity="0.08" stroke="white" stroke-width="2"/>
<path d="M228.72 397.074L367.142 396.396V406.165V407.165H368.142H378.434H379.434V406.165V396.844L417.914 396.626V496.886L402.648 497.317L401.676 497.344V498.316V501.672H382.864V498.087V497.087H381.864H364.025H363.025V498.087V501.672H358.765H357.765V502.672V505.339H350.16V502.901V501.901H349.16H339.097H338.097V502.901V504.881H330.492V502.901V501.901H329.492H324.774V497.858V496.858H323.774H305.935H304.935V497.858V501.901H300.675H299.675V502.901V505.11H291.384V502.901V501.901H290.384H281.236H280.236V502.901V505.11H273.088V502.672V501.672H272.088H266.913V497.629V496.629H265.913H248.074H247.074V497.629V501.901H162.49L189.14 407.624H227.72H228.72V406.624V397.074Z" fill="white" fill-opacity="0.08" stroke="white" stroke-width="2"/>
<path d="M248.497 37.4686C248.148 38.1672 247.8 38.8658 247.451 39.5644C247.103 40.2631 246.406 40.2631 244.663 40.2631C243.618 40.2631 242.921 40.2631 242.572 39.9137C242.224 39.5644 242.224 39.2151 242.224 38.1672V34.3248H244.315C246.057 34.3248 246.406 34.3248 246.406 36.0713H247.103V31.8796H246.406C246.057 33.2768 246.057 33.2768 244.315 33.2768H242.224V28.3865C242.224 27.6879 242.224 27.6879 242.921 27.6879H244.663C246.057 27.6879 246.754 27.6879 247.103 28.3865C247.451 28.7358 247.451 29.4344 247.8 30.1331H248.497C248.497 29.0851 248.497 27.6879 248.497 26.9893H239.087V27.6879C240.83 27.6879 240.83 28.0372 240.83 29.7837V38.1672C240.83 39.9137 240.83 39.9138 238.739 40.2631V40.9617H248.845C249.194 40.2631 249.542 38.5165 249.542 37.8179L248.497 37.4686ZM236.648 30.1331C236.648 28.7358 236.299 28.0372 236.299 27.3386C235.602 26.9893 234.557 26.9893 233.511 26.9893C230.723 26.9893 229.329 28.7358 229.329 30.8317C229.329 33.2769 231.42 34.3248 232.814 35.0234C234.557 35.722 235.602 36.4206 235.602 38.1672C235.602 39.5644 234.557 40.6124 233.163 40.6124C231.072 40.6124 230.026 38.5165 229.678 37.1193H228.981C228.981 38.1672 229.329 39.9138 229.678 40.2631C230.026 40.2631 230.026 40.6124 230.723 40.6124C231.072 40.6124 231.769 40.9617 232.814 40.9617C235.602 40.9617 237.345 39.2151 237.345 37.1193C237.345 34.6741 235.254 33.6262 233.86 32.9275C232.117 32.2289 231.072 31.5303 231.072 29.7837C231.072 28.7358 231.769 27.3386 233.511 27.3386C235.254 27.3386 235.951 28.7358 236.299 30.1331H236.648ZM227.587 27.3386H222.708V28.0372C224.102 28.0372 224.799 28.3865 224.799 29.0851C224.799 29.7837 224.799 30.4824 224.799 32.5782V33.9755C224.799 37.4686 223.753 39.9137 220.965 39.9137C218.525 39.9137 217.131 37.8179 217.131 34.6741V29.7837C217.131 28.0372 217.131 27.6879 218.874 27.6879V26.9893H213.646V27.6879C215.389 27.6879 215.389 28.0372 215.389 29.7837V35.0234C215.389 37.4686 216.086 39.2151 217.131 39.9137C218.177 40.6124 219.222 40.9617 220.616 40.9617C222.011 40.9617 223.405 40.6124 224.45 39.5644C225.496 38.1672 225.844 36.4206 225.844 33.9755V32.2289C225.844 30.1331 225.844 29.4344 225.844 28.7358C225.844 27.6879 226.541 27.6879 227.587 27.3386ZM204.585 27.6879C207.373 27.6879 209.464 30.1331 209.464 34.3248C209.464 38.1672 207.373 40.2631 204.934 40.2631C202.146 40.2631 199.706 37.4686 199.706 33.6262C199.706 29.7837 202.494 27.6879 204.585 27.6879ZM205.282 26.9893C200.752 26.9893 198.312 30.4824 198.312 34.3248C198.312 38.5165 201.449 41.311 204.934 41.311C208.767 41.311 211.904 38.5165 211.904 33.9755C211.904 29.7837 208.767 26.9893 205.282 26.9893ZM196.57 27.3386H190.994V28.0372C192.736 28.0372 192.736 28.3865 192.736 30.1331V33.6262H185.766V30.1331C185.766 28.3865 185.766 28.3865 187.509 28.0372V27.3386H182.281V28.0372C184.024 28.0372 184.024 28.3865 184.024 30.1331V38.5165C184.024 40.2631 184.024 40.2631 182.281 40.6124V41.311H187.857V40.6124C186.115 40.6124 186.115 40.2631 186.115 38.5165V34.3248H193.085V38.5165C193.085 40.2631 193.085 40.2631 190.994 40.6124V41.311H196.57V40.6124C194.827 40.6124 194.827 40.2631 194.827 38.5165V30.1331C194.827 28.3865 194.827 28.3865 196.57 28.0372V27.3386Z" fill="white"/>
<path d="M296.938 1.49017H292.408V2.1888C294.15 2.1888 294.15 2.53811 293.453 3.58604C292.756 4.98328 291.711 7.07915 291.014 8.12708C289.968 6.72984 288.923 4.98328 288.226 3.23673C287.877 2.53811 287.877 2.1888 289.271 2.1888V1.49017H284.392V2.1888C285.786 2.1888 285.786 2.53811 286.832 3.93535C287.877 6.03122 288.574 7.07915 289.62 8.47639C289.968 9.17501 289.968 9.17502 289.968 9.87364V12.6681C289.968 14.4147 289.968 14.4147 287.877 14.764V15.4626H293.802V14.764C291.711 14.764 291.711 14.4147 291.711 12.6681V9.87364C291.711 9.17502 291.711 9.17501 292.059 8.47639C293.105 6.72984 293.802 5.33259 294.847 3.93535C295.544 2.53811 295.893 2.53811 297.287 2.1888V1.49017H296.938ZM276.377 2.1888C279.165 2.1888 281.256 4.63397 281.256 8.8257C281.256 12.6681 279.165 14.764 276.725 14.764C273.937 14.764 271.498 11.9695 271.498 8.12708C271.498 4.28467 274.286 2.1888 276.377 2.1888ZM277.074 1.49017C272.543 1.49017 270.104 4.98328 270.104 8.8257C270.104 13.0174 273.24 15.8119 276.725 15.8119C280.559 15.8119 283.695 13.0174 283.695 8.47639C283.695 3.93535 280.559 1.49017 277.074 1.49017ZM269.755 15.1133V14.4147C268.71 14.4147 268.361 14.0654 267.316 13.0174C266.27 11.9695 263.831 9.17501 262.437 7.42846C263.831 6.03122 265.225 4.63397 266.27 3.93535C267.664 2.88742 268.013 2.53811 269.755 2.53811V1.83949H264.876V2.53811H265.225C266.27 2.53811 266.27 2.88742 265.573 3.58604C264.528 4.63397 263.134 6.03122 262.088 7.42846C261.391 8.12708 261.043 8.12708 260.694 8.47639V4.98328C260.694 3.23673 261.043 2.88742 262.437 2.88742V2.1888H257.209V2.88742C258.952 2.88742 258.952 3.23673 258.952 4.98328V13.0174C258.952 14.764 258.952 15.1133 257.209 15.1133V15.8119H262.785V15.1133C261.043 15.1133 260.694 14.764 260.694 13.0174V9.17501C261.043 9.17501 261.391 9.17502 261.74 9.87364C263.482 11.9695 265.225 14.0654 266.967 15.8119H269.755V15.1133ZM254.421 4.63398C254.421 3.23673 254.073 2.53811 254.073 1.83949C253.376 1.49018 252.33 1.49017 251.285 1.49017C248.497 1.49017 247.103 3.23673 247.103 5.33259C247.103 7.77777 249.194 8.8257 250.588 9.52432C252.33 10.2229 253.376 10.9216 253.376 12.6681C253.376 14.0654 252.33 15.1133 250.936 15.1133C248.845 15.1133 247.8 13.0174 247.451 11.6202H246.754C246.754 12.6681 247.103 14.4147 247.451 14.764C247.8 14.764 247.8 15.1133 248.497 15.1133C248.845 15.1133 249.542 15.4626 250.588 15.4626C253.376 15.4626 255.118 13.7161 255.118 11.6202C255.118 9.17502 253.027 8.12708 251.633 7.42846C249.891 6.72984 248.845 6.03122 248.845 4.28466C248.845 3.23673 249.542 1.83949 251.285 1.83949C253.027 1.83949 253.724 3.23673 254.073 4.63398H254.421ZM245.36 4.98328C245.36 3.93535 245.012 2.1888 245.012 1.14087H244.663C244.315 1.49018 244.315 1.49017 243.618 1.49017H235.254C234.557 1.49017 234.557 1.49018 234.208 1.14087H233.86C233.86 2.1888 233.86 3.58604 233.511 4.98328H234.208C234.557 3.93535 234.557 3.58604 234.905 3.23673C235.254 2.88742 235.602 2.53811 237.345 2.53811H238.739V13.0174C238.739 14.764 238.739 14.764 236.648 15.1133V15.8119H242.572V15.1133C240.481 15.1133 240.481 14.764 240.481 13.0174V2.53811H241.875C243.618 2.53811 243.966 2.53811 244.315 3.23673C244.663 3.58604 244.663 3.93535 245.012 4.98328H245.36ZM232.117 11.9695C231.769 12.6681 231.42 13.3667 231.072 14.0654C230.723 14.764 230.026 14.764 228.283 14.764C227.238 14.764 226.541 14.764 226.192 14.4147C225.844 14.0654 225.844 13.7161 225.844 12.6681V8.8257H227.935C229.678 8.8257 230.026 8.8257 230.026 10.5723H230.723V6.72984H230.026C229.678 8.12708 229.678 8.12708 227.935 8.12708H225.844V3.23673C225.844 2.53811 225.844 2.53811 226.541 2.53811H228.283C229.678 2.53811 230.375 2.53811 230.723 3.23673C231.072 3.58604 231.072 4.28466 231.42 4.98328H232.117C232.117 3.93535 232.117 2.53811 232.117 1.83949H222.707V2.53811C224.45 2.53811 224.45 2.88742 224.45 4.63398V13.0174C224.45 14.764 224.45 14.764 222.359 15.1133V15.8119H232.466C232.814 15.1133 233.163 13.3667 233.163 12.6681L232.117 11.9695ZM213.646 8.47639H214.692C217.131 8.47639 218.525 9.52433 218.525 11.6202C218.525 13.7161 217.131 14.764 215.389 14.764C213.995 14.764 213.646 14.4147 213.646 13.0174V8.47639ZM213.646 7.77777V3.58604C213.646 2.88742 213.646 2.53811 213.995 2.53811C214.343 2.53811 214.692 2.1888 215.04 2.1888C217.131 2.1888 217.828 3.58604 217.828 4.98328C217.828 6.72984 216.783 7.77777 214.692 7.77777H213.646ZM216.783 7.77777C217.828 7.42846 219.571 6.72984 219.571 4.63398C219.571 3.58604 219.222 2.88742 218.525 2.1888C217.828 1.83949 217.131 1.49017 215.389 1.49017H210.161V2.1888C211.904 2.1888 211.904 2.53811 211.904 4.28466V12.6681C211.904 14.4147 211.904 14.4147 209.813 14.764V15.4626H214.343C216.086 15.4626 217.48 15.1133 218.525 14.764C219.919 14.0654 220.616 13.0174 220.616 11.6202C220.616 9.17502 218.874 8.12708 216.783 7.77777ZM208.767 1.49017H203.888V2.1888C205.282 2.1888 205.979 2.53811 205.979 3.23673C205.979 3.93535 205.979 4.63397 205.979 6.72984V8.12708C205.979 11.6202 204.934 14.0654 202.146 14.0654C199.706 14.0654 198.312 11.9695 198.312 8.8257V3.93535C198.312 2.1888 198.312 1.83949 200.055 1.83949V1.14087H194.827V1.83949C196.57 1.83949 196.57 2.1888 196.57 3.93535V9.17501C196.57 11.6202 197.267 13.3667 198.312 14.0654C199.358 14.764 200.403 15.1133 201.797 15.1133C203.191 15.1133 204.585 14.764 205.631 13.716C206.676 12.3188 207.025 10.5723 207.025 8.12708V6.38053C207.025 4.28467 207.025 3.58604 207.025 2.88742C207.025 1.83949 207.722 1.83949 208.767 1.49017ZM185.766 8.47639V3.23673C185.766 2.53811 185.766 2.53811 186.115 2.1888C186.115 2.1888 186.463 1.83949 187.16 1.83949C188.554 1.83949 190.297 2.53811 190.297 4.98328C190.297 6.03121 189.948 7.07915 189.251 7.42846C188.554 7.77777 188.206 8.12708 187.16 8.12708H185.766V8.47639ZM194.827 14.764C194.479 14.764 193.782 14.4147 193.433 13.716C193.085 13.0174 192.388 12.6681 191.691 11.6202C190.994 10.5723 190.297 9.17501 189.948 8.47639C191.342 7.77777 192.736 6.72984 192.736 4.98328C192.736 3.58604 192.039 2.88742 191.342 2.1888C190.645 1.83949 189.6 1.49017 187.857 1.49017H182.281V2.1888C184.024 2.1888 184.024 2.53811 184.024 4.28466V12.6681C184.024 14.4147 184.024 14.4147 182.281 14.764V15.4626H187.857V14.764C186.115 14.4147 185.766 14.4147 185.766 12.6681V9.17501H186.463C187.509 9.17501 187.857 9.52433 188.206 9.87364C188.903 10.9216 189.6 12.3188 190.297 13.3667C191.342 14.764 192.039 15.1133 193.782 15.1133C194.13 15.1133 194.13 15.1133 194.479 15.1133L194.827 14.764Z" fill="white"/>
<path d="M179.844 10.9214C179.495 7.4283 179.147 2.88726 179.147 0.0927734H177.753C176.707 1.14071 176.359 1.49001 174.616 1.49001H150.918C149.176 1.49001 148.479 1.49002 147.782 0.0927734H146.736C146.736 3.23657 146.388 7.4283 146.039 10.9214H147.782C148.479 8.12692 148.827 6.38036 149.873 5.33243C150.57 3.93519 151.964 3.58588 156.843 3.58588H160.676V33.2773C160.676 38.1676 160.328 38.5169 154.752 38.8662V40.6128H171.828V38.8662C166.252 38.5169 165.555 37.8183 165.555 33.2773V3.58588H169.737C174.268 3.58588 175.313 3.93519 176.359 5.68174C177.056 6.72968 177.753 8.12692 178.101 10.9214H179.844Z" fill="#D41367"/>
<path d="M510.082 68.0581C509.721 68.7812 509.36 69.5044 509 70.2275C508.639 70.9506 507.917 70.9506 506.114 70.9506C505.032 70.9506 504.31 70.9506 503.949 70.5891C503.589 70.2275 503.589 69.8659 503.589 68.7813V64.804H505.753C507.557 64.804 507.917 64.804 507.917 66.6119H508.639V62.2731H507.917C507.557 63.7193 507.557 63.7194 505.753 63.7194H503.228V58.6574C503.228 57.9343 503.228 57.9343 503.949 57.9343H505.753C507.196 57.9343 507.917 57.9343 508.278 58.6574C508.639 59.019 508.639 59.7421 509 60.4653H509.721C509.721 59.3806 509.721 57.9343 509.721 57.2112H499.621V57.9343C501.424 57.9343 501.424 58.2959 501.424 60.1037V68.7813C501.424 70.5891 501.424 70.5891 499.26 70.9506V71.6738H509.721C510.082 70.9506 510.443 69.1428 510.443 68.4197L510.082 68.0581ZM497.456 60.8268C497.456 59.3806 497.096 58.6574 497.096 57.9343C496.374 57.5727 495.292 57.5728 494.21 57.5728C491.324 57.5728 489.881 59.3806 489.881 61.55C489.881 64.0809 492.045 65.1656 493.488 65.8887C495.292 66.6119 496.374 67.335 496.374 69.1428C496.374 70.5891 495.292 71.6738 493.849 71.6738C491.685 71.6738 490.602 69.5044 490.242 68.0581H489.52C489.52 69.1428 489.881 70.9506 490.242 71.3122C490.602 71.3122 490.602 71.6738 491.324 71.6738C491.685 71.6738 492.406 72.0353 493.488 72.0353C496.374 72.0353 498.178 70.2275 498.178 68.0581C498.178 65.5272 496.013 64.4425 494.57 63.7194C492.767 62.9962 491.685 62.2731 491.685 60.4653C491.685 59.3806 492.406 57.9343 494.21 57.9343C496.013 57.9343 496.735 59.3806 497.096 60.8268H497.456ZM488.438 57.5728H483.388V58.2959C484.831 58.2959 485.552 58.6574 485.552 59.3806C485.552 60.1037 485.552 60.8268 485.552 62.9962V64.4425C485.552 68.0581 484.47 70.5891 481.584 70.5891C479.059 70.5891 477.616 68.4197 477.616 65.1656V60.1037C477.616 58.2959 477.616 57.9343 479.42 57.9343V57.2112H474.009V57.9343C475.813 57.9343 475.813 58.2959 475.813 60.1037V65.8887C475.813 68.4197 476.534 70.2275 477.616 70.9506C478.698 71.6738 479.781 72.0353 481.224 72.0353C482.666 72.0353 484.109 71.6738 485.192 70.5891C486.274 69.1428 486.634 67.335 486.634 64.804V62.9962C486.634 60.8268 486.634 60.1037 486.634 59.3806C486.634 58.2959 487.356 58.2959 488.438 57.9343V57.5728ZM464.63 57.9343C467.516 57.9343 469.68 60.4653 469.68 64.804C469.68 68.7813 467.516 70.9506 464.991 70.9506C462.105 70.9506 459.58 68.0581 459.58 64.0809C459.58 60.1037 462.466 57.9343 464.63 57.9343ZM465.352 57.2112C460.662 57.2112 458.137 60.8268 458.137 64.804C458.137 69.1428 461.383 72.0353 464.991 72.0353C468.959 72.0353 472.205 69.1428 472.205 64.4425C472.205 60.1037 468.959 57.2112 465.352 57.2112ZM456.333 57.5728H450.562V58.2959C452.365 58.2959 452.365 58.6574 452.365 60.4653V64.0809H445.151V60.4653C445.151 58.6574 445.151 58.6575 446.954 58.2959V57.5728H441.543V58.2959C443.347 58.2959 443.347 58.6574 443.347 60.4653V69.1428C443.347 70.9506 443.347 70.9506 441.543 71.3122V72.0353H447.315V71.3122C445.511 71.3122 445.511 70.9506 445.511 69.1428V64.804H452.726V69.1428C452.726 70.9506 452.726 70.9506 450.562 71.3122V72.0353H456.333V71.3122C454.53 71.3122 454.53 70.9506 454.53 69.1428V60.4653C454.53 58.6574 454.53 58.6575 456.333 58.2959V57.5728Z" fill="white"/>
<path d="M544.712 34.4328C544.712 33.3481 544.351 31.9018 544.351 31.1787H534.972V31.9018C536.776 31.9018 536.776 32.2634 536.776 34.0712V42.7488C536.776 44.5566 536.776 44.9182 534.972 44.9182V45.6413H540.744V44.9182C538.94 44.9182 538.579 44.5566 538.579 42.7488V38.7716H540.744C542.547 38.7716 542.908 39.1331 542.908 40.5794H543.629V36.2406H542.908C542.547 37.6869 542.547 37.6869 540.744 37.6869H538.579V32.625C538.579 31.9018 538.579 31.9018 539.301 31.9018H541.104C542.908 31.9018 543.269 32.2634 543.629 32.625C543.99 32.9865 543.99 33.3481 544.351 34.4328H544.712ZM533.168 34.4328C533.168 33.3481 532.808 31.9018 532.808 31.1787H523.429V31.9018C525.232 31.9018 525.232 32.2634 525.232 34.0712V42.7488C525.232 44.5566 525.232 44.9182 523.429 44.9182V45.6413H529.2V44.9182C527.397 44.9182 527.036 44.5566 527.036 42.7488V38.7716H529.2C531.004 38.7716 531.365 39.1331 531.365 40.5794H532.086V36.2406H531.365C531.004 37.6869 531.004 37.6869 529.2 37.6869H527.036V32.625C527.036 31.9018 527.036 31.9018 527.757 31.9018H529.561C531.365 31.9018 531.725 32.2634 532.086 32.625C532.447 32.9865 532.447 33.3481 532.808 34.4328H533.168ZM514.41 31.5403C517.296 31.5403 519.821 34.0712 519.821 38.41C519.821 42.3872 517.657 44.5566 515.132 44.5566C512.246 44.5566 509.721 41.6641 509.721 37.6869C509.721 33.7097 511.885 31.5403 514.41 31.5403ZM514.771 30.8171C510.082 30.8171 507.557 34.4328 507.557 38.41C507.557 42.7488 510.803 45.6413 514.41 45.6413C518.378 45.6413 521.625 42.7488 521.625 38.0484C521.625 33.7097 518.378 30.8171 514.771 30.8171ZM506.114 31.1787H501.064V31.9018C502.506 31.9018 503.228 32.2634 503.228 33.3481C503.228 34.0712 503.228 34.7944 503.228 36.9637V42.3872L494.21 31.5403H490.963V32.2634C492.045 32.2634 492.406 32.625 492.767 32.9865C493.128 33.3481 493.128 33.7097 493.128 35.1559V39.8563C493.128 41.6641 493.128 42.7488 493.128 43.4719C493.128 44.5566 492.406 44.9182 491.324 44.9182V45.6413H496.374V44.9182C494.931 44.9182 494.57 44.5566 494.21 43.4719C494.21 42.7488 494.21 41.6641 494.21 39.8563V34.4328L503.589 45.6413H504.31V36.9637C504.31 34.7944 504.31 34.0712 504.31 33.3481C504.31 32.2634 505.032 32.2634 506.114 31.9018V31.1787ZM484.831 39.1331H480.863C481.584 37.3253 482.306 35.5175 483.027 33.7097L484.831 39.1331ZM490.242 45.2797V44.5566C488.799 44.5566 488.438 44.195 487.717 42.3872C486.274 38.7716 484.831 34.4328 483.388 30.8171L482.666 31.1787L478.338 42.3872C477.616 44.195 477.255 44.5566 475.813 44.5566V45.2797H480.502V44.5566C478.698 44.5566 478.698 44.195 479.059 42.7488C479.42 41.6641 479.781 40.9409 480.141 39.8563H484.831C485.192 41.3025 485.913 42.3872 485.913 43.1103C486.274 43.8335 485.913 44.195 484.47 44.195V44.9182H490.242V45.2797ZM475.091 45.2797V44.5566C473.288 44.5566 473.288 44.195 472.927 42.0256L472.566 34.0712C472.566 31.9018 472.566 31.9018 474.73 31.5403V30.8171H471.123L466.073 41.6641L461.023 30.8171H457.416V31.5403C459.219 31.9018 459.58 31.9018 459.219 34.7944L458.858 39.1331C458.858 41.3025 458.498 42.3872 458.498 43.1103C458.498 44.195 457.776 44.195 456.694 44.5566V45.2797H461.744V44.5566C460.301 44.5566 459.941 44.195 459.58 43.1103C459.58 42.3872 459.58 41.3025 459.58 39.4947L459.941 33.3481L464.63 44.9182H464.991L470.402 32.9865V41.6641C470.402 43.8335 470.402 44.195 468.598 44.195V44.9182H475.091V45.2797ZM448.397 31.5403C451.283 31.5403 453.808 34.0712 453.808 38.41C453.808 42.3872 451.644 44.5566 449.119 44.5566C446.233 44.5566 443.708 41.6641 443.708 37.6869C443.708 33.7097 445.872 31.5403 448.397 31.5403ZM448.758 30.8171C444.069 30.8171 441.543 34.4328 441.543 38.41C441.543 42.7488 444.79 45.6413 448.397 45.6413C452.365 45.6413 455.612 42.7488 455.612 38.0484C455.973 33.7097 452.365 30.8171 448.758 30.8171Z" fill="white"/>
<path d="M415.209 51.7879V36.2406C415.209 34.4328 415.57 33.7097 415.93 33.3481C416.291 32.9865 417.373 32.625 419.177 32.625C423.866 32.625 428.195 35.1559 428.195 42.0256C428.195 45.2797 427.113 47.8107 424.949 49.6185C423.506 51.0647 421.341 51.4263 418.095 51.4263H415.209V51.7879ZM441.181 70.5892C439.738 70.2277 438.296 69.5045 436.853 67.6967C435.41 66.2505 433.967 64.4426 431.802 61.1886C429.999 58.296 427.474 54.3188 426.392 52.1494C431.081 49.9801 434.327 46.726 434.327 41.3025C434.327 37.6869 432.885 34.7944 429.999 32.9865C427.834 31.5403 424.588 30.8171 420.259 30.8171H404.748V32.625C409.437 32.9865 410.159 33.3481 410.159 38.41V63.3579C410.159 68.7814 409.798 69.143 404.387 69.5045V71.3124H420.62V69.5045C415.57 69.143 415.209 68.7814 415.209 63.3579V53.5957H417.373C420.62 53.5957 421.702 54.3188 422.784 56.1266C424.588 59.0192 426.752 62.9964 428.917 66.2504C431.802 70.2277 434.327 71.6739 439.017 72.0355C439.738 72.0355 440.46 72.0355 441.181 72.0355V70.5892Z" fill="#D41367"/>
<path d="M716.862 95.2327C716.502 95.9558 716.141 96.6789 715.78 97.4021C715.42 98.1252 714.698 98.1252 712.894 98.1252C711.812 98.1252 711.091 98.1252 710.73 97.7637C710.369 97.4021 710.369 97.0405 710.369 95.9558V91.9786H712.534C714.337 91.9786 714.698 91.9786 714.698 93.7864H715.419V89.4477H714.698C714.337 90.8939 714.337 90.8939 712.534 90.8939H710.369V85.832C710.369 85.1089 710.369 85.1089 711.091 85.1089H712.894C714.337 85.1089 715.059 85.1089 715.419 85.832C715.78 86.1936 715.78 86.9167 716.141 87.6398H716.862C716.862 86.5551 716.862 85.1089 716.862 84.3857H707.123V85.1089C708.926 85.1089 708.926 85.4704 708.926 87.2783V95.9558C708.926 97.7637 708.926 97.7636 706.762 98.1252V98.8483H717.223C717.584 98.1252 717.945 96.3174 717.945 95.5942L716.862 95.2327ZM704.598 88.0014C704.598 86.5551 704.237 85.832 704.237 85.1089C703.516 84.7473 702.433 84.7473 701.351 84.7473C698.465 84.7473 697.022 86.5551 697.022 88.7245C697.022 91.2555 699.187 92.3402 700.63 93.0633C702.433 93.7864 703.516 94.5096 703.516 96.3174C703.516 97.7636 702.433 98.8483 700.99 98.8483C698.826 98.8483 697.744 96.6789 697.383 95.2327H696.662C696.662 96.3174 697.022 98.1252 697.383 98.4868C697.744 98.4868 697.744 98.8483 698.465 98.8483C698.826 98.8483 699.548 99.2099 700.63 99.2099C703.516 99.2099 705.319 97.4021 705.319 95.2327C705.319 92.7017 703.155 91.617 701.712 90.8939C699.908 90.1708 698.826 89.4477 698.826 87.6398C698.826 86.5551 699.547 85.1089 701.351 85.1089C703.155 85.1089 703.876 86.5551 704.237 88.0014H704.598ZM695.219 84.7473H690.169V85.4704C691.611 85.4704 692.333 85.832 692.333 86.5551C692.333 87.2783 692.333 88.0014 692.333 90.1708V91.617C692.333 95.2327 691.251 97.7637 688.365 97.7637C685.84 97.7637 684.397 95.5943 684.397 92.3402V87.2783C684.397 85.4704 684.397 85.1089 686.201 85.1089V84.3857H680.79V85.1089C682.593 85.1089 682.593 85.4704 682.593 87.2783V92.7017C682.593 95.2327 683.315 97.0405 684.397 97.7637C685.479 98.4868 686.561 98.8483 688.004 98.8483C689.447 98.8483 690.89 98.4868 691.972 97.4021C693.054 95.9558 693.415 94.148 693.415 91.617V89.8092C693.415 87.6398 693.415 86.9167 693.415 86.1936C693.415 85.1089 694.137 85.1089 695.219 84.7473ZM671.411 85.4704C674.297 85.4704 676.461 88.0014 676.461 92.3402C676.461 96.3174 674.297 98.4868 671.772 98.4868C668.886 98.4868 666.361 95.5942 666.361 91.617C666.361 87.6398 669.246 85.4704 671.411 85.4704ZM672.132 84.3857C667.443 84.3857 664.918 88.0014 664.918 91.9786C664.918 96.3174 668.164 99.2099 671.772 99.2099C675.74 99.2099 678.986 96.3174 678.986 91.617C678.986 87.2783 675.739 84.3857 672.132 84.3857ZM663.114 84.7473H657.342V85.4704C659.146 85.4704 659.146 85.832 659.146 87.6398V91.2555H651.931V87.6398C651.931 85.832 651.931 85.832 653.735 85.4704V84.7473H648.324V85.4704C650.128 85.4704 650.128 85.832 650.128 87.6398V96.3174C650.128 98.1252 650.128 98.1252 648.324 98.4868V99.2099H654.096V98.4868C652.292 98.4868 652.292 98.1252 652.292 96.3174V91.9786H659.507V96.3174C659.507 98.1252 659.507 98.1252 657.342 98.4868V99.2099H663.114V98.4868C661.31 98.4868 661.31 98.1252 661.31 96.3174V87.6398C661.31 85.832 661.31 85.832 663.114 85.4704V84.7473Z" fill="white"/>
<path d="M762.673 58.3535H757.984V59.0766C759.787 59.0766 759.787 59.4382 759.066 60.5229C758.344 61.9691 757.262 64.1385 756.541 65.2232C755.459 63.777 754.376 61.9692 753.655 60.1613C753.294 59.4382 753.294 59.0766 754.737 59.0766V58.3535H749.687V59.0766C751.13 59.0766 751.13 59.4382 752.212 60.8844C753.294 63.0538 754.016 64.1385 755.098 65.5848C755.459 66.3079 755.459 66.3079 755.459 67.0311V69.9236C755.459 71.7314 755.459 71.7314 753.294 72.0929V72.8161H759.427V72.0929C757.262 72.0929 757.262 71.7314 757.262 69.9236V67.0311C757.262 66.3079 757.262 66.3079 757.623 65.5848C758.705 63.777 759.427 62.3307 760.509 60.8844C761.23 59.4382 761.591 59.4382 763.034 59.0766V58.3535H762.673ZM749.326 72.4545V71.7314C748.244 71.7314 747.883 71.3698 746.801 70.2851C745.719 69.2004 743.194 66.3079 741.751 64.5001C743.194 63.0538 744.637 61.6076 745.719 60.8844C747.162 59.7998 747.523 59.4382 749.326 59.4382V58.7151H744.276V59.4382H744.637C745.719 59.4382 745.719 59.7998 744.997 60.5229C743.915 61.6076 742.472 63.0538 741.39 64.5001C740.669 65.2232 740.308 65.2232 739.947 65.5848V61.9692C739.947 60.1613 740.308 59.7998 741.751 59.7998V59.0766H736.34V59.7998C738.144 59.7998 738.144 60.1613 738.144 61.9692V70.2851C738.144 72.0929 738.144 72.4545 736.34 72.4545V73.1777H742.112V72.4545C740.308 72.4545 739.947 72.0929 739.947 70.2851V66.3079C740.308 66.3079 740.669 66.3079 741.029 67.0311C742.833 69.2005 744.637 71.3698 746.44 73.1777H749.326V72.4545ZM734.536 58.3535H729.486V59.0766C730.929 59.0766 731.65 59.4382 731.65 60.1613C731.65 60.8845 731.65 61.6076 731.65 63.777V65.5848C731.65 69.2004 730.568 71.7314 727.683 71.7314C725.157 71.7314 723.715 69.562 723.715 66.3079V61.246C723.715 59.4382 723.715 59.0766 725.518 59.0766V58.3535H720.107V59.0766C721.911 59.0766 721.911 59.4382 721.911 61.246V66.6695C721.911 69.2004 722.632 70.6467 723.715 71.7314C724.797 72.4545 725.879 72.8161 727.322 72.8161C728.765 72.8161 730.208 72.4545 731.29 71.3698C732.372 69.9236 732.733 68.1158 732.733 65.5848V63.777C732.733 61.6076 732.733 60.8845 732.733 60.1613C732.733 59.0766 733.454 59.0766 734.536 58.7151V58.3535ZM710.728 65.5848V60.1613C710.728 59.4382 710.728 59.4382 711.089 59.0766C711.089 59.0766 711.45 58.7151 712.171 58.7151C713.614 58.7151 715.418 59.4382 715.418 61.9692C715.418 63.0538 715.057 64.1385 714.336 64.5001C713.614 64.8617 713.253 65.2232 712.171 65.2232H710.728V65.5848ZM719.747 72.0929C719.386 72.0929 718.664 71.7314 718.304 71.0083C717.943 70.2851 717.221 69.9236 716.5 68.8389C715.779 67.7542 715.057 66.3079 714.696 65.5848C716.139 64.8617 717.582 63.777 717.582 61.9692C717.582 60.5229 716.861 59.7998 716.139 59.0766C715.418 58.7151 714.336 58.3535 712.532 58.3535H707.121V59.0766C708.925 59.0766 708.925 59.4382 708.925 61.246V69.9236C708.925 71.7314 708.925 71.7314 707.121 72.0929V72.8161H712.893V72.0929C711.089 72.0929 711.089 71.7314 711.089 69.9236V66.3079H711.81C712.893 66.3079 713.253 66.6695 713.614 67.0311C714.336 68.1158 715.057 69.562 715.778 70.6467C716.861 72.093 717.582 72.4545 719.386 72.4545C719.746 72.4545 719.747 72.4545 720.107 72.4545L719.747 72.0929ZM698.103 58.7151C700.989 58.7151 703.514 61.246 703.514 65.5848C703.514 69.562 701.349 71.7314 698.824 71.7314C695.939 71.7314 693.413 68.8389 693.413 64.8617C693.413 60.8844 695.578 58.7151 698.103 58.7151ZM698.464 57.9919C693.774 57.9919 691.249 61.6076 691.249 65.5848C691.249 69.9236 694.496 72.8161 698.103 72.8161C702.071 72.8161 705.317 69.9236 705.317 65.2232C705.678 60.8845 702.071 57.9919 698.464 57.9919ZM689.806 65.9464H684.395V66.6695C686.56 66.6695 686.56 67.031 686.56 68.4773V70.2851C686.56 71.3698 686.199 71.3698 685.838 71.7314C685.477 72.093 684.756 72.0929 684.034 72.0929C679.706 72.0929 677.902 68.4773 677.902 65.2232C677.902 61.246 680.427 58.7151 683.674 58.7151C685.838 58.7151 687.281 59.4382 688.003 61.9692H688.724C688.724 60.5229 688.363 59.4382 688.363 58.7151C687.642 58.7151 685.838 57.9919 684.034 57.9919C679.706 57.9919 675.738 60.5229 675.738 65.5848C675.738 69.9236 678.984 72.8161 683.674 72.8161C685.477 72.8161 687.281 72.4545 688.363 72.0929C688.363 71.3698 688.363 70.6467 688.363 69.9236V68.1157C688.363 66.6695 688.363 66.6695 689.806 66.6695V65.9464ZM674.295 68.8389C673.934 69.9236 673.573 70.6467 673.213 71.0083C672.852 71.7314 672.13 71.7314 670.688 71.7314C669.605 71.7314 668.884 71.7314 668.523 71.3698C668.162 71.0083 668.162 70.6467 668.162 69.562V60.8844C668.162 59.0766 668.523 59.0766 669.966 58.7151V57.9919H664.194V58.7151C665.998 58.7151 665.998 59.0766 665.998 60.8844V69.562C665.998 71.3698 665.998 71.7314 663.834 71.7314V72.4545H673.573C673.934 71.7314 674.295 69.562 674.295 69.2004V68.8389ZM655.176 58.7151C658.062 58.7151 660.587 61.246 660.587 65.5848C660.587 69.562 658.423 71.7314 655.898 71.7314C653.012 71.7314 650.487 68.8389 650.487 64.8617C650.487 60.8844 653.012 58.7151 655.176 58.7151ZM655.898 57.9919C651.208 57.9919 648.683 61.6076 648.683 65.5848C648.683 69.9236 651.93 72.8161 655.537 72.8161C659.505 72.8161 662.752 69.9236 662.752 65.2232C662.752 60.8845 659.505 57.9919 655.898 57.9919Z" fill="white"/>
<path d="M615.136 64.8612C615.136 62.3302 615.496 61.6071 615.857 61.2455C616.579 60.884 618.022 60.5224 620.547 60.5224C624.875 60.5224 628.483 61.2455 631.008 63.0533C636.058 65.9459 638.222 71.7309 638.222 77.8775C638.222 88.0013 632.811 96.6789 621.268 96.6789C616.579 96.6789 614.775 95.5942 614.775 90.8938V64.8612H615.136ZM604.314 58.353V60.1608C609.003 60.5224 609.725 60.884 609.725 66.3074V91.2554C609.725 96.6789 609.364 97.0404 603.953 97.402V99.2098H618.743C626.318 99.2098 632.451 97.7636 637.14 94.1479C641.83 90.5323 644.715 85.1088 644.715 77.5159C644.715 71.7309 642.551 67.0306 639.304 64.1381C635.336 60.5224 629.565 58.7146 621.629 58.7146H604.314V58.353Z" fill="#D41367"/>
<path d="M631.897 607.916C631.548 608.615 631.2 609.314 630.851 610.012C630.503 610.711 629.806 610.711 628.063 610.711C627.018 610.711 626.321 610.711 625.972 610.361C625.624 610.012 625.624 609.663 625.624 608.615V604.773H627.715C629.457 604.773 629.806 604.773 629.806 606.519H630.503V602.677H629.806C629.457 604.074 629.457 604.074 627.715 604.074H625.624V599.184C625.624 598.485 625.624 598.485 626.321 598.485H628.063C629.457 598.485 630.154 598.485 630.503 599.184C630.851 599.533 630.851 600.231 631.2 600.93H631.897C631.897 599.882 631.897 598.485 631.897 597.786H622.487V598.485C624.23 598.485 624.23 598.834 624.23 600.581V608.964C624.23 610.711 624.23 610.711 622.139 611.06V611.759H632.245C632.594 611.06 632.942 609.314 632.942 608.615L631.897 607.916ZM620.048 600.93C620.048 599.533 619.699 598.834 619.699 598.136C619.002 597.786 617.957 597.786 616.911 597.786C614.123 597.786 612.729 599.533 612.729 601.629C612.729 604.074 614.82 605.122 616.214 605.82C617.957 606.519 619.002 607.218 619.002 608.964C619.002 610.361 617.957 611.409 616.563 611.409C614.472 611.409 613.426 609.314 613.078 607.916H612.381C612.381 608.964 612.729 610.711 613.078 611.06C613.426 611.06 613.426 611.409 614.123 611.409C614.472 611.409 615.169 611.759 616.214 611.759C619.002 611.759 620.745 610.012 620.745 607.916C620.745 605.471 618.654 604.423 617.26 603.725C615.517 603.026 614.472 602.327 614.472 600.581C614.472 599.533 615.169 598.136 616.911 598.136C618.654 598.136 619.351 599.533 619.699 600.93H620.048ZM610.987 597.786H606.108V598.485C607.502 598.485 608.199 598.834 608.199 599.533C608.199 600.232 608.199 600.93 608.199 603.026V604.423C608.199 607.916 607.153 610.361 604.365 610.361C601.926 610.361 600.532 608.266 600.532 605.122V600.232C600.532 598.485 600.532 598.136 602.274 598.136V597.437H597.047V598.136C598.789 598.136 598.789 598.485 598.789 600.232V605.471C598.789 607.916 599.486 609.663 600.532 610.361C601.577 611.06 602.623 611.409 604.017 611.409C605.411 611.409 606.805 611.06 607.85 610.012C608.896 608.615 609.244 606.868 609.244 604.423V602.677C609.244 600.581 609.244 599.882 609.244 599.184C609.244 598.136 609.941 598.136 610.987 597.786ZM587.986 598.136C590.774 598.136 592.865 600.581 592.865 604.773C592.865 608.964 590.774 610.711 588.334 610.711C585.546 610.711 583.107 607.916 583.107 604.074C583.107 600.231 585.895 598.136 587.986 598.136ZM588.683 597.437C584.152 597.437 581.713 600.93 581.713 604.773C581.713 608.964 584.849 611.759 588.334 611.759C592.168 611.759 595.304 608.964 595.304 604.423C595.304 600.231 592.168 597.437 588.683 597.437ZM579.97 597.786H574.394V598.485C576.137 598.485 576.137 598.834 576.137 600.581V604.074H569.167V600.581C569.167 598.834 569.167 598.834 570.909 598.485V597.786H565.682V598.485C567.424 598.485 567.424 598.834 567.424 600.581V608.964C567.424 610.711 567.424 610.711 565.682 611.06V611.759H571.258V611.06C569.515 611.06 569.515 610.711 569.515 608.964V604.423H576.485V608.615C576.485 610.361 576.485 610.361 574.394 610.711V611.409H579.97V610.711C578.228 610.711 578.228 610.361 578.228 608.615V600.232C578.228 598.485 578.228 598.485 579.97 598.136V597.786Z" fill="white"/>
<path d="M646.185 572.287H641.306V572.986C642.7 572.986 643.397 573.335 643.397 574.383C643.397 575.082 643.397 575.78 643.397 577.876V583.116L634.685 572.636H631.548V573.335C632.594 573.335 632.942 573.684 633.291 574.034C633.639 574.383 633.639 574.732 633.639 576.13V580.671C633.639 582.417 633.639 583.465 633.639 584.164C633.639 585.212 632.942 585.561 631.897 585.561V586.26H636.776V585.561C635.382 585.561 635.033 585.212 634.685 584.164C634.685 583.465 634.685 582.417 634.685 580.671V575.431L643.746 586.26H644.443V577.876C644.443 575.78 644.443 575.082 644.443 574.383C644.443 573.335 645.14 573.335 646.185 572.986V572.287ZM630.503 585.91V585.212C628.76 585.212 628.76 584.862 628.76 583.116V574.732C628.76 572.986 628.76 572.986 630.503 572.636V571.938H624.927V572.636C626.669 572.636 626.669 572.986 626.669 574.732V583.116C626.669 584.862 626.669 584.862 624.927 585.212V585.91H630.503ZM623.184 582.068C622.836 583.116 622.487 583.814 622.139 584.164C621.442 584.862 620.745 584.862 618.305 584.862C616.911 584.862 615.517 584.862 614.82 584.862C617.608 580.671 620.396 576.479 623.533 572.287V571.938H615.169C614.472 571.938 614.472 571.938 614.123 571.239H613.775C613.775 572.287 613.775 573.684 613.426 575.082H614.123C614.472 574.034 614.472 573.684 614.82 573.335C615.169 572.637 615.517 572.636 617.608 572.636H621.093C618.305 576.828 615.169 581.02 612.381 585.212V585.561H623.184C623.533 584.862 623.881 582.767 623.881 582.068H623.184ZM610.987 575.431C610.987 574.383 610.638 572.637 610.638 571.589H610.29C609.941 571.938 609.941 572.287 609.244 572.287H600.88C600.183 572.287 600.183 572.287 599.835 571.589H599.486C599.486 572.637 599.486 574.034 599.138 575.431H599.835C600.183 574.383 600.183 574.034 600.532 573.684C600.88 573.335 601.229 572.986 602.971 572.986H604.365V583.465C604.365 585.212 604.365 585.212 602.274 585.561V586.26H608.199V585.561C606.108 585.561 606.108 585.212 606.108 583.465V572.986H607.502C609.244 572.986 609.593 572.986 609.941 573.684C610.29 574.034 610.29 574.383 610.638 575.431H610.987ZM597.744 585.91V585.212C596.001 585.212 596.001 584.862 596.001 583.116V574.732C596.001 572.986 596.001 572.986 597.744 572.636V571.938H592.168V572.636C593.91 572.636 593.91 572.986 593.91 574.732V583.116C593.91 584.862 593.91 584.862 592.168 585.212V585.91H597.744ZM590.425 582.417C590.077 583.465 589.728 584.164 589.38 584.513C589.031 585.212 588.334 585.212 586.94 585.212C585.895 585.212 585.198 585.212 584.849 584.862C584.501 584.513 584.501 584.164 584.501 583.116V574.732C584.501 572.986 584.849 572.986 586.243 572.636V571.938H580.667V572.636C582.41 572.636 582.41 572.986 582.41 574.732V583.116C582.41 584.862 582.41 585.212 580.319 585.212V585.91H589.728C590.077 585.212 590.425 583.116 590.425 582.766V582.417ZM572.303 572.636C575.091 572.636 577.531 575.082 577.531 579.273C577.531 583.465 575.44 585.212 573 585.212C570.212 585.212 567.773 582.417 567.773 578.575C567.773 574.732 570.212 572.636 572.303 572.636ZM572.652 571.938C568.121 571.938 565.682 575.431 565.682 579.273C565.682 583.465 568.818 586.26 572.303 586.26C576.137 586.26 579.273 583.465 579.273 578.924C579.622 574.732 576.485 571.938 572.652 571.938Z" fill="white"/>
<path d="M563.59 593.246H548.256V594.992C554.18 595.342 554.529 595.691 554.529 600.232V605.472C554.529 607.917 553.832 608.615 552.438 609.314C551.044 610.013 549.301 610.362 547.21 610.362C535.71 610.362 530.482 600.232 530.482 591.499C530.482 580.321 537.104 573.684 546.513 573.684C552.438 573.684 556.62 575.78 558.362 583.116L560.105 582.767C559.756 578.924 559.408 575.431 559.059 573.335C556.968 572.986 552.438 571.589 547.559 571.589C535.71 571.589 524.558 578.225 524.558 592.198C524.558 604.074 533.27 612.458 546.513 612.458C551.392 612.458 556.271 611.061 560.105 610.362C559.756 608.615 559.756 606.869 559.756 604.773V599.533C559.756 596.04 560.105 595.691 563.59 595.342V593.246Z" fill="#D41367"/>
<path d="M327.277 608.652C326.922 609.362 326.568 610.073 326.213 610.783C325.859 611.494 325.15 611.494 323.377 611.494C322.314 611.494 321.605 611.494 321.25 611.139C320.896 610.783 320.896 610.428 320.896 609.362V605.454H323.023C324.795 605.454 325.15 605.454 325.15 607.23H325.859V603.322H325.15C324.795 604.743 324.795 604.743 323.023 604.743H320.896V599.768C320.896 599.058 320.896 599.058 321.605 599.058H323.377C324.795 599.058 325.504 599.058 325.859 599.768C326.213 600.124 326.213 600.834 326.568 601.545H327.277C327.277 600.479 327.277 599.058 327.277 598.347H317.705V599.058C319.478 599.058 319.478 599.413 319.478 601.19V609.717C319.478 611.494 319.478 611.494 317.351 611.849V612.56H327.631C327.986 611.849 328.34 610.073 328.34 609.362L327.277 608.652ZM314.869 601.19C314.869 599.768 314.515 599.058 314.515 598.347C313.806 597.992 312.742 597.992 311.679 597.992C308.843 597.992 307.425 599.768 307.425 601.9C307.425 604.388 309.552 605.454 310.97 606.164C312.742 606.875 313.806 607.586 313.806 609.362C313.806 610.783 312.742 611.849 311.324 611.849C309.197 611.849 308.134 609.717 307.779 608.296H307.07C307.07 609.362 307.425 611.139 307.779 611.494C308.134 611.494 308.134 611.849 308.843 611.849C309.197 611.849 309.906 612.205 310.97 612.205C313.806 612.205 315.578 610.428 315.578 608.296C315.578 605.809 313.451 604.743 312.033 604.032C310.261 603.322 309.197 602.611 309.197 600.834C309.197 599.768 309.906 598.347 311.679 598.347C313.451 598.347 314.16 599.768 314.515 601.19H314.869ZM306.007 598.347H301.044V599.058C302.462 599.058 303.171 599.413 303.171 600.124C303.171 600.834 303.171 601.545 303.171 603.677V605.098C303.171 608.652 302.107 611.139 299.271 611.139C296.789 611.139 295.371 609.007 295.371 605.809V600.834C295.371 599.058 295.371 598.702 297.144 598.702V597.992H291.826V598.702C293.599 598.702 293.599 599.058 293.599 600.834V606.164C293.599 608.651 294.308 610.428 295.371 611.139C296.435 611.849 297.498 612.205 298.916 612.205C300.334 612.205 301.753 611.849 302.816 610.783C303.88 609.362 304.234 607.586 304.234 605.098V603.322C304.234 601.19 304.234 600.479 304.234 599.768C304.234 598.702 304.943 598.702 306.007 598.347ZM282.609 598.702C285.445 598.702 287.572 601.19 287.572 605.454C287.572 609.717 285.445 611.494 282.964 611.494C280.128 611.494 277.646 608.652 277.646 604.743C277.646 600.834 280.482 598.702 282.609 598.702ZM283.318 597.992C278.71 597.992 276.228 601.545 276.228 605.454C276.228 609.717 279.419 612.56 282.964 612.56C286.863 612.56 290.054 609.718 290.054 605.098C290.054 600.479 286.863 597.992 283.318 597.992ZM274.456 598.347H268.784V599.058C270.556 599.058 270.556 599.413 270.556 601.19V604.743H263.466V601.19C263.466 599.413 263.466 599.413 265.238 599.058V598.347H259.566V599.058C261.339 599.058 261.339 599.413 261.339 601.19V609.717C261.339 611.494 261.339 611.494 259.566 611.849V612.56H265.238V611.849C263.466 611.849 263.466 611.494 263.466 609.717V605.454H270.556V609.717C270.556 611.494 270.556 611.494 268.429 611.849V612.56H274.101V611.849C272.329 611.849 272.329 611.494 272.329 609.717V601.19C272.329 599.413 272.329 599.413 274.101 599.058V598.347H274.456Z" fill="white"/>
<path d="M368.4 572.053H363.791V572.763C365.564 572.763 365.564 573.119 364.855 574.185C364.146 575.606 363.082 577.738 362.373 578.804C361.31 577.383 360.601 575.606 359.537 573.829C359.183 573.119 359.183 572.763 360.601 572.763V572.053H355.638V572.763C357.056 572.763 357.056 573.119 358.119 574.54C359.183 576.672 359.892 577.738 360.955 579.159C361.31 579.87 361.31 579.87 361.31 580.581V583.423C361.31 585.2 361.31 585.2 359.183 585.555V586.266H365.209V585.555C363.082 585.555 363.082 585.2 363.082 583.423V580.581C363.082 579.87 363.082 579.87 363.437 579.159C364.5 577.383 365.209 575.961 366.273 574.54C366.982 573.119 367.336 573.119 368.755 572.763V572.053H368.4ZM354.929 585.91V585.2C353.865 585.2 353.511 584.845 352.447 583.779C351.384 582.713 348.902 579.87 347.484 578.093C348.902 576.672 350.32 575.251 351.384 574.54C352.802 573.474 353.156 573.119 354.929 573.119V572.408H349.966V573.119H350.32C351.384 573.119 351.384 573.474 350.675 574.185C349.611 575.251 348.193 576.672 347.13 578.093C346.421 578.804 346.066 578.804 345.712 579.159V575.606C345.712 573.829 346.066 573.474 347.484 573.474V572.763H342.167V573.474C343.939 573.474 343.939 573.829 343.939 575.606V583.779C343.939 585.555 343.939 585.91 342.167 585.91V586.621H347.839V585.91C346.066 585.91 345.712 585.555 345.712 583.779V579.87C346.066 579.87 346.421 579.87 346.775 580.581C348.548 582.713 350.32 584.844 352.093 586.621H354.929V585.91ZM339.685 575.251C339.685 573.829 339.331 573.119 339.331 572.408C338.622 572.053 337.558 572.053 336.495 572.053C333.659 572.053 332.241 573.829 332.241 575.961C332.241 578.449 334.368 579.515 335.786 580.225C337.204 580.936 338.622 581.647 338.622 583.423C338.622 584.844 337.558 585.91 336.14 585.91C334.013 585.91 332.949 583.778 332.595 582.357H331.886C331.886 583.423 332.24 585.2 332.595 585.555C332.949 585.555 332.949 585.91 333.659 585.91C334.013 585.91 334.722 586.266 335.786 586.266C338.622 586.266 340.394 584.489 340.394 582.357C340.394 579.87 338.267 578.804 336.849 578.093C335.076 577.383 334.013 576.672 334.013 574.895C334.013 573.829 334.722 572.408 336.495 572.408C338.267 572.408 338.976 573.829 339.331 575.251H339.685ZM330.468 572.053H325.505V572.763C326.923 572.763 327.632 573.119 327.632 574.185C327.632 574.895 327.632 575.606 327.632 577.738V583.068L318.769 572.408H315.579V573.119C316.642 573.119 316.997 573.474 317.351 573.829C317.706 574.185 317.706 574.54 317.706 575.961V580.581C317.706 582.357 317.706 583.423 317.706 584.134C317.706 585.2 316.997 585.555 315.933 585.555V586.266H320.896V585.555C319.478 585.555 319.124 585.2 318.769 584.134C318.769 583.423 318.769 582.357 318.769 580.581V575.251L327.986 586.266H328.695V577.738C328.695 575.606 328.695 574.895 328.695 574.185C328.695 573.119 329.404 573.119 330.468 572.763V572.053ZM307.425 572.763C310.261 572.763 312.388 575.251 312.388 579.515C312.388 583.778 310.261 585.555 307.78 585.555C304.944 585.555 302.462 582.713 302.462 578.804C302.817 574.54 304.944 572.763 307.425 572.763ZM307.78 571.697C303.171 571.697 300.689 575.251 300.689 579.159C300.689 583.423 303.88 586.266 307.425 586.266C311.325 586.266 314.515 583.423 314.515 578.804C314.515 574.54 311.325 571.697 307.78 571.697ZM300.335 585.91V585.2C299.272 585.2 298.917 584.845 297.853 583.779C296.79 582.713 294.308 579.87 292.89 578.093C294.308 576.672 295.726 575.251 296.79 574.54C298.208 573.474 298.562 573.119 300.335 573.119V572.408H295.372V573.119H295.726C296.79 573.119 296.79 573.474 296.081 574.185C295.017 575.251 293.599 576.672 292.536 578.093C291.827 578.804 291.472 578.804 291.118 579.159V575.606C291.118 573.829 291.472 573.474 292.89 573.474V572.763H287.573V573.474C289.345 573.474 289.345 573.829 289.345 575.606V583.779C289.345 585.555 289.345 585.91 287.573 585.91V586.621H293.245V585.91C291.472 585.91 291.118 585.555 291.118 583.779V579.87C291.472 579.87 291.827 579.87 292.181 580.581C293.954 582.713 295.726 584.844 297.499 586.621H300.335V585.91ZM285.091 582.357C284.737 583.423 284.382 584.134 284.028 584.489C283.673 585.2 282.964 585.2 281.546 585.2C280.483 585.2 279.774 585.2 279.419 584.844C279.065 584.489 279.065 584.134 279.065 583.068V574.54C279.065 572.763 279.419 572.763 280.837 572.408V571.697H275.165V572.408C276.938 572.408 276.938 572.763 276.938 574.54V583.068C276.938 584.844 276.938 585.2 274.811 585.2V585.91H284.382C284.737 585.2 285.091 583.068 285.091 582.713V582.357ZM266.657 572.763C269.493 572.763 271.975 575.251 271.975 579.515C271.975 583.778 269.848 585.555 267.366 585.555C264.53 585.555 262.048 582.713 262.048 578.804C262.048 574.54 264.175 572.763 266.657 572.763ZM267.011 571.697C262.403 571.697 259.921 575.251 259.921 579.159C259.921 583.423 263.112 586.266 266.657 586.266C270.557 586.266 273.747 583.423 273.747 578.804C274.102 574.54 270.911 571.697 267.011 571.697Z" fill="white"/>
<path d="M258.147 572.053H244.321V573.83C249.284 574.54 249.639 574.896 248.575 578.449C246.448 584.489 241.84 596.571 239.004 604.388C234.75 593.728 230.496 582.002 228.723 577.738C227.66 574.896 228.014 574.54 232.268 574.185V572.408H217.379V574.185C220.924 574.54 221.987 574.896 223.76 579.515C227.305 588.398 232.268 601.545 236.522 612.916H238.295C242.903 600.124 249.284 584.489 251.057 580.581C253.538 575.251 254.247 574.54 258.502 574.185V572.053H258.147Z" fill="#D41367"/>
<path d="M113.664 610.361C113.286 611.117 112.909 611.874 112.532 612.63C112.155 613.386 111.4 613.386 109.514 613.386C108.382 613.386 107.627 613.386 107.25 613.008C106.873 612.63 106.873 612.252 106.873 611.117V606.958H109.136C111.023 606.958 111.4 606.958 111.4 608.848H112.155V604.689H111.4C111.023 606.201 111.023 606.201 109.136 606.201H106.873V600.907C106.873 600.151 106.873 600.151 107.627 600.151H109.514C111.023 600.151 111.777 600.151 112.155 600.907C112.532 601.285 112.532 602.042 112.909 602.798H113.664C113.664 601.663 113.664 600.151 113.664 599.395H103.477V600.151C105.364 600.151 105.364 600.529 105.364 602.42V611.495C105.364 613.386 105.364 613.386 103.1 613.764V614.521H114.041C114.418 613.764 114.795 611.873 114.795 611.117L113.664 610.361ZM100.836 602.42C100.836 600.907 100.459 600.151 100.459 599.395C99.7045 599.016 98.5727 599.016 97.4408 599.016C94.4226 599.016 92.9135 600.907 92.9135 603.176C92.9135 605.823 95.1772 606.958 96.6863 607.714C98.5727 608.47 99.7045 609.226 99.7045 611.117C99.7045 612.63 98.5727 613.764 97.0636 613.764C94.7999 613.764 93.6681 611.495 93.2908 609.983H92.5363C92.5363 611.117 92.9135 613.008 93.2908 613.386C93.6681 613.386 93.6681 613.764 94.4226 613.764C94.7999 613.764 95.5545 614.142 96.6863 614.142C99.7045 614.142 101.591 612.252 101.591 609.983C101.591 607.336 99.3272 606.201 97.8181 605.445C95.9317 604.689 94.7999 603.932 94.7999 602.042C94.7999 600.907 95.5545 599.395 97.4408 599.395C99.3272 599.395 100.082 600.907 100.459 602.42H100.836ZM91.0272 599.395H85.7453V600.151C87.2544 600.151 88.009 600.529 88.009 601.285C88.009 602.042 88.009 602.798 88.009 605.067V606.579C88.009 610.361 86.8771 613.008 83.8589 613.008C81.218 613.008 79.7089 610.739 79.7089 607.336V602.042C79.7089 600.151 79.7089 599.773 81.5953 599.773V599.016H75.9362V599.773C77.8225 599.773 77.8225 600.151 77.8225 602.042V607.714C77.8225 610.361 78.5771 612.252 79.7089 613.008C80.8407 613.764 81.9726 614.142 83.4817 614.142C84.9908 614.142 86.4999 613.764 87.6317 612.63C88.7635 611.117 89.1408 609.226 89.1408 606.579V604.689C89.1408 602.42 89.1408 601.663 89.1408 600.907C89.1408 599.773 89.8953 599.773 91.0272 599.395ZM66.127 599.773C69.1452 599.773 71.4089 602.42 71.4089 606.958C71.4089 611.495 69.1452 613.386 66.5043 613.386C63.4861 613.386 60.8452 610.361 60.8452 606.201C60.8452 602.042 63.8634 599.773 66.127 599.773ZM66.8816 599.016C61.977 599.016 59.3361 602.798 59.3361 606.958C59.3361 611.495 62.7316 614.521 66.5043 614.521C70.6543 614.521 74.0498 611.495 74.0498 606.579C74.0498 602.042 70.6543 599.016 66.8816 599.016ZM57.4497 599.395H51.4133V600.151C53.2997 600.151 53.2997 600.529 53.2997 602.42V606.201H45.7542V602.42C45.7542 600.529 45.7542 600.529 47.6406 600.151V599.395H41.9814V600.151C43.8678 600.151 43.8678 600.529 43.8678 602.42V611.495C43.8678 613.386 43.8678 613.386 41.9814 613.764V614.521H48.0178V613.764C46.1315 613.764 46.1315 613.386 46.1315 611.495V606.958H53.677V611.495C53.677 613.386 53.677 613.386 51.4133 613.764V614.521H57.4497V613.764C55.5633 613.764 55.5633 613.386 55.5633 611.495V602.42C55.5633 600.529 55.5633 600.529 57.4497 600.151V599.395Z" fill="white"/>
<path d="M177.8 574.059H172.896V574.815C174.782 574.815 174.782 575.193 174.028 576.327C173.273 577.84 172.141 580.109 171.387 581.243C170.255 579.731 169.123 577.84 168.369 575.949C167.991 575.193 167.991 574.815 169.5 574.815V574.059H164.219V574.815C165.728 574.815 165.728 575.193 166.86 576.706C167.991 578.975 168.746 580.109 169.878 581.622C170.255 582.378 170.255 582.378 170.255 583.134V586.159C170.255 588.05 170.255 588.05 167.991 588.428V589.185H174.028V588.428C171.764 588.428 171.764 588.05 171.764 586.159V583.134C171.764 582.378 171.764 582.378 172.141 581.622C173.273 579.731 174.028 578.218 175.16 576.706C175.914 575.193 176.291 575.193 177.8 574.815V574.059ZM163.841 588.806V588.05C162.709 588.05 162.332 587.672 161.2 586.538C160.069 585.403 157.428 582.378 155.919 580.487C157.428 578.975 158.937 577.462 160.069 576.706C161.578 575.571 161.955 575.193 163.841 575.193V574.437H158.559V575.193H158.937C160.069 575.193 160.069 575.571 159.314 576.327C158.182 577.462 156.673 578.975 155.541 580.487C154.787 581.243 154.409 581.243 154.032 581.622V577.84C154.032 575.949 154.409 575.571 155.919 575.571V574.815H150.259V575.571C152.146 575.571 152.146 575.949 152.146 577.84V586.538C152.146 588.428 152.146 588.806 150.259 588.806V589.563H156.296V588.806C154.409 588.806 154.032 588.428 154.032 586.538V582.378C154.409 582.378 154.787 582.378 155.164 583.134C157.05 585.403 158.937 587.672 160.823 589.563H163.841V588.806ZM147.619 577.462C147.619 575.949 147.241 575.193 147.241 574.437C146.487 574.059 145.355 574.059 144.223 574.059C141.205 574.059 139.696 575.949 139.696 578.218C139.696 580.865 141.959 582 143.468 582.756C144.978 583.512 146.487 584.269 146.487 586.159C146.487 587.672 145.355 588.806 143.846 588.806C141.582 588.806 140.45 586.538 140.073 585.025H139.318C139.318 586.159 139.696 588.05 140.073 588.428C140.45 588.428 140.45 588.806 141.205 588.806C141.582 588.806 142.337 589.185 143.468 589.185C146.487 589.185 148.373 587.294 148.373 585.025C148.373 582.378 146.109 581.243 144.6 580.487C142.714 579.731 141.582 578.974 141.582 577.084C141.582 575.949 142.337 574.437 144.223 574.437C146.109 574.437 146.864 575.949 147.241 577.462H147.619ZM138.564 574.059H133.659V574.815C135.546 575.193 135.546 575.193 135.168 576.327C134.414 578.596 132.905 583.134 131.773 585.781C130.264 582 128.755 577.462 128 575.949C127.623 574.815 127.623 574.815 129.132 574.437V573.68H123.473V574.437C124.982 574.437 125.359 574.815 125.737 576.327C126.868 579.731 128.755 584.647 130.264 588.806H131.018C132.905 584.269 135.168 578.218 135.546 576.706C136.3 574.815 136.678 574.437 138.187 574.437V574.059H138.564ZM114.796 574.437C117.814 574.437 120.077 577.084 120.077 581.622C120.077 585.781 117.814 588.05 115.173 588.05C112.155 588.05 109.514 585.025 109.514 580.865C109.891 576.706 112.155 574.437 114.796 574.437ZM115.173 573.68C110.268 573.68 107.627 577.462 107.627 581.622C107.627 586.159 111.023 589.185 114.796 589.185C118.946 589.185 122.341 586.159 122.341 581.243C122.341 576.706 118.946 573.68 115.173 573.68ZM106.118 588.806V588.05C104.232 588.05 104.232 587.672 103.855 585.403L103.477 577.084C103.477 574.815 103.477 574.815 105.741 574.437V573.68H101.968L96.6864 585.025L91.4046 573.68H87.6318V574.437C89.5182 574.815 89.8955 574.815 89.5182 577.84L89.1409 582.378C89.1409 584.647 88.7637 585.781 88.7637 586.538C88.7637 587.672 88.0091 587.672 86.8773 588.05V588.806H92.1591V588.05C90.65 588.05 90.2728 587.672 89.8955 586.538C89.8955 585.781 89.8955 584.647 89.8955 582.756L90.2728 576.327L95.1773 588.428H95.5546L101.214 575.949V585.025C101.214 587.294 101.214 587.672 99.3274 587.672V588.428H106.118V588.806ZM86.5 574.059H81.2182V574.815C82.7273 574.815 83.4818 575.193 83.4818 575.949C83.4818 576.706 83.4818 577.462 83.4818 579.731V581.243C83.4818 585.025 82.35 587.672 79.3318 587.672C76.6909 587.672 75.1818 585.403 75.1818 582V576.706C75.1818 574.815 75.1818 574.437 77.0681 574.437V573.68H71.409V574.437C73.2954 574.437 73.2954 574.815 73.2954 576.706V582.378C73.2954 585.025 74.0499 586.538 75.1818 587.672C76.3136 588.428 77.4454 588.806 78.9545 588.806C80.4636 588.806 81.9727 588.428 83.1045 587.294C84.2364 585.781 84.6136 583.89 84.6136 581.243V579.353C84.6136 577.084 84.6136 576.327 84.6136 575.571C84.6136 574.437 85.3682 574.437 86.5 574.059ZM69.5226 584.647C69.1454 585.781 68.7681 586.538 68.3908 586.916C67.6363 587.672 66.8817 587.672 64.2408 587.672C62.7317 587.672 61.2226 587.672 60.4681 587.672C63.4863 583.134 66.5045 578.596 69.8999 574.059V573.68H60.8453C60.0908 573.68 60.0908 573.68 59.7135 573.302H59.3362C59.3362 574.437 59.3362 575.949 58.959 577.462H59.7135C60.0908 576.327 60.0908 575.949 60.4681 575.571C60.8453 574.815 61.2226 574.815 63.4863 574.815H67.259C64.2408 579.353 60.8453 583.89 57.8271 588.428V588.806H69.5226C69.8999 588.05 70.2772 585.781 70.2772 585.025L69.5226 584.647ZM50.6589 582.378H46.5089C47.2635 580.487 48.018 578.596 48.7725 576.706L50.6589 582.378ZM56.318 588.806V588.05C54.8089 588.05 54.4317 587.672 53.6771 585.781C52.168 582 50.6589 577.462 49.1498 573.68L48.3953 574.059L43.868 585.781C43.1134 587.672 42.7361 588.05 41.2271 588.05V588.806H46.1316V588.05C44.2453 588.05 44.2453 587.672 44.6225 586.159C44.9998 585.025 45.3771 584.269 45.7543 583.134H50.6589C51.0362 584.647 51.7907 585.781 51.7907 586.538C52.168 587.294 51.7907 587.672 50.2816 587.672V588.428H56.318V588.806Z" fill="white"/>
<path d="M15.9504 594.479V579.353C15.9504 577.462 15.9504 577.084 16.705 576.706C17.0822 576.327 18.2141 575.949 20.1004 575.949C24.6277 575.949 29.155 578.218 29.155 585.025C29.155 588.428 28.0232 590.697 25.7596 592.588C24.2505 593.722 22.3641 594.479 18.9686 594.479H15.9504ZM41.6051 613.008C40.096 612.63 38.9642 611.874 37.0778 609.983C35.5687 608.47 34.4369 606.958 32.1732 603.554C30.2869 600.907 27.6459 596.748 26.8914 594.857C31.4187 592.966 34.8142 589.563 34.8142 584.269C34.8142 580.487 33.3051 577.84 30.6641 576.327C28.4005 574.815 25.3823 574.059 20.855 574.059H5.76399V575.949C10.6686 576.327 11.0458 576.706 11.0458 581.622V606.201C11.0458 611.495 10.6686 611.873 5.38672 612.252V614.142H21.6095V612.252C16.705 611.873 16.3277 611.495 16.3277 606.201V596.369H18.2141C21.2323 596.369 22.3641 597.126 23.4959 598.638C25.3823 601.663 27.6459 605.445 29.5323 608.47C32.1732 612.63 34.8141 613.764 39.3414 614.142C40.096 614.142 40.8505 614.142 41.6051 614.142V613.008Z" fill="#D41367"/>
<path d="M289.686 131.684L268.14 41.4568" stroke="#8C9091"/>
<circle cx="290.739" cy="135.888" r="4.77021" stroke="#8C9091"/>
<circle cx="266.926" cy="37.2253" r="4.77021" stroke="#8C9091"/>
<path d="M542.952 162.047L532.875 69.8318" stroke="#8C9091"/>
<circle cx="543.47" cy="166.35" r="4.77021" transform="rotate(7.19489 543.47 166.35)" stroke="#8C9091"/>
<circle cx="532.198" cy="65.4811" r="4.77021" transform="rotate(7.19489 532.198 65.4811)" stroke="#8C9091"/>
<path d="M584.181 547.204L574.104 454.989" stroke="#8C9091"/>
<circle cx="584.692" cy="551.507" r="4.77021" transform="rotate(7.19489 584.692 551.507)" stroke="#8C9091"/>
<circle cx="573.423" cy="450.639" r="4.77021" transform="rotate(7.19489 573.423 450.639)" stroke="#8C9091"/>
<path d="M295.221 546.146L313.449 455.19" stroke="#8C9091"/>
<circle cx="294.414" cy="550.402" r="4.77021" transform="rotate(24.7636 294.414 550.402)" stroke="#8C9091"/>
<circle cx="314.117" cy="450.838" r="4.77021" transform="rotate(24.7636 314.117 450.838)" stroke="#8C9091"/>
<path d="M110.239 547.217L83.7734 379.245" stroke="#8C9091"/>
<circle cx="110.758" cy="551.518" r="4.77021" transform="rotate(7.05236 110.758 551.518)" stroke="#8C9091"/>
<circle cx="82.68" cy="374.986" r="4.77021" transform="rotate(7.05236 82.68 374.986)" stroke="#8C9091"/>
<path d="M644.134 305.407L739.372 103.869" stroke="#8C9091"/>
<circle cx="641.643" cy="309.384" r="4.76909" transform="rotate(38.7243 641.643 309.384)" stroke="#8C9091"/>
<circle cx="740.748" cy="99.7148" r="4.76909" transform="rotate(38.7243 740.748 99.7148)" stroke="#8C9091"/>
</svg>
