<svg width="100" height="100" viewBox="0 0 100 100" fill="none" xmlns="http://www.w3.org/2000/svg">
<path d="M38.8929 76.1755C17.4805 95.9616 3.65735 82.1384 23.4435 60.726C28.1867 60.8615 33.6076 60.5905 39.8416 59.6418C39.0284 65.8758 38.6219 71.4322 38.8929 76.1755Z" stroke="#F4F4F4" stroke-width="3" stroke-miterlimit="10" stroke-linecap="round" stroke-linejoin="round"/>
<path d="M39.9771 40.1265C33.7431 39.1779 28.1867 38.9068 23.579 39.0423C3.65734 17.6299 17.4805 3.80676 38.8929 23.5929C38.6219 28.3361 39.0284 33.8925 39.9771 40.1265Z" stroke="#F4F4F4" stroke-width="3" stroke-miterlimit="10" stroke-linecap="round" stroke-linejoin="round"/>
<path d="M60.8476 49.884C60.8476 55.9825 55.8333 60.9968 49.7348 60.9968C43.6364 60.9968 38.6221 55.9825 38.6221 49.884C38.6221 43.7855 43.6364 38.7712 49.7348 38.7712C55.8333 38.7712 60.8476 43.7855 60.8476 49.884Z" stroke="#F4F4F4" stroke-width="3" stroke-miterlimit="10" stroke-linecap="round" stroke-linejoin="round"/>
<path d="M60.5764 76.1754C60.7119 71.4322 60.4408 66.0113 59.4922 59.7773C65.7262 60.726 71.2826 60.997 75.8903 60.8615C95.8119 82.1384 81.9887 95.9616 60.5764 76.1754Z" stroke="#F4F4F4" stroke-width="3" stroke-miterlimit="10" stroke-linecap="round" stroke-linejoin="round"/>
<path d="M76.027 39.0433C71.2837 38.9078 65.8629 39.1788 59.6289 40.1275C60.5776 33.8935 60.8486 28.4726 60.7131 23.7294C81.9899 3.80773 95.8131 17.6309 76.027 39.0433Z" stroke="#F4F4F4" stroke-width="3" stroke-miterlimit="10" stroke-linecap="round" stroke-linejoin="round"/>
<path d="M76.0284 60.725C105.166 59.6408 105.166 40.1257 76.0284 38.906V60.725ZM38.8955 76.1744C39.9797 105.312 59.4948 105.312 60.579 76.1744H38.8955ZM23.4461 39.0415C-5.69101 40.1257 -5.69101 59.6408 23.4461 60.725V39.0415ZM60.579 23.5921C59.4948 -5.54502 39.9797 -5.54502 38.8955 23.5921Z" stroke="#F4F4F4" stroke-width="3" stroke-miterlimit="10" stroke-linecap="round" stroke-linejoin="round"/>
</svg>
