<svg width="131" height="68" viewBox="0 0 131 68" fill="none" xmlns="http://www.w3.org/2000/svg">
<path d="M5.83637 17.9575C3.66803 17.9575 1.90625 19.7193 1.90625 21.8876V45.7394C1.90625 47.9078 3.66803 49.6695 5.83637 49.6695C8.00471 49.6695 9.76649 47.9078 9.76649 45.7394V21.8876C9.90201 19.7193 8.00471 17.9575 5.83637 17.9575Z" stroke="#F4F4F4" stroke-width="3" stroke-miterlimit="10" stroke-linecap="round" stroke-linejoin="round"/>
<path d="M21.8295 9.96338C19.6612 9.96338 17.8994 11.7252 17.8994 13.8935V53.7368C17.8994 55.9051 19.6612 57.6669 21.8295 57.6669C23.9979 57.6669 25.7597 55.9051 25.7597 53.7368V13.8935C25.7597 11.7252 23.9979 9.96338 21.8295 9.96338Z" stroke="#F4F4F4" stroke-width="3" stroke-miterlimit="10" stroke-linecap="round" stroke-linejoin="round"/>
<path d="M93.3806 1.9668C91.2123 1.9668 89.4505 3.72857 89.4505 5.89692V25.8186H41.747V5.89692C41.747 3.72857 39.9852 1.9668 37.8168 1.9668C35.6485 1.9668 33.8867 3.72857 33.8867 5.89692V61.5962C33.8867 63.7646 35.6485 65.5263 37.8168 65.5263C39.9852 65.5263 41.747 63.7646 41.747 61.5962V41.8101H89.586V61.7317C89.586 63.9001 91.3478 65.6619 93.5161 65.6619C95.6845 65.6619 97.4463 63.9001 97.4463 61.7317V5.89692C97.4463 3.72857 95.6845 1.9668 93.3806 1.9668Z" stroke="#F4F4F4" stroke-width="3" stroke-miterlimit="10" stroke-linecap="round" stroke-linejoin="round"/>
<path d="M125.23 17.9575C123.062 17.9575 121.3 19.7193 121.3 21.8876V45.7394C121.3 47.9078 123.062 49.6695 125.23 49.6695C127.398 49.6695 129.16 47.9078 129.16 45.7394V21.8876C129.296 19.7193 127.534 17.9575 125.23 17.9575Z" stroke="#F4F4F4" stroke-width="3" stroke-miterlimit="10" stroke-linecap="round" stroke-linejoin="round"/>
<path d="M109.374 9.96338C107.206 9.96338 105.444 11.7252 105.444 13.8935V53.7368C105.444 55.9051 107.206 57.6669 109.374 57.6669C111.543 57.6669 113.305 55.9051 113.305 53.7368V13.8935C113.305 11.7252 111.543 9.96338 109.374 9.96338Z" stroke="#F4F4F4" stroke-width="3" stroke-miterlimit="10" stroke-linecap="round" stroke-linejoin="round"/>
</svg>
