<svg width="34" height="41" viewBox="0 0 34 41" fill="none" xmlns="http://www.w3.org/2000/svg">
<g clip-path="url(#clip0)">
<path d="M16.6425 40.6992C16.2881 40.6992 15.9337 40.5663 15.7122 40.3005C14.4719 38.9716 13.143 37.7313 11.7255 36.3581C6.32132 31.1311 0.164062 25.1953 0.164062 17.2219C0.164062 8.09678 7.56163 0.699219 16.6868 0.699219C25.8119 0.699219 33.2095 8.09678 33.2095 17.2219C33.2095 25.151 27.0079 31.1311 21.5151 36.4024C20.0976 37.7313 18.7687 39.0159 17.5727 40.3005C17.3069 40.5663 16.9525 40.6992 16.6425 40.6992ZM16.6868 3.26843C8.97912 3.26843 2.73328 9.51428 2.73328 17.2219C2.73328 24.1322 8.22608 29.4035 13.4974 34.4977C14.5605 35.5165 15.6236 36.5353 16.6425 37.5541C17.617 36.5796 18.6358 35.5608 19.7432 34.542C25.1032 29.3592 30.6845 24.0436 30.6845 17.2219C30.6403 9.51428 24.3501 3.26843 16.6868 3.26843Z" fill="#0C0C0D"/>
<path d="M16.6868 23.2463C12.9216 23.2463 9.8208 20.1898 9.8208 16.3803C9.8208 12.5708 12.8773 9.55859 16.6868 9.55859C20.452 9.55859 23.5528 12.6151 23.5528 16.4246C23.5528 20.2341 20.452 23.2463 16.6868 23.2463ZM16.6868 12.0835C14.2948 12.0835 12.39 14.0326 12.39 16.3803C12.39 18.728 14.3391 20.6771 16.6868 20.6771C19.0345 20.6771 20.9836 18.728 20.9836 16.3803C20.9836 14.0326 19.0345 12.0835 16.6868 12.0835Z" fill="#0C0C0D"/>
</g>
<defs>
<clipPath id="clip0">
<rect width="33.0011" height="40" fill="white" transform="translate(0.164062 0.699219)"/>
</clipPath>
</defs>
</svg>
