<svg width="255" height="61" viewBox="0 0 255 61" fill="none" xmlns="http://www.w3.org/2000/svg">
<g clip-path="url(#clip0)">
<path fill-rule="evenodd" clip-rule="evenodd" d="M248.472 60.441H239.102C234.604 60.6279 230.669 57.0765 230.482 52.5905C230.482 52.4036 230.482 52.2167 230.482 52.0298V12.7775H237.041V48.8522C237.041 50.5345 237.228 52.4036 238.352 52.9644C239.477 53.3382 240.601 53.5251 241.726 53.3382H247.723V12.5905H254.282V60.441H248.472ZM248.472 6.42232L245.286 6.60924H239.477H236.291C236.104 6.60924 236.104 6.60924 235.916 6.60924C232.73 6.23541 233.105 2.684 233.105 0.62793H251.471C251.471 2.49709 251.658 6.04849 248.472 6.42232ZM213.99 60.441H206.119C201.622 60.6279 197.686 57.0765 197.499 52.5905C197.499 52.4036 197.499 52.2167 197.499 52.0298V21.1887C197.311 16.7027 200.872 12.7775 205.557 12.7775C205.744 12.7775 205.932 12.7775 206.119 12.7775H213.99C218.488 12.5905 222.423 16.1419 222.611 20.6279C222.611 20.8148 222.611 21.0018 222.611 21.1887V52.0298C222.798 56.5158 219.237 60.441 214.552 60.441C214.365 60.441 214.178 60.441 213.99 60.441ZM215.864 24.1793C215.864 22.4971 215.677 20.6279 214.552 20.0672C213.428 19.6933 212.304 19.5064 211.179 19.6933H208.555C207.431 19.5064 206.307 19.6933 205.182 20.0672C204.058 20.6279 203.87 22.4971 203.87 24.1793V48.6653C203.87 50.3475 204.058 52.2167 205.182 52.7775C206.307 53.1513 207.431 53.3382 208.555 53.1513H211.179C212.304 53.3382 213.428 53.1513 214.552 52.7775C215.677 52.2167 215.864 50.3475 215.864 48.6653V24.1793ZM181.757 41.0018H172.949V60.441H166.39V12.5905H181.757C186.255 12.4036 190.19 15.955 190.377 20.441C190.377 20.6279 190.377 20.8148 190.377 21.0018V32.4036C190.565 36.8896 187.004 40.8148 182.319 40.8148C182.132 41.0018 181.944 41.0018 181.757 41.0018ZM183.818 24.1793C183.818 22.4971 183.631 20.6279 182.507 20.0672C181.382 19.6933 180.258 19.5064 179.133 19.6933H173.136V33.899H179.133C180.258 34.0859 181.382 33.899 182.507 33.5251C183.631 32.9644 183.818 31.0952 183.818 29.413V24.1793ZM151.21 60.441H144.651V19.6933H136.031V12.5905H159.831V19.6933H151.21V60.441ZM122.725 60.441H115.979C111.481 60.6279 107.546 57.0765 107.358 52.5905C107.358 52.4036 107.358 52.2167 107.358 52.0298V21.1887C107.171 16.7027 110.731 12.7775 115.417 12.7775C115.604 12.7775 115.791 12.7775 115.979 12.7775H122.725C127.223 12.5905 131.158 16.1419 131.346 20.6279C131.346 20.8148 131.346 21.0018 131.346 21.1887V25.1139H124.787V24.1793C124.787 22.4971 124.599 20.6279 123.475 20.0672C122.35 19.6933 121.226 19.5064 120.102 19.6933H118.79C117.665 19.5064 116.541 19.6933 115.417 20.0672C114.292 20.6279 114.105 22.4971 114.105 24.1793V48.6653C114.105 50.3475 114.292 52.2167 115.417 52.7775C116.541 53.1513 117.665 53.3382 118.79 53.1513H120.102C121.226 53.3382 122.35 53.1513 123.475 52.7775C124.599 52.2167 124.787 50.3475 124.787 48.6653V47.9176H131.346V51.8429C131.533 56.3289 127.972 60.2541 123.287 60.2541C123.287 60.441 122.913 60.441 122.725 60.441ZM91.9912 40.8148H81.3093V60.2541H74.7502V12.5905H81.3093V33.712H91.9912V12.5905H98.5503V60.2541H91.9912V40.8148ZM57.1344 60.441H49.2635C44.7658 60.6279 40.8304 57.0765 40.643 52.5905C40.643 52.4036 40.643 52.2167 40.643 52.0298V21.1887C40.4556 16.7027 44.0162 12.7775 48.7013 12.7775C48.8887 12.7775 49.0761 12.7775 49.2635 12.7775H57.1344C61.632 12.5905 65.5675 16.1419 65.7549 20.6279C65.7549 20.8148 65.7549 21.0018 65.7549 21.1887V52.0298C65.9423 56.5158 62.3817 60.441 57.6966 60.441C57.5092 60.441 57.3218 60.441 57.1344 60.441ZM59.0084 24.1793C59.0084 22.4971 58.821 20.6279 57.6966 20.0672C56.5722 19.6933 55.4478 19.5064 54.3233 19.6933H51.6997C50.5753 19.5064 49.4509 19.6933 48.3265 20.0672C47.2021 20.6279 47.0147 22.4971 47.0147 24.1793V48.6653C47.0147 50.3475 47.2021 52.2167 48.3265 52.7775C49.4509 53.1513 50.5753 53.3382 51.6997 53.1513H54.3233C55.4478 53.3382 56.5722 53.1513 57.6966 52.7775C58.821 52.2167 59.0084 50.3475 59.0084 48.6653V24.1793ZM6.16094 53.3382H6.53574V21.0018C6.53574 16.5158 10.0964 12.7775 14.594 12.5905C14.7814 12.5905 14.9689 12.5905 15.1563 12.5905H30.5232V53.3382H31.0855C35.2083 53.3382 37.2697 56.5158 37.0823 60.441H0.164062C0.164062 56.5158 2.03809 53.3382 6.16094 53.3382ZM13.2822 53.3382H23.9642V19.6933H17.9673C16.8429 19.5064 15.7185 19.6933 14.594 20.0672C13.4696 20.8148 13.2822 22.4971 13.2822 24.1793V53.3382Z" fill="white"/>
</g>
<defs>
<clipPath id="clip0">
<rect width="254.118" height="60" fill="white" transform="translate(0.164062 0.441406)"/>
</clipPath>
</defs>
</svg>
