<svg width="34" height="41" viewBox="0 0 34 41" fill="none" xmlns="http://www.w3.org/2000/svg">
<g clip-path="url(#clip0)">
<path d="M16.6425 40.2393C16.2881 40.2393 15.9337 40.1064 15.7122 39.8406C14.4719 38.5117 13.143 37.2714 11.7255 35.8982C6.32132 30.6712 0.164062 24.7354 0.164062 16.762C0.164062 7.63682 7.56163 0.239258 16.6868 0.239258C25.8119 0.239258 33.2095 7.63682 33.2095 16.762C33.2095 24.6911 27.0079 30.6712 21.5151 35.9425C20.0976 37.2714 18.7687 38.556 17.5727 39.8406C17.3069 40.1064 16.9525 40.2393 16.6425 40.2393ZM16.6868 2.80847C8.97912 2.80847 2.73328 9.05432 2.73328 16.762C2.73328 23.6723 8.22608 28.9436 13.4974 34.0377C14.5605 35.0565 15.6236 36.0754 16.6425 37.0942C17.617 36.1197 18.6358 35.1008 19.7432 34.082C25.1032 28.8993 30.6845 23.5837 30.6845 16.762C30.6403 9.05432 24.3501 2.80847 16.6868 2.80847Z" fill="white"/>
<path d="M16.6868 22.7863C12.9216 22.7863 9.8208 19.7299 9.8208 15.9203C9.8208 12.1108 12.8773 9.09863 16.6868 9.09863C20.452 9.09863 23.5528 12.1551 23.5528 15.9646C23.5528 19.7742 20.452 22.7863 16.6868 22.7863ZM16.6868 11.6235C14.2948 11.6235 12.39 13.5726 12.39 15.9203C12.39 18.2681 14.3391 20.2171 16.6868 20.2171C19.0345 20.2171 20.9836 18.2681 20.9836 15.9203C20.9836 13.5726 19.0345 11.6235 16.6868 11.6235Z" fill="white"/>
</g>
<defs>
<clipPath id="clip0">
<rect width="33.0011" height="40" fill="white" transform="translate(0.164062 0.239258)"/>
</clipPath>
</defs>
</svg>
