<?xml version="1.0" encoding="utf-8"?><svg width="255" height="61" fill="none" xmlns="http://www.w3.org/2000/svg" viewBox="0 0 255 61"><g clip-path="url(#aclip0)"><path fill-rule="evenodd" clip-rule="evenodd" d="M248.472 60.441h-9.37c-4.498.187-8.433-3.364-8.62-7.85V12.776h6.559v36.075c0 1.683.187 3.552 1.311 4.112 1.125.374 2.249.561 3.374.374h5.997V12.59h6.559v47.851h-5.81zm0-54.019l-3.186.187H235.916c-3.186-.374-2.811-3.925-2.811-5.981h18.366c0 1.87.187 5.42-2.999 5.794zM213.99 60.441h-7.871c-4.497.187-8.433-3.364-8.62-7.85V21.188c-.188-4.486 3.373-8.412 8.058-8.412h8.433c4.498-.186 8.433 3.365 8.621 7.85V52.03c.187 4.487-3.374 8.412-8.059 8.412h-.562zm1.874-36.262c0-1.682-.187-3.551-1.312-4.112-1.124-.374-2.248-.56-3.373-.374h-2.624c-1.124-.187-2.248 0-3.373.374-1.124.56-1.312 2.43-1.312 4.112v24.486c0 1.682.188 3.552 1.312 4.113 1.125.373 2.249.56 3.373.373h2.624c1.125.187 2.249 0 3.373-.373 1.125-.561 1.312-2.43 1.312-4.113V24.18zm-34.107 16.823h-8.808V60.44h-6.559v-47.85h15.367c4.498-.187 8.433 3.364 8.62 7.85V32.404c.188 4.486-3.373 8.41-8.058 8.41-.187.188-.375.188-.562.188zm2.061-16.823c0-1.682-.187-3.551-1.311-4.112-1.125-.374-2.249-.56-3.374-.374h-5.997V33.9h5.997c1.125.187 2.249 0 3.374-.374 1.124-.56 1.311-2.43 1.311-4.112v-5.234zM151.21 60.441h-6.559V19.693h-8.62V12.59h23.8v7.103h-8.621v40.748zm-28.485 0h-6.746c-4.498.187-8.433-3.364-8.621-7.85V21.188c-.187-4.486 3.373-8.412 8.059-8.412H122.725c4.498-.186 8.433 3.365 8.621 7.85v4.487h-6.559v-.935c0-1.682-.188-3.551-1.312-4.112-1.125-.374-2.249-.56-3.373-.374h-1.312c-1.125-.187-2.249 0-3.373.374-1.125.56-1.312 2.43-1.312 4.112v24.486c0 1.682.187 3.552 1.312 4.113 1.124.373 2.248.56 3.373.373h1.312c1.124.187 2.248 0 3.373-.373 1.124-.561 1.312-2.43 1.312-4.113v-.747h6.559v3.925c.187 4.486-3.374 8.411-8.059 8.411 0 .187-.374.187-.562.187zM91.991 40.815H81.31v19.44H74.75V12.59h6.56v21.122H91.99V12.59h6.56v47.664h-6.56v-19.44zM57.134 60.44h-7.87c-4.498.187-8.434-3.364-8.621-7.85V21.188c-.187-4.486 3.373-8.412 8.058-8.412h8.433c4.498-.186 8.433 3.365 8.62 7.85V52.03c.188 4.487-3.372 8.412-8.057 8.412h-.563zm1.874-36.262c0-1.682-.187-3.551-1.311-4.112-1.125-.374-2.25-.56-3.374-.374H51.7c-1.125-.187-2.25 0-3.373.374-1.125.56-1.312 2.43-1.312 4.112v24.486c0 1.682.187 3.552 1.312 4.113 1.124.373 2.248.56 3.373.373h2.623c1.125.187 2.25 0 3.374-.373 1.124-.561 1.311-2.43 1.311-4.113V24.18zM6.161 53.34h.375V21.001c0-4.486 3.56-8.224 8.058-8.411h15.929v40.747h.563c4.122 0 6.184 3.178 5.996 7.103H.164c0-3.925 1.874-7.103 5.997-7.103zm7.121 0h10.682V19.692h-5.997c-1.124-.187-2.248 0-3.373.374-1.124.748-1.312 2.43-1.312 4.112v29.16z" fill="#fff"/></g><defs><clipPath id="aclip0"><path fill="#fff" transform="translate(.164 .441)" d="M0 0h254.118v60H0z"/></clipPath></defs></svg>