<?xml version="1.0" encoding="utf-8"?><svg width="34" height="41" fill="none" xmlns="http://www.w3.org/2000/svg" viewBox="0 0 34 41"><g clip-path="url(#cclip0)" fill="#fff"><path d="M16.642 40.24c-.354 0-.708-.134-.93-.4-1.24-1.328-2.569-2.569-3.986-3.942C6.32 30.671.164 24.735.164 16.762.164 7.637 7.562.239 16.687.239s16.522 7.398 16.522 16.523c0 7.93-6.201 13.91-11.694 19.18-1.417 1.33-2.746 2.614-3.942 3.899a1.35 1.35 0 01-.93.398zm.045-37.432c-7.708 0-13.954 6.246-13.954 13.954 0 6.91 5.493 12.182 10.764 17.276a208.128 208.128 0 013.145 3.056c.975-.974 1.994-1.993 3.101-3.012 5.36-5.183 10.942-10.498 10.942-17.32C30.64 9.054 24.35 2.808 16.687 2.808z"/><path d="M16.687 22.786c-3.765 0-6.866-3.056-6.866-6.866 0-3.81 3.056-6.821 6.866-6.821 3.765 0 6.866 3.056 6.866 6.866 0 3.81-3.101 6.821-6.866 6.821zm0-11.163a4.3 4.3 0 00-4.297 4.297c0 2.348 1.95 4.297 4.297 4.297 2.348 0 4.297-1.949 4.297-4.297 0-2.347-1.95-4.296-4.297-4.296z"/></g><defs><clipPath id="cclip0"><path fill="#fff" transform="translate(.164 .24)" d="M0 0h33.001v40H0z"/></clipPath></defs></svg>