<?xml version="1.0" encoding="utf-8"?><svg width="34" height="41" fill="none" xmlns="http://www.w3.org/2000/svg" viewBox="0 0 34 41"><g clip-path="url(#eclip0)" fill="#0C0C0D"><path d="M16.642 40.7c-.354 0-.708-.134-.93-.4-1.24-1.328-2.569-2.569-3.986-3.942C6.32 31.131.164 25.195.164 17.222.164 8.097 7.562.699 16.687.699s16.522 7.398 16.522 16.523c0 7.929-6.201 13.91-11.694 19.18-1.417 1.33-2.746 2.614-3.942 3.898a1.35 1.35 0 01-.93.4zm.045-37.432c-7.708 0-13.954 6.246-13.954 13.954 0 6.91 5.493 12.181 10.764 17.276 1.063 1.019 2.127 2.037 3.145 3.056.975-.974 1.994-1.993 3.101-3.012 5.36-5.183 10.942-10.498 10.942-17.32C30.64 9.514 24.35 3.268 16.687 3.268z"/><path d="M16.687 23.246c-3.765 0-6.866-3.056-6.866-6.866 0-3.81 3.056-6.821 6.866-6.821 3.765 0 6.866 3.056 6.866 6.866 0 3.81-3.101 6.821-6.866 6.821zm0-11.162a4.3 4.3 0 00-4.297 4.296c0 2.348 1.95 4.297 4.297 4.297 2.348 0 4.297-1.949 4.297-4.297 0-2.347-1.95-4.296-4.297-4.296z"/></g><defs><clipPath id="eclip0"><path fill="#fff" transform="translate(.164 .7)" d="M0 0h33.001v40H0z"/></clipPath></defs></svg>