<?xml version="1.0" encoding="utf-8"?><svg viewBox="0 0 512 512" xmlns="http://www.w3.org/2000/svg" xmlns:xlink="http://www.w3.org/1999/xlink"><style>:root>svg{display:none}:root>svg:target{display:block}</style><svg fill="none" viewBox="0 0 31 31" id="ic_dl" xmlns="http://www.w3.org/2000/svg"><path d="M9.586 16.901l6.213 6.213 6.213-6.213M15.88 8.114v14.847" stroke="#fff" stroke-width="2"/><circle cx="15.801" cy="15.614" r="14" stroke="#fff" stroke-width="2"/></svg><svg viewBox="0 0 9 17" id="ic_fb" xmlns="http://www.w3.org/2000/svg"><path d="M8.216 0H7.198c-2.83 0-5.134 2.015-5.134 4.492v1.896H.324c-.179 0-.324.127-.324.284v2.272c0 .156.145.284.324.284h1.74v6.956c0 .157.146.284.325.284h2.595c.18 0 .325-.127.325-.284V9.228H7.89c.179 0 .324-.128.324-.284V6.672c0-.157-.145-.284-.324-.284H5.309V4.492c0-.911.847-1.653 1.889-1.653h1.018c.18 0 .325-.127.325-.284V.284C8.54.127 8.395 0 8.216 0z"/></svg><svg fill="none" viewBox="0 0 34 41" id="ic_pen" xmlns="http://www.w3.org/2000/svg"><g clip-path="url(#cclip0)" fill="#fff"><path d="M16.642 40.24c-.354 0-.708-.134-.93-.4-1.24-1.328-2.569-2.569-3.986-3.942C6.32 30.671.164 24.735.164 16.762.164 7.637 7.562.239 16.687.239s16.522 7.398 16.522 16.523c0 7.93-6.201 13.91-11.694 19.18-1.417 1.33-2.746 2.614-3.942 3.899a1.35 1.35 0 01-.93.398zm.045-37.432c-7.708 0-13.954 6.246-13.954 13.954 0 6.91 5.493 12.182 10.764 17.276a208.128 208.128 0 013.145 3.056c.975-.974 1.994-1.993 3.101-3.012 5.36-5.183 10.942-10.498 10.942-17.32C30.64 9.054 24.35 2.808 16.687 2.808z"/><path d="M16.687 22.786c-3.765 0-6.866-3.056-6.866-6.866 0-3.81 3.056-6.821 6.866-6.821 3.765 0 6.866 3.056 6.866 6.866 0 3.81-3.101 6.821-6.866 6.821zm0-11.163a4.3 4.3 0 00-4.297 4.297c0 2.348 1.95 4.297 4.297 4.297 2.348 0 4.297-1.949 4.297-4.297 0-2.347-1.95-4.296-4.297-4.296z"/></g><defs><clipPath id="cclip0"><path fill="#fff" transform="translate(.164 .24)" d="M0 0h33.001v40H0z"/></clipPath></defs></svg><svg viewBox="0 0 25 36" id="ic_phone" xmlns="http://www.w3.org/2000/svg"><path d="M4.76 22.831C-2.862 9.631 2.274.765 2.274.765l7.152 1.67-.122 9.625-2.736 2.88 5.583 9.386 3.886-.835 8.213 4.684-2.646 7.59S12.38 36.03 4.76 22.83z"/></svg><svg fill="none" viewBox="0 0 81 81" id="ic_play" xmlns="http://www.w3.org/2000/svg"><circle cx="40.164" cy="40.676" r="39" fill="#000" fill-opacity=".2" stroke="#fff" stroke-width="2"/><path d="M61.806 40.676l-33.684-20v40l33.684-20z" fill="#fff"/></svg><svg fill="none" viewBox="0 0 21 43" id="ic_slash" xmlns="http://www.w3.org/2000/svg"><path d="M1.164 41.434l18.667-40" stroke="#D41367" stroke-width="2" stroke-linecap="round"/></svg><svg fill="none" viewBox="0 0 41 41" id="ic_swiper-next" xmlns="http://www.w3.org/2000/svg"><g filter="url(#filter0_b)"><circle cx="20.164" cy="20.841" r="20" fill="#000"/><circle cx="20.164" cy="20.841" r="19" stroke="#8C9091" stroke-width="2"/></g><path d="M15.831 10.573l10 10-10 10" stroke="#8C9091" stroke-width="2"/></svg><svg fill="none" viewBox="0 0 58 58" id="ic_swiper-next-fill" xmlns="http://www.w3.org/2000/svg"><circle cx="29" cy="29" r="29" fill="#C4C4C4"/><path d="M24 14l15 15-15 15" stroke="#fff" stroke-width="2"/></svg><svg fill="none" viewBox="0 0 61 61" id="ic_swiper-next-white" xmlns="http://www.w3.org/2000/svg"><g filter="url(#ifilter0_b)"><circle cx="30.766" cy="30.432" r="29" stroke="#fff" stroke-width="2"/></g><path d="M24.266 15.03l15 15-15 15" stroke="#fff" stroke-width="2"/><defs><filter id="ifilter0_b" x="-3.234" y="-3.568" width="68" height="68" filterUnits="userSpaceOnUse" color-interpolation-filters="sRGB"><feFlood flood-opacity="0" result="BackgroundImageFix"/><feGaussianBlur in="BackgroundImage" stdDeviation="2"/><feComposite in2="SourceAlpha" operator="in" result="effect1_backgroundBlur"/><feBlend in="SourceGraphic" in2="effect1_backgroundBlur" result="shape"/></filter></defs></svg><svg fill="none" viewBox="0 0 41 41" id="ic_swiper-prev" xmlns="http://www.w3.org/2000/svg"><g filter="url(#filter0_b)"><circle cx="20.164" cy="20.841" r="20" fill="#000"/><circle cx="20.164" cy="20.841" r="19" stroke="#8C9091" stroke-width="2"/></g><path d="M25.828 10.573l-10 10 10 10" stroke="#8C9091" stroke-width="2"/></svg><svg fill="none" viewBox="0 0 58 58" id="ic_swiper-prev-fill" xmlns="http://www.w3.org/2000/svg"><circle cx="29" cy="29" r="29" transform="rotate(180 29 29)" fill="#C4C4C4"/><path d="M34 44L19 29l15-15" stroke="#fff" stroke-width="2"/></svg><svg fill="none" viewBox="0 0 61 61" id="ic_swiper-prev-white" xmlns="http://www.w3.org/2000/svg"><g filter="url(#lfilter0_b)"><circle cx="30.766" cy="30.432" r="29" stroke="#fff" stroke-width="2"/></g><path d="M39.266 15.03l-15 15 15 15" stroke="#fff" stroke-width="2"/><defs><filter id="lfilter0_b" x="-3.234" y="-3.568" width="68" height="68" filterUnits="userSpaceOnUse" color-interpolation-filters="sRGB"><feFlood flood-opacity="0" result="BackgroundImageFix"/><feGaussianBlur in="BackgroundImage" stdDeviation="2"/><feComposite in2="SourceAlpha" operator="in" result="effect1_backgroundBlur"/><feBlend in="SourceGraphic" in2="effect1_backgroundBlur" result="shape"/></filter></defs></svg><svg viewBox="0 0 16 14" id="ic_tg" xmlns="http://www.w3.org/2000/svg"><path d="M6.279 9.096l-.265 3.723c.379 0 .543-.163.74-.358l1.775-1.697 3.679 2.695c.674.376 1.15.178 1.332-.621l2.415-11.316c.214-.997-.36-1.388-1.018-1.143L.743 5.813c-.969.376-.954.916-.165 1.161l3.629 1.129 8.43-5.274c.396-.263.757-.118.46.145L6.279 9.096z"/></svg><svg viewBox="0 0 16 13" id="ic_tw" xmlns="http://www.w3.org/2000/svg"><path d="M16 1.543a6.872 6.872 0 01-1.645 1.696 9.368 9.368 0 01-.376 3.066 9.453 9.453 0 01-1.177 2.517 9.91 9.91 0 01-1.868 2.143c-.724.615-1.597 1.11-2.62 1.482a9.666 9.666 0 01-3.278.548A9.106 9.106 0 010 11.523c.237.027.5.04.792.04a6.42 6.42 0 004.07-1.4 3.214 3.214 0 01-1.908-.65 3.235 3.235 0 01-1.157-1.625c.223.034.43.051.62.051.29 0 .578-.037.862-.112a3.259 3.259 0 01-1.888-1.126A3.201 3.201 0 01.65 4.609v-.04c.46.257.954.395 1.482.416a3.275 3.275 0 01-1.066-1.168A3.195 3.195 0 01.67 2.254c0-.596.149-1.147.447-1.655a9.373 9.373 0 002.985 2.426A9.22 9.22 0 007.878 4.03a3.643 3.643 0 01-.081-.75c0-.908.318-1.68.954-2.316A3.169 3.169 0 0111.076 0c.948 0 1.746.345 2.396 1.036a6.43 6.43 0 002.081-.792 3.184 3.184 0 01-1.441 1.807A6.534 6.534 0 0016 1.543z"/></svg><svg aria-hidden="true" data-prefix="fab" data-icon="viber" class="osvg-inline--fa ofa-viber ofa-w-16" viewBox="0 0 512 512" id="ic_vb" xmlns="http://www.w3.org/2000/svg"><path d="M444 49.9C431.3 38.2 379.9.9 265.3.4c0 0-135.1-8.1-200.9 52.3C27.8 89.3 14.9 143 13.5 209.5c-1.4 66.5-3.1 191.1 117 224.9h.1l-.1 51.6s-.8 20.9 13 25.1c16.6 5.2 26.4-10.7 42.3-27.8 8.7-9.4 20.7-23.2 29.8-33.7 82.2 6.9 145.3-8.9 152.5-11.2 16.6-5.4 110.5-17.4 125.7-142 15.8-128.6-7.6-209.8-49.8-246.5zM457.9 287c-12.9 104-89 110.6-103 115.1-6 1.9-61.5 15.7-131.2 11.2 0 0-52 62.7-68.2 79-5.3 5.3-11.1 4.8-11-5.7 0-6.9.4-85.7.4-85.7-.1 0-.1 0 0 0-101.8-28.2-95.8-134.3-94.7-189.8 1.1-55.5 11.6-101 42.6-131.6 55.7-50.5 170.4-43 170.4-43 96.9.4 143.3 29.6 154.1 39.4 35.7 30.6 53.9 103.8 40.6 211.1zm-139-80.8c.4 8.6-12.5 9.2-12.9.6-1.1-22-11.4-32.7-32.6-33.9-8.6-.5-7.8-13.4.7-12.9 27.9 1.5 43.4 17.5 44.8 46.2zm20.3 11.3c1-42.4-25.5-75.6-75.8-79.3-8.5-.6-7.6-13.5.9-12.9 58 4.2 88.9 44.1 87.8 92.5-.1 8.6-13.1 8.2-12.9-.3zm47 13.4c.1 8.6-12.9 8.7-12.9.1-.6-81.5-54.9-125.9-120.8-126.4-8.5-.1-8.5-12.9 0-12.9 73.7.5 133 51.4 133.7 139.2zM374.9 329v.2c-10.8 19-31 40-51.8 33.3l-.2-.3c-21.1-5.9-70.8-31.5-102.2-56.5-16.2-12.8-31-27.9-42.4-42.4-10.3-12.9-20.7-28.2-30.8-46.6-21.3-38.5-26-55.7-26-55.7-6.7-20.8 14.2-41 33.3-51.8h.2c9.2-4.8 18-3.2 23.9 3.9 0 0 12.4 14.8 17.7 22.1 5 6.8 11.7 17.7 15.2 23.8 6.1 10.9 2.3 22-3.7 26.6l-12 9.6c-6.1 4.9-5.3 14-5.3 14s17.8 67.3 84.3 84.3c0 0 9.1.8 14-5.3l9.6-12c4.6-6 15.7-9.8 26.6-3.7 14.7 8.3 33.4 21.2 45.8 32.9 7 5.7 8.6 14.4 3.8 23.6z"/></svg><svg viewBox="0 0 19 11" id="ic_vk" xmlns="http://www.w3.org/2000/svg"><path d="M17.57 8.059c-.393-.414-.84-.785-1.27-1.143-.154-.128-.313-.26-.466-.39-.438-.377-.454-.519-.107-.947.24-.295.495-.59.742-.876.224-.26.455-.527.677-.796l.045-.055c.424-.515.862-1.047 1.095-1.689.06-.17.124-.418-.021-.627-.145-.208-.427-.272-.627-.301a1.946 1.946 0 00-.287-.017l-2.774-.002h-.023c-.42 0-.702.174-.864.53a13.74 13.74 0 01-.519 1.05c-.385.688-.875 1.48-1.584 2.141l-.03.028c-.084.08-.179.169-.248.169a.133.133 0 01-.035-.006c-.147-.05-.246-.362-.241-.507v-.006L11.03 1.8l-.003-.03c-.07-.457-.226-.742-.817-.843a.278.278 0 00-.048-.004H7.278c-.47 0-.729.168-.972.419-.066.067-.202.206-.135.376.07.172.292.208.365.22.361.06.564.254.622.593.1.588.113 1.216.039 1.975a1.49 1.49 0 01-.129.514c-.015.032-.07.138-.127.138-.018 0-.07-.006-.165-.063-.224-.135-.387-.327-.578-.564A12.863 12.863 0 014.53 1.817a.986.986 0 00-.92-.592c-.46-.006-.878-.01-1.276-.01-.435 0-.839.004-1.232.012-.337.005-.57.093-.693.263s-.115.394.024.664C1.544 4.32 2.55 5.896 3.697 7.261c.804.956 1.61 1.618 2.536 2.082.977.49 2.071.729 3.345.729.145 0 .294-.003.445-.01.74-.031 1.015-.266 1.05-.9.016-.323.057-.662.238-.951.114-.183.22-.183.256-.183.067 0 .151.028.241.079.161.092.3.216.413.324l.317.31c.228.224.464.456.71.675.538.481 1.132.693 1.813.647h2.56a.755.755 0 00.602-.34c.16-.248.157-.564-.008-.847a4.587 4.587 0 00-.645-.817z"/></svg><svg viewBox="0 0 16 17" id="ic_wa" xmlns="http://www.w3.org/2000/svg"><path d="M9.719 9.385c.27-.34.451-.51.541-.51.09 0 .428.153 1.01.458.591.306.904.49.938.552.014.035.021.087.021.157 0 .229-.059.493-.177.791-.111.271-.358.5-.74.688-.381.18-.736.27-1.062.27-.396 0-1.056-.215-1.98-.645a5.945 5.945 0 01-1.77-1.23C6 9.41 5.486 8.768 4.958 7.99c-.5-.743-.746-1.417-.74-2.021v-.084c.022-.632.279-1.18.772-1.645a.788.788 0 01.541-.23c.042 0 .104.007.188.021.083.007.15.01.198.01.132 0 .222.025.27.074.056.041.112.135.167.28.056.14.17.445.344.918.174.472.26.732.26.78 0 .147-.121.348-.364.605-.236.25-.354.41-.354.48 0 .048.017.1.052.155.236.507.59.983 1.062 1.427.39.368.913.72 1.573 1.053.083.048.16.072.23.072.103 0 .29-.166.562-.5zm-1.573 5.01a6.33 6.33 0 002.531-.52 6.581 6.581 0 002.094-1.396 6.613 6.613 0 001.396-2.083c.347-.813.52-1.66.52-2.542a6.33 6.33 0 00-.52-2.531 6.582 6.582 0 00-1.396-2.094 6.581 6.581 0 00-2.094-1.396 6.329 6.329 0 00-2.531-.52c-.882 0-1.73.173-2.542.52-.805.348-1.5.813-2.083 1.396a6.582 6.582 0 00-1.396 2.094 6.329 6.329 0 00-.52 2.531c0 1.41.416 2.688 1.25 3.833l-.824 2.428 2.521-.803a6.406 6.406 0 003.594 1.084zM5.094.626A7.669 7.669 0 018.146 0c1.062 0 2.076.208 3.041.625a7.918 7.918 0 012.51 1.677 7.918 7.918 0 011.678 2.51c.417.966.625 1.98.625 3.042 0 1.063-.208 2.08-.625 3.052a7.947 7.947 0 01-1.677 2.5 7.916 7.916 0 01-2.51 1.677 7.594 7.594 0 01-3.042.625 7.735 7.735 0 01-3.802-.979L0 16.125l1.417-4.219A7.666 7.666 0 01.292 7.854c0-1.062.208-2.076.625-3.042a7.917 7.917 0 011.677-2.51 7.948 7.948 0 012.5-1.677z"/></svg></svg>